<svg width="672" height="102" viewBox="0 0 672 102" fill="none" xmlns="http://www.w3.org/2000/svg">
<path d="M59.3193 30.2385C59.2182 30.1206 59.1171 30.0532 58.9824 30.0532C58.7971 30.0532 58.6119 30.188 58.5108 30.3901C58.4098 30.609 58.4266 30.828 58.5782 31.0132C58.9319 31.468 58.9993 32.0743 58.7298 32.5964C58.494 33.0849 58.0392 33.388 57.5171 33.388C57.4666 33.388 57.4161 33.388 57.3655 33.388C56.8434 33.3375 56.3045 33.1354 55.7823 32.9333L55.4287 32.7985C54.4855 32.4617 53.7107 32.2091 52.9023 32.2091L52.7507 32.1922C52.4307 31.8048 52.0096 31.5354 51.5381 31.3669C51.0496 31.1985 50.578 31.1817 50.2075 31.1817C50.0054 31.1817 49.7864 31.1817 49.5843 31.1985C49.3822 31.1985 49.1633 31.2154 48.9612 31.2154C48.5064 31.2154 48.1527 31.1817 47.8327 31.0975L47.7317 31.0638L47.799 30.9796C48.0854 30.6427 48.2875 30.2385 48.4222 29.7669C48.6075 29.0764 48.5233 28.47 48.1696 28.0321C47.8327 27.5942 47.2769 27.3416 46.6874 27.3416C46.1485 27.3416 45.6601 27.5605 45.34 27.9311C45.0032 28.3353 44.8853 28.8911 44.9864 29.5648C45.0706 30.0701 45.2895 30.5417 45.6264 30.9459L45.6937 31.0301L45.5758 31.0469C45.2727 31.1143 44.9358 31.148 44.4979 31.1817C44.4137 31.1817 44.3295 31.1817 44.2621 31.1817C43.0832 31.1817 42.2074 30.6764 41.2473 29.9353C41.2642 29.9185 41.2642 29.8848 41.281 29.868C41.9042 28.5879 42.0052 27.2405 41.9547 25.8258C41.9379 25.2026 40.961 25.2026 40.9947 25.8258C41.0621 27.5605 40.7421 28.8406 39.9168 30.3395C39.4115 31.2827 39.1083 32.1922 38.9568 33.2196C38.9399 33.2196 38.9399 33.2196 38.9231 33.2196C37.3736 33.2533 36.0936 33.9607 35.4367 35.1733C34.9146 34.028 33.9377 33.2533 32.5061 33.1185C30.3334 33.1522 28.6324 34.5165 28.5818 36.807C28.565 37.4471 28.7166 38.0029 28.9692 38.4744C28.9018 38.4744 28.8513 38.4576 28.7839 38.4576C26.746 38.5418 25.146 39.6366 24.8933 41.7756C24.607 44.1503 26.4765 45.5819 28.666 45.683C28.7839 45.683 28.885 45.683 28.986 45.683C28.4639 46.2893 28.1439 47.0809 28.1102 48.0409C28.0597 50.3315 30.0134 51.5778 32.1187 51.5947C32.203 51.5947 32.2703 51.5947 32.3545 51.5778C31.7145 52.201 31.2935 53.0768 31.2766 54.1716C31.2261 56.4285 33.1124 57.658 35.1841 57.7085C34.8304 58.2643 34.5946 58.9211 34.5777 59.7127C34.5272 62.0033 36.4809 63.2496 38.5862 63.2665C40.5231 63.2665 42.0221 61.5991 41.8537 59.679C41.7863 58.9717 41.601 58.3317 41.2979 57.7927C41.6516 57.8769 42.0221 57.9106 42.3926 57.9106C44.3295 57.9106 45.8285 56.2432 45.66 54.3232C45.5927 53.5821 45.3906 52.8916 45.0537 52.3358C45.2221 52.3526 45.3906 52.3694 45.559 52.3694C47.4959 52.3694 48.9948 50.702 48.8264 48.782C48.7591 48.0241 48.5401 47.3504 48.2033 46.7946C48.3717 46.8114 48.5401 46.8283 48.7254 46.8283C50.6622 46.8283 52.1612 45.1609 51.9928 43.2408C51.8075 41.2534 50.6791 39.7881 48.6412 39.6029C48.6075 39.6029 48.5569 39.6197 48.5233 39.6197C48.8601 39.0471 49.0285 38.3734 48.9612 37.6492C48.7759 35.6618 47.6475 34.1965 45.6095 34.0112C44.0432 34.0449 42.7295 34.7691 42.1063 36.0323C41.7863 34.8196 41.0452 33.8933 39.8999 33.4891C40.0347 32.5291 40.3715 31.7543 40.7757 30.9459C42.0558 31.8891 43.1168 32.2764 44.38 32.2764C44.6495 32.2764 44.9358 32.2596 45.239 32.2091C45.7779 32.1417 46.2495 32.0069 46.7211 31.8385C46.8727 31.9227 47.0411 31.9901 47.2095 32.0575C47.7317 32.2596 48.2875 32.3438 48.9612 32.3438C49.1801 32.3438 49.3991 32.327 49.6349 32.3101C49.8538 32.2933 50.0728 32.2764 50.2917 32.2764C50.7633 32.2764 51.117 32.3438 51.4202 32.4785L51.5381 32.5291L51.4202 32.5964C50.2917 33.2028 49.6349 34.1459 49.6349 35.1733C49.6349 35.8639 49.8707 36.5039 50.258 36.9081C50.5444 37.1944 50.8812 37.3292 51.2854 37.3292H51.3359C51.9591 37.3123 52.4644 37.0428 52.8518 36.5544C53.5255 35.6786 53.6097 34.3312 53.3907 33.4386L53.3739 33.3375L53.4749 33.3543C53.6434 33.3712 53.7949 33.4049 53.9465 33.4386C54.3339 33.5396 54.755 33.708 55.1929 33.8933C55.9845 34.2133 56.8097 34.5502 57.5676 34.5502C57.854 34.5502 58.1234 34.4996 58.3592 34.3986C59.1171 34.0786 59.6561 33.4891 59.8582 32.7312C60.0603 31.8722 59.8582 30.9627 59.3193 30.2385ZM38.5525 56.0074C38.4178 56.0074 38.2999 56.0242 38.182 56.0411C38.3336 55.7884 38.4515 55.5021 38.5189 55.199C38.5862 55.519 38.7041 55.8053 38.8557 56.0579C38.7547 56.0411 38.6536 56.0242 38.5525 56.0074ZM38.5189 53.5821C38.4178 53.0095 38.2325 52.5042 37.9462 52.0663C38.1652 52.1 38.401 52.1168 38.6368 52.1168C38.8389 52.1168 39.041 52.1 39.2262 52.0663C38.8894 52.4705 38.6368 52.9758 38.5189 53.5821ZM31.4956 44.403C31.6808 44.1335 31.8156 43.8303 31.9166 43.5272C32.0008 43.8472 32.1187 44.1335 32.2872 44.3861C32.2198 44.3693 32.1524 44.3524 32.0851 44.3524C31.8829 44.3356 31.6977 44.3693 31.4956 44.403ZM41.7526 47.7209C41.6516 47.3336 41.5168 46.9799 41.3484 46.6599C41.6179 46.7104 41.9042 46.7441 42.1905 46.7609C42.0052 47.0641 41.8705 47.3841 41.7526 47.7209ZM38.8052 50.8199C37.3904 50.8368 35.9925 50.0283 36.0262 48.462C36.0767 46.8788 37.2388 46.003 38.721 45.9862C41.3989 46.222 41.7863 50.7862 38.8052 50.8199ZM32.9777 42.3482C33.0282 40.765 34.1904 39.8892 35.6725 39.8724C38.3336 40.1082 38.721 44.6725 35.7567 44.7061C34.3251 44.723 32.9272 43.9145 32.9777 42.3482ZM38.7378 44.9082C38.6704 44.8914 38.6199 44.8746 38.5525 44.8746C38.4683 44.8746 38.3841 44.8914 38.2999 44.8914C38.401 44.7735 38.4852 44.6556 38.5694 44.5377C38.6199 44.6725 38.6704 44.7903 38.7378 44.9082ZM35.3525 38.8787C35.403 38.8113 35.4367 38.7439 35.4704 38.6765C35.5041 38.7439 35.5546 38.7944 35.5883 38.8618C35.5041 38.845 35.4367 38.8618 35.3525 38.8787ZM32.0008 41.3545C31.9166 40.9671 31.7819 40.5797 31.5966 40.2429C31.8998 40.3103 32.203 40.3439 32.5061 40.3439C32.2872 40.6471 32.1187 40.984 32.0008 41.3545ZM35.6388 46.0535C35.4535 46.2388 35.302 46.4577 35.1504 46.6935C35.0493 46.4241 34.9483 46.1883 34.7967 45.9525C35.083 46.0198 35.3525 46.0535 35.6388 46.0535ZM34.9314 50.062C34.9988 50.2136 35.083 50.3483 35.1672 50.4662C34.9651 50.4662 34.763 50.4999 34.5777 50.5168C34.7125 50.382 34.8304 50.2304 34.9314 50.062ZM41.7358 49.8768C41.82 50.1631 41.9547 50.4326 42.1063 50.6684C41.8031 50.6852 41.5168 50.7357 41.2473 50.8031C41.4494 50.5336 41.6179 50.2136 41.7358 49.8768ZM45.2221 45.0598C45.239 45.0767 45.2558 45.1104 45.2727 45.1272C45.239 45.1272 45.2053 45.1272 45.1885 45.144C45.2053 45.1104 45.2053 45.0767 45.2221 45.0598ZM45.1716 41.5398C45.1043 41.3882 45.0369 41.2534 44.9527 41.1187C45.1042 41.1355 45.239 41.1524 45.3906 41.1692C45.3064 41.2871 45.2221 41.4219 45.1716 41.5398ZM42.1231 41.1187C44.7842 41.3545 45.1716 45.9188 42.2074 45.9525C40.7926 45.9693 39.3947 45.1609 39.4284 43.5945C39.462 42.0113 40.6242 41.1355 42.1231 41.1187ZM38.8389 41.405C38.721 41.0345 38.5694 40.6976 38.3841 40.3945C38.6031 40.4282 38.8052 40.445 39.0241 40.445C39.2936 40.445 39.5462 40.4113 39.782 40.3608C39.3947 40.6303 39.0747 40.984 38.8389 41.405ZM32.523 34.5838C35.1841 34.8196 35.5714 39.3839 32.6072 39.4176C31.1924 39.4345 29.7945 38.626 29.8282 37.0597C29.8787 35.4765 31.0408 34.6007 32.523 34.5838ZM26.0892 41.944C26.2744 40.4955 27.386 39.7881 28.7503 39.7376C31.5124 39.9229 31.7482 44.723 28.6492 44.5714C27.1502 44.4872 25.887 43.5777 26.0892 41.944ZM29.6597 47.3841C29.7103 45.8009 30.8724 44.9251 32.3545 44.9082C35.0156 45.144 35.403 49.7083 32.4387 49.742C31.024 49.7589 29.6261 48.9504 29.6597 47.3841ZM33.0114 53.5653C33.0619 51.9821 34.224 51.1063 35.7062 51.0894C38.3673 51.3252 38.7547 55.8895 35.7904 55.9232C34.3756 55.94 32.9777 55.1316 33.0114 53.5653ZM38.8052 61.6833C37.3904 61.7001 35.9925 60.8917 36.0262 59.3254C36.0767 57.7422 37.2388 56.8664 38.721 56.8495C41.3821 57.0853 41.7694 61.6328 38.8052 61.6833ZM42.2747 56.7822C40.86 56.799 39.462 55.9906 39.4957 54.4242C39.5462 52.841 40.7084 51.9652 42.1905 51.9484C44.8516 52.1842 45.239 56.7485 42.2747 56.7822ZM45.66 51.0389C44.2453 51.0557 42.8474 50.2473 42.881 48.6809C42.9316 47.0978 44.0937 46.222 45.5758 46.2051C48.2538 46.4409 48.6412 50.9884 45.66 51.0389ZM48.5569 45.9693C47.1422 45.9862 45.7443 45.1777 45.7779 43.6114C45.8285 42.0282 46.9906 41.1524 48.4727 41.1355C51.1338 41.3545 51.5212 45.9188 48.5569 45.9693ZM45.2053 35.9986C47.8664 36.2344 48.2538 40.7987 45.2895 40.8324C43.8748 40.8492 42.4768 40.0408 42.5105 38.4744C42.5442 36.8913 43.7063 36.0323 45.2053 35.9986ZM41.8705 38.7608C41.9547 39.0471 42.0895 39.2997 42.241 39.5355C41.82 39.5355 41.4158 39.6197 41.0284 39.7208C41.3821 39.4681 41.6684 39.1481 41.8705 38.7608ZM38.7041 39.5524C37.2894 39.5692 35.8914 38.7608 35.9251 37.1944C35.9757 35.6112 37.1378 34.7354 38.6199 34.7186C41.281 34.9544 41.6684 39.5187 38.7041 39.5524ZM47.1759 29.969C47.0748 30.1543 46.9401 30.3059 46.7717 30.4743L46.7211 30.508L46.6706 30.4743C46.2327 30.0869 45.9969 29.6322 46.0137 29.1269C46.0306 28.7227 46.3337 28.2511 46.7548 28.2511C46.9064 28.2511 47.058 28.3016 47.1927 28.4195C47.7485 28.8743 47.2264 29.868 47.1759 29.969ZM51.7233 36.0828C51.5717 36.167 51.4202 36.2176 51.3023 36.2176C51.1002 36.2176 50.9486 36.1165 50.8475 35.9144C50.6117 35.4428 50.7633 34.5502 51.0496 34.1965C51.3359 33.8259 51.7233 33.5733 52.1781 33.4217L52.2454 33.4049L52.2623 33.4722C52.5318 34.2807 52.4981 35.6449 51.7233 36.0828Z" fill="#929292"/>
<path d="M72.4901 44.1504C72.4901 60.8917 58.9152 74.4667 42.1738 74.4667C25.4324 74.4667 11.8574 60.8917 11.8574 44.1504C11.8574 27.409 25.4324 13.834 42.1738 13.834C58.9152 13.834 72.4901 27.409 72.4901 44.1504ZM42.1738 15.4509C26.3587 15.4509 13.5417 28.2679 13.5417 44.083C13.5417 59.898 26.3587 72.7151 42.1738 72.7151C57.9888 72.7151 70.8059 59.898 70.8059 44.083C70.8059 28.2679 57.9888 15.4509 42.1738 15.4509Z" fill="#929292"/>
<path d="M15.63 68.9087C14.872 68.1508 14.872 66.9213 15.63 66.1634L63.4456 18.3477C64.2035 17.5898 65.433 17.5898 66.1909 18.3477C66.9488 19.1056 66.9488 20.3351 66.1909 21.093L18.3753 68.9087C17.6174 69.6666 16.371 69.6666 15.63 68.9087ZM17.87 68.1676L65.4498 20.5878C65.8541 20.1836 65.8541 19.5099 65.4498 19.1056C65.0456 18.7014 64.3719 18.7014 63.9677 19.1056L16.371 66.6686C15.9668 67.0729 15.9668 67.7466 16.371 68.1508C16.7921 68.5718 17.4489 68.5718 17.87 68.1676Z" fill="white"/>
<path d="M17.8695 68.1676L65.4494 20.5878C65.8536 20.1836 65.8536 19.5099 65.4494 19.1057C65.0451 18.7014 64.3714 18.7014 63.9672 19.1057L16.3705 66.6855C15.9663 67.0897 15.9663 67.7634 16.3705 68.1676C16.7916 68.5718 17.4485 68.5718 17.8695 68.1676Z" fill="#929292"/>
<path d="M19.2344 99L20.4648 91.8906L22.374 91.8955C22.9469 91.9118 23.3734 92.0811 23.6533 92.4033C23.9365 92.7256 24.0553 93.1732 24.0098 93.7461C23.9512 94.4102 23.5638 94.9212 22.8477 95.2793C23.1081 95.3932 23.3018 95.5967 23.4287 95.8896C23.5589 96.1826 23.6077 96.5228 23.5752 96.9102C23.5231 97.5514 23.2952 98.0609 22.8916 98.4385C22.4912 98.8161 21.9785 99.0033 21.3535 99H19.2344ZM20.6846 95.6748L20.2402 98.2334L21.373 98.2432C21.8158 98.2367 22.1608 98.0658 22.4082 97.7305C22.6556 97.3919 22.7598 96.972 22.7207 96.4707C22.6751 95.9694 22.418 95.7057 21.9492 95.6797L20.6846 95.6748ZM20.8115 94.9229L21.8809 94.9326C22.1478 94.9261 22.3822 94.8512 22.584 94.708C22.7891 94.5615 22.9388 94.3613 23.0332 94.1074C23.1276 93.8503 23.1585 93.5866 23.126 93.3164C23.0739 92.903 22.8167 92.6865 22.3545 92.667L21.207 92.6621L20.8115 94.9229ZM26.4268 99.0977C25.8343 99.0911 25.3916 98.8779 25.0986 98.458C24.8057 98.0381 24.6982 97.4652 24.7764 96.7393L24.8398 96.2168C24.9408 95.3965 25.1898 94.7552 25.5869 94.293C25.9873 93.8275 26.4951 93.6029 27.1104 93.6191C27.6117 93.6322 27.9876 93.8047 28.2383 94.1367C28.4922 94.4655 28.6126 94.9294 28.5996 95.5283L28.5557 96.1143L28.4824 96.6172L25.6504 96.6123C25.6081 96.9053 25.5885 97.1348 25.5918 97.3008C25.5983 97.6296 25.6797 97.8883 25.8359 98.0771C25.9922 98.2627 26.2152 98.3571 26.5049 98.3604C26.7132 98.3669 26.9183 98.3262 27.1201 98.2383C27.3252 98.1471 27.54 97.9893 27.7646 97.7646L28.1602 98.3164C27.9518 98.5898 27.6947 98.79 27.3887 98.917C27.0827 99.0439 26.762 99.1042 26.4268 99.0977ZM27.0566 94.3564C26.4805 94.3304 26.0768 94.6787 25.8457 95.4014L25.7139 95.875L27.7402 95.8799L27.7646 95.7529C27.7842 95.6032 27.7939 95.4469 27.7939 95.2842C27.7809 94.6917 27.5352 94.3825 27.0566 94.3564ZM31.9736 94.5225C31.8337 94.4932 31.7083 94.4785 31.5977 94.4785C31.1712 94.4785 30.8197 94.7243 30.543 95.2158L29.8887 99H29.0439L29.9619 93.7168L30.7773 93.7119L30.6602 94.2539C30.9694 93.8145 31.3177 93.5996 31.7051 93.6094C31.7832 93.6126 31.9036 93.637 32.0664 93.6826L31.9736 94.5225ZM34.9717 94.5225C34.8317 94.4932 34.7064 94.4785 34.5957 94.4785C34.1693 94.4785 33.8177 94.7243 33.541 95.2158L32.8867 99H32.042L32.96 93.7168L33.7754 93.7119L33.6582 94.2539C33.9674 93.8145 34.3158 93.5996 34.7031 93.6094C34.7812 93.6126 34.9017 93.637 35.0645 93.6826L34.9717 94.5225ZM36.7686 97.5498L38.3701 93.7168H39.293L36.5586 99.8203C36.373 100.263 36.1517 100.597 35.8945 100.821C35.6406 101.049 35.3639 101.158 35.0645 101.148C34.9635 101.145 34.804 101.116 34.5859 101.061L34.6689 100.328L34.8496 100.357C35.276 100.377 35.6081 100.159 35.8457 99.7031L36.2021 98.9023L35.6064 93.7168H36.4951L36.7686 97.5498ZM45.3623 95.8604H43.0332L42.4912 99H41.6172L42.8477 91.8906H46.4463L46.3096 92.6621H43.5898L43.165 95.0938H45.499L45.3623 95.8604ZM49.0049 94.5225C48.8649 94.4932 48.7396 94.4785 48.6289 94.4785C48.2025 94.4785 47.8509 94.7243 47.5742 95.2158L46.9199 99H46.0752L46.9932 93.7168L47.8086 93.7119L47.6914 94.2539C48.0007 93.8145 48.349 93.5996 48.7363 93.6094C48.8145 93.6126 48.9349 93.637 49.0977 93.6826L49.0049 94.5225ZM50.9482 99.0977C50.3558 99.0911 49.9131 98.8779 49.6201 98.458C49.3271 98.0381 49.2197 97.4652 49.2979 96.7393L49.3613 96.2168C49.4622 95.3965 49.7113 94.7552 50.1084 94.293C50.5088 93.8275 51.0166 93.6029 51.6318 93.6191C52.1331 93.6322 52.5091 93.8047 52.7598 94.1367C53.0137 94.4655 53.1341 94.9294 53.1211 95.5283L53.0771 96.1143L53.0039 96.6172L50.1719 96.6123C50.1296 96.9053 50.11 97.1348 50.1133 97.3008C50.1198 97.6296 50.2012 97.8883 50.3574 98.0771C50.5137 98.2627 50.7367 98.3571 51.0264 98.3604C51.2347 98.3669 51.4398 98.3262 51.6416 98.2383C51.8467 98.1471 52.0615 97.9893 52.2861 97.7646L52.6816 98.3164C52.4733 98.5898 52.2161 98.79 51.9102 98.917C51.6042 99.0439 51.2835 99.1042 50.9482 99.0977ZM51.5781 94.3564C51.002 94.3304 50.5983 94.6787 50.3672 95.4014L50.2354 95.875L52.2617 95.8799L52.2861 95.7529C52.3057 95.6032 52.3154 95.4469 52.3154 95.2842C52.3024 94.6917 52.0566 94.3825 51.5781 94.3564ZM55.5381 99.0977C54.9456 99.0911 54.5029 98.8779 54.21 98.458C53.917 98.0381 53.8096 97.4652 53.8877 96.7393L53.9512 96.2168C54.0521 95.3965 54.3011 94.7552 54.6982 94.293C55.0986 93.8275 55.6064 93.6029 56.2217 93.6191C56.723 93.6322 57.099 93.8047 57.3496 94.1367C57.6035 94.4655 57.724 94.9294 57.7109 95.5283L57.667 96.1143L57.5938 96.6172L54.7617 96.6123C54.7194 96.9053 54.6999 97.1348 54.7031 97.3008C54.7096 97.6296 54.791 97.8883 54.9473 98.0771C55.1035 98.2627 55.3265 98.3571 55.6162 98.3604C55.8245 98.3669 56.0296 98.3262 56.2314 98.2383C56.4365 98.1471 56.6514 97.9893 56.876 97.7646L57.2715 98.3164C57.0632 98.5898 56.806 98.79 56.5 98.917C56.194 99.0439 55.8734 99.1042 55.5381 99.0977ZM56.168 94.3564C55.5918 94.3304 55.1882 94.6787 54.957 95.4014L54.8252 95.875L56.8516 95.8799L56.876 95.7529C56.8955 95.6032 56.9053 95.4469 56.9053 95.2842C56.8923 94.6917 56.6465 94.3825 56.168 94.3564Z" fill="#929292"/>
<path d="M244.757 37.6874C244.09 39.9611 244.273 41.8811 244.607 43.2117C244.891 43.5317 245.141 43.8854 245.375 44.2391C245.075 42.9254 244.941 41.0727 245.575 38.9C246.243 37.6705 246.61 36.2389 246.594 34.7231C246.56 32.7357 245.859 30.9167 244.707 29.4851C245.375 30.6809 245.759 32.062 245.776 33.5273C245.809 35.0263 245.425 36.4579 244.757 37.6874Z" fill="#7B7B7B"/>
<path d="M245.675 44.7275C246.443 46.0749 246.877 47.6244 246.91 49.275C246.977 54.4625 242.854 58.7404 237.713 58.8078C234.725 58.8415 232.054 57.4604 230.318 55.2877C231.954 58.151 235.026 60.071 238.531 60.0205C243.672 59.9531 247.795 55.692 247.728 50.4876C247.695 48.315 246.927 46.3107 245.675 44.7275Z" fill="#7B7B7B"/>
<path d="M245.675 44.7276C245.575 44.5591 245.475 44.3907 245.375 44.2391C245.392 44.3065 245.408 44.357 245.425 44.4244C245.509 44.5254 245.592 44.6265 245.675 44.7276Z" fill="#BDB49B"/>
<path d="M237.714 58.8078C242.855 58.7405 246.978 54.4793 246.911 49.275C246.894 47.6245 246.444 46.075 245.676 44.7276C245.592 44.6265 245.509 44.5255 245.425 44.4244C245.409 44.357 245.392 44.3065 245.375 44.2391C245.142 43.8854 244.875 43.5318 244.608 43.2117C244.29 41.8812 244.107 39.9612 244.758 37.6874C245.425 36.4579 245.793 35.0263 245.776 33.5105C245.759 32.0452 245.375 30.6641 244.708 29.4683C243.139 27.5314 240.752 26.302 238.081 26.3356C233.441 26.403 229.718 30.2431 229.785 34.9253C229.802 36.6264 230.319 38.1927 231.187 39.5233C231.554 40.4327 231.988 42.0665 231.654 44.0876C230.019 45.8055 229.034 48.1466 229.067 50.7235C229.084 52.374 229.535 53.9235 230.302 55.2709C232.038 57.4773 234.726 58.8584 237.714 58.8078Z" fill="#929292"/>
<path d="M232.563 33.2338C232.708 32.9018 232.62 32.5415 232.367 32.429C232.114 32.3165 231.791 32.4944 231.646 32.8264C231.501 33.1584 231.589 33.5187 231.842 33.6312C232.095 33.7437 232.418 33.5657 232.563 33.2338Z" fill="#7B7B7B"/>
<path d="M234.846 30.2177C235.231 29.791 235.377 29.2929 235.172 29.1052C234.967 28.9175 234.49 29.1112 234.105 29.5379C233.721 29.9646 233.575 30.4627 233.78 30.6504C233.984 30.8382 234.462 30.6444 234.846 30.2177Z" fill="#7B7B7B"/>
<path d="M235.061 32.5883C235.222 32.2225 235.133 31.8284 234.863 31.708C234.593 31.5876 234.245 31.7865 234.084 32.1523C233.924 32.5181 234.013 32.9122 234.282 33.0326C234.552 33.153 234.901 32.9541 235.061 32.5883Z" fill="#7B7B7B"/>
<path d="M244.57 51.9582C244.782 51.5553 244.702 51.0947 244.392 50.9294C244.082 50.7641 243.66 50.9566 243.449 51.3595C243.238 51.7624 243.317 52.223 243.627 52.3883C243.937 52.5536 244.359 52.3611 244.57 51.9582Z" fill="#7B7B7B"/>
<path d="M241.173 55.9025C241.7 55.3957 241.932 54.7773 241.69 54.5214C241.448 54.2654 240.825 54.4688 240.298 54.9756C239.77 55.4824 239.539 56.1008 239.78 56.3567C240.022 56.6127 240.645 56.4093 241.173 55.9025Z" fill="#7B7B7B"/>
<path d="M241.421 52.5952C241.658 52.1433 241.587 51.6356 241.261 51.4611C240.936 51.2866 240.479 51.5114 240.241 51.9632C240.003 52.4151 240.075 52.9228 240.4 53.0973C240.726 53.2718 241.183 53.047 241.421 52.5952Z" fill="#7B7B7B"/>
<path d="M268.043 42.5717C268.043 59.3131 254.589 72.8881 237.997 72.8881C221.405 72.8881 207.951 59.3131 207.951 42.5717C207.951 25.8304 221.405 12.2554 237.997 12.2554C254.589 12.2554 268.043 25.8304 268.043 42.5717ZM237.98 13.8722C222.306 13.8722 209.604 26.6893 209.604 42.5044C209.604 58.3194 222.306 71.1365 237.98 71.1365C253.654 71.1365 266.357 58.3194 266.357 42.5044C266.357 26.6893 253.671 13.8722 237.98 13.8722Z" fill="#929292"/>
<path d="M211.674 67.3299C210.923 66.572 210.923 65.3425 211.674 64.5846L259.062 16.769C259.814 16.0111 261.032 16.0111 261.783 16.769C262.534 17.5269 262.534 18.7564 261.783 19.5143L214.395 67.3299C213.643 68.0878 212.425 68.0878 211.674 67.3299ZM213.894 66.572L261.049 18.9922C261.449 18.588 261.449 17.9143 261.049 17.5101C260.648 17.1058 259.981 17.1058 259.58 17.5101L212.425 65.0899C212.024 65.4941 212.024 66.1678 212.425 66.572C212.825 66.9762 213.493 66.9762 213.894 66.572Z" fill="white"/>
<path d="M213.893 66.589L261.048 19.0092C261.449 18.605 261.449 17.9313 261.048 17.527C260.648 17.1228 259.98 17.1228 259.579 17.527L212.424 65.1069C212.024 65.5111 212.024 66.1848 212.424 66.589C212.825 66.9933 213.493 66.9933 213.893 66.589Z" fill="#929292"/>
<path d="M224.232 98H223.378L221.557 92.4824L220.6 98H219.721L220.951 90.8906H221.806L223.632 96.4326L224.594 90.8906H225.463L224.232 98ZM228.393 97.5361C228.051 97.9268 227.629 98.1156 227.128 98.1025C226.754 98.096 226.465 97.9593 226.264 97.6924C226.065 97.4255 225.966 97.0527 225.966 96.5742L225.99 96.1299L226.562 92.7168H227.396L226.83 96.1445L226.811 96.501C226.798 96.7386 226.835 96.9355 226.923 97.0918C227.014 97.2448 227.149 97.3245 227.328 97.3311C227.8 97.3538 228.188 97.1211 228.49 96.6328L229.164 92.7168H230.009L229.096 98H228.3L228.393 97.5361ZM232.636 91.4375L232.411 92.7168H233.188L233.065 93.415H232.294L231.737 96.7012L231.728 96.8965C231.715 97.1732 231.814 97.3115 232.025 97.3115C232.104 97.3148 232.221 97.2985 232.377 97.2627L232.304 98C232.121 98.0651 231.938 98.0944 231.752 98.0879C231.456 98.0879 231.233 97.9658 231.083 97.7217C230.933 97.4775 230.878 97.1325 230.917 96.6865L231.454 93.415H230.668L230.795 92.7168H231.571L231.796 91.4375H232.636ZM239.452 94.8604H237.123L236.581 98H235.707L236.938 90.8906H240.536L240.399 91.6621H237.68L237.255 94.0938H239.589L239.452 94.8604ZM243.095 93.5225C242.955 93.4932 242.829 93.4785 242.719 93.4785C242.292 93.4785 241.941 93.7243 241.664 94.2158L241.01 98H240.165L241.083 92.7168L241.898 92.7119L241.781 93.2539C242.09 92.8145 242.439 92.5996 242.826 92.6094C242.904 92.6126 243.025 92.637 243.188 92.6826L243.095 93.5225ZM245.038 98.0977C244.446 98.0911 244.003 97.8779 243.71 97.458C243.417 97.0381 243.31 96.4652 243.388 95.7393L243.451 95.2168C243.552 94.3965 243.801 93.7552 244.198 93.293C244.599 92.8275 245.106 92.6029 245.722 92.6191C246.223 92.6322 246.599 92.8047 246.85 93.1367C247.104 93.4655 247.224 93.9294 247.211 94.5283L247.167 95.1143L247.094 95.6172L244.262 95.6123C244.219 95.9053 244.2 96.1348 244.203 96.3008C244.21 96.6296 244.291 96.8883 244.447 97.0771C244.604 97.2627 244.826 97.3571 245.116 97.3604C245.325 97.3669 245.53 97.3262 245.731 97.2383C245.937 97.1471 246.151 96.9893 246.376 96.7646L246.771 97.3164C246.563 97.5898 246.306 97.79 246 97.917C245.694 98.0439 245.373 98.1042 245.038 98.0977ZM245.668 93.3564C245.092 93.3304 244.688 93.6787 244.457 94.4014L244.325 94.875L246.352 94.8799L246.376 94.7529C246.396 94.6032 246.405 94.4469 246.405 94.2842C246.392 93.6917 246.146 93.3825 245.668 93.3564ZM249.628 98.0977C249.035 98.0911 248.593 97.8779 248.3 97.458C248.007 97.0381 247.899 96.4652 247.978 95.7393L248.041 95.2168C248.142 94.3965 248.391 93.7552 248.788 93.293C249.188 92.8275 249.696 92.6029 250.312 92.6191C250.813 92.6322 251.189 92.8047 251.439 93.1367C251.693 93.4655 251.814 93.9294 251.801 94.5283L251.757 95.1143L251.684 95.6172L248.852 95.6123C248.809 95.9053 248.79 96.1348 248.793 96.3008C248.799 96.6296 248.881 96.8883 249.037 97.0771C249.193 97.2627 249.416 97.3571 249.706 97.3604C249.914 97.3669 250.119 97.3262 250.321 97.2383C250.526 97.1471 250.741 96.9893 250.966 96.7646L251.361 97.3164C251.153 97.5898 250.896 97.79 250.59 97.917C250.284 98.0439 249.963 98.1042 249.628 98.0977ZM250.258 93.3564C249.682 93.3304 249.278 93.6787 249.047 94.4014L248.915 94.875L250.941 94.8799L250.966 94.7529C250.985 94.6032 250.995 94.4469 250.995 94.2842C250.982 93.6917 250.736 93.3825 250.258 93.3564Z" fill="#929292"/>
<path d="M451.375 34.1549L418.278 42.6675L418.799 44.6902L451.895 36.1776L451.375 34.1549Z" fill="#353535"/>
<path d="M448.63 32.088L416.219 40.4243L416.995 43.442L449.407 35.1057L448.63 32.088Z" fill="#929292"/>
<path d="M449.73 36.3232L450.184 38.1085L417.78 46.4455L417.005 43.4307L418.15 43.1276L418.453 44.3739L449.73 36.3232Z" fill="#929292"/>
<path d="M417.635 45.8788C418.986 45.5312 419.8 44.154 419.453 42.8027C419.105 41.4513 417.728 40.6376 416.376 40.9852C415.025 41.3327 414.211 42.71 414.559 44.0613C414.907 45.4126 416.284 46.2263 417.635 45.8788Z" fill="#353535"/>
<path d="M417.578 45.6708C416.348 45.9908 415.085 45.2497 414.765 44.0034C414.445 42.7739 415.186 41.5107 416.432 41.1907C417.662 40.8707 418.925 41.6117 419.245 42.8581L420.02 42.656C419.599 40.9886 417.898 39.9949 416.23 40.4159C414.563 40.837 413.569 42.5381 413.99 44.2055C414.411 45.8729 416.112 46.8666 417.78 46.4455C419.009 46.1255 419.868 45.1318 420.07 43.9697L419.194 44.1886C418.942 44.896 418.352 45.4687 417.578 45.6708Z" fill="#A5A4A4"/>
<path d="M446.715 37.098C447.456 38.0243 448.702 38.4791 449.915 38.1759C450.016 38.1591 450.1 38.1254 450.184 38.0917C451.262 37.7043 452.003 36.778 452.205 35.7001L446.715 37.098Z" fill="#929292"/>
<path d="M452.155 34.3863L446.126 35.9358C445.705 34.2684 446.699 32.5842 448.366 32.1463C450.033 31.7252 451.718 32.7189 452.155 34.3863Z" fill="#783518"/>
<path d="M450.923 31.43L423.174 51.3735L424.393 53.0694L452.141 33.1258L450.923 31.43Z" fill="#353535"/>
<path d="M447.627 30.4894L420.453 50.0201L422.272 52.5502L449.446 33.0195L447.627 30.4894Z" fill="#828282"/>
<path d="M450.184 34.0326L451.262 35.5316L424.079 55.0688L422.26 52.5424L423.22 51.8519L423.961 52.8793L450.184 34.0326Z" fill="#757576"/>
<path d="M423.73 54.5936C424.863 53.7794 425.121 52.2008 424.307 51.0678C423.492 49.9349 421.914 49.6765 420.781 50.4908C419.648 51.3051 419.39 52.8837 420.204 54.0166C421.018 55.1496 422.597 55.4079 423.73 54.5936Z" fill="#353535"/>
<path d="M423.623 54.412C422.579 55.1531 421.148 54.9173 420.39 53.8899C419.649 52.8457 419.884 51.4141 420.912 50.6562C421.956 49.9151 423.388 50.1509 424.146 51.1783L424.786 50.7067C423.792 49.3088 421.838 48.9888 420.44 49.9993C419.042 50.993 418.722 52.9468 419.733 54.3447C420.727 55.7426 422.68 56.0626 424.078 55.0521C425.106 54.311 425.543 53.0647 425.308 51.9025L424.567 52.4246C424.6 53.1994 424.263 53.9573 423.623 54.412Z" fill="#8E8E8E"/>
<path d="M447.658 35.8685C448.686 36.458 449.999 36.4411 451.027 35.7001C451.111 35.6495 451.178 35.5822 451.246 35.5148C452.105 34.7569 452.475 33.6285 452.256 32.5505L447.658 35.8685Z" fill="#757576"/>
<path d="M451.734 31.3547L446.682 34.9758C445.688 33.5779 445.991 31.641 447.389 30.6305C448.787 29.6536 450.741 29.9736 451.734 31.3547Z" fill="#828282"/>
<path d="M463.136 42.2517C463.136 58.993 449.561 72.568 432.819 72.568C416.078 72.568 402.503 58.993 402.503 42.2517C402.503 25.5103 416.078 11.9353 432.819 11.9353C449.561 11.9353 463.136 25.5103 463.136 42.2517ZM432.819 13.5522C417.004 13.5522 404.187 26.3693 404.187 42.1843C404.187 57.9993 417.004 70.8164 432.819 70.8164C448.634 70.8164 461.451 57.9993 461.451 42.1843C461.451 26.3693 448.634 13.5522 432.819 13.5522Z" fill="#929292"/>
<path d="M406.259 67.01C405.501 66.2521 405.501 65.0226 406.259 64.2647L454.075 16.449C454.832 15.6911 456.062 15.6911 456.82 16.449C457.578 17.207 457.578 18.4365 456.82 19.1944L409.004 67.01C408.246 67.7679 407.017 67.7679 406.259 67.01ZM408.499 66.2521L456.079 18.6722C456.483 18.268 456.483 17.5943 456.079 17.1901C455.675 16.7859 455.001 16.7859 454.597 17.1901L407.017 64.77C406.613 65.1742 406.613 65.8479 407.017 66.2521C407.421 66.6732 408.095 66.6732 408.499 66.2521Z" fill="white"/>
<path d="M408.499 66.2691L456.079 18.6892C456.483 18.285 456.483 17.6113 456.079 17.2071C455.675 16.8029 455.001 16.8029 454.597 17.2071L407.017 64.7869C406.613 65.1912 406.613 65.8649 407.017 66.2691C407.421 66.6733 408.095 66.6733 408.499 66.2691Z" fill="#929292"/>
<path d="M407.643 95.7393C407.535 96.4814 407.258 97.0658 406.812 97.4922C406.37 97.9154 405.808 98.1172 405.128 98.0977C404.75 98.0879 404.423 97.9886 404.146 97.7998C403.87 97.611 403.657 97.3376 403.507 96.9795C403.36 96.6214 403.284 96.2227 403.277 95.7832C403.274 95.5521 403.287 95.3258 403.316 95.1045L403.512 93.8496C403.665 92.8763 403.987 92.1195 404.479 91.5791C404.97 91.0387 405.582 90.7767 406.314 90.793C406.92 90.8027 407.381 91.0176 407.696 91.4375C408.015 91.8542 408.16 92.4352 408.131 93.1807L407.252 93.1758C407.265 92.7721 407.239 92.4645 407.174 92.2529C407.112 92.0413 407.008 91.8753 406.861 91.7549C406.715 91.6312 406.515 91.5661 406.261 91.5596C405.772 91.5433 405.369 91.7288 405.05 92.1162C404.731 92.5003 404.513 93.0765 404.396 93.8447L404.2 95.1094C404.151 95.4512 404.135 95.762 404.151 96.042C404.177 96.4684 404.278 96.7891 404.454 97.0039C404.633 97.2188 404.874 97.3311 405.177 97.3408C405.603 97.3571 405.945 97.2448 406.202 97.0039C406.463 96.763 406.656 96.3447 406.783 95.749L407.643 95.7393ZM409.298 98H408.453L409.371 92.7168H410.216L409.298 98ZM409.566 91.3203C409.573 91.1803 409.618 91.0583 409.703 90.9541C409.788 90.8499 409.903 90.7946 410.05 90.7881C410.19 90.7816 410.305 90.8288 410.396 90.9297C410.488 91.0306 410.53 91.1559 410.523 91.3057C410.517 91.4489 410.47 91.5726 410.382 91.6768C410.297 91.7777 410.182 91.8298 410.035 91.833C409.892 91.8395 409.776 91.7923 409.688 91.6914C409.601 91.5905 409.56 91.4668 409.566 91.3203ZM412.369 92.7119L412.257 93.2881C412.641 92.8356 413.077 92.6126 413.565 92.6191C413.901 92.6224 414.166 92.7363 414.361 92.9609C414.56 93.1855 414.672 93.4915 414.698 93.8789C414.711 94.1035 414.706 94.3232 414.684 94.5381L414.107 98H413.268L413.849 94.5234L413.868 94.1377C413.868 93.6396 413.663 93.3857 413.253 93.376C412.918 93.3662 412.605 93.5566 412.315 93.9473L412.169 94.1572L411.505 98H410.66L411.578 92.7168L412.369 92.7119ZM417.115 92.7119L417.003 93.2881C417.387 92.8356 417.823 92.6126 418.312 92.6191C418.647 92.6224 418.912 92.7363 419.107 92.9609C419.306 93.1855 419.418 93.4915 419.444 93.8789C419.457 94.1035 419.452 94.3232 419.43 94.5381L418.854 98H418.014L418.595 94.5234L418.614 94.1377C418.614 93.6396 418.409 93.3857 417.999 93.376C417.664 93.3662 417.351 93.5566 417.062 93.9473L416.915 94.1572L416.251 98H415.406L416.324 92.7168L417.115 92.7119ZM422.862 98C422.843 97.9023 422.835 97.8063 422.838 97.7119L422.857 97.4238C422.483 97.8763 422.079 98.1025 421.646 98.1025C421.223 98.1025 420.893 97.9658 420.655 97.6924C420.421 97.4157 420.317 97.0511 420.343 96.5986C420.379 96.0518 420.603 95.6139 421.017 95.2852C421.433 94.9564 421.979 94.792 422.652 94.792H423.238L423.321 94.2305C423.38 93.6478 423.16 93.3564 422.662 93.3564C422.405 93.3564 422.19 93.4329 422.018 93.5859C421.848 93.7357 421.741 93.9326 421.695 94.1768L420.86 94.1816C420.903 93.7357 421.104 93.3613 421.466 93.0586C421.83 92.7559 422.258 92.6077 422.75 92.6143C423.225 92.6208 423.59 92.7673 423.844 93.0537C424.101 93.3369 424.205 93.734 424.156 94.2451L423.727 96.8477C423.697 97.0332 423.686 97.2106 423.692 97.3799L423.722 97.917L423.712 98H422.862ZM421.822 97.3213C422.245 97.3213 422.61 97.1146 422.916 96.7012L423.136 95.4365L422.75 95.4316C422.418 95.4316 422.123 95.4935 421.866 95.6172C421.609 95.7376 421.427 95.9069 421.319 96.125C421.215 96.3398 421.179 96.5742 421.212 96.8281C421.254 97.1569 421.458 97.3213 421.822 97.3213ZM426.559 92.7119L426.456 93.2051C426.83 92.8014 427.263 92.6061 427.755 92.6191C428.012 92.6257 428.237 92.6924 428.429 92.8193C428.624 92.9463 428.762 93.1335 428.844 93.3809C429.264 92.8633 429.744 92.6077 430.284 92.6143C430.639 92.624 430.919 92.7363 431.124 92.9512C431.329 93.166 431.448 93.4655 431.48 93.8496C431.5 94.0742 431.498 94.3005 431.476 94.5283L430.895 98H430.06L430.636 94.5186L430.65 94.1084C430.644 93.8773 430.582 93.6982 430.465 93.5713C430.351 93.4411 430.187 93.376 429.972 93.376C429.715 93.3695 429.483 93.4736 429.278 93.6885C429.073 93.9033 428.948 94.1589 428.902 94.4551V94.4795L428.302 98H427.452L428.033 94.5234C428.046 94.3932 428.049 94.2598 428.043 94.123C428.02 93.6445 427.799 93.3971 427.379 93.3809C426.979 93.3743 426.645 93.5924 426.378 94.0352L425.694 98H424.854L425.772 92.7168L426.559 92.7119ZM432.55 95.124C432.657 94.3656 432.916 93.7552 433.326 93.293C433.74 92.8275 434.26 92.6029 434.889 92.6191C435.279 92.6289 435.605 92.7428 435.865 92.9609C436.126 93.1758 436.311 93.4736 436.422 93.8545C436.536 94.2354 436.567 94.6553 436.515 95.1143L436.456 95.6123C436.349 96.3675 436.088 96.9746 435.675 97.4336C435.261 97.8926 434.742 98.1139 434.117 98.0977C433.727 98.0879 433.401 97.9756 433.141 97.7607C432.88 97.5459 432.693 97.248 432.579 96.8672C432.468 96.4863 432.439 96.068 432.491 95.6123L432.55 95.124ZM433.307 95.9688C433.297 96.4049 433.364 96.7435 433.507 96.9844C433.653 97.2253 433.873 97.3522 434.166 97.3652C434.544 97.3815 434.856 97.248 435.104 96.9648C435.351 96.6784 435.517 96.2503 435.602 95.6807L435.675 95.1094L435.699 94.7578C435.709 94.3184 435.639 93.9782 435.489 93.7373C435.343 93.4964 435.125 93.3695 434.835 93.3564C434.451 93.3402 434.13 93.4997 433.873 93.835C433.619 94.167 433.455 94.6292 433.38 95.2217L433.321 95.7051L433.307 95.9688ZM438.834 92.7119L438.722 93.2881C439.106 92.8356 439.542 92.6126 440.03 92.6191C440.366 92.6224 440.631 92.7363 440.826 92.9609C441.025 93.1855 441.137 93.4915 441.163 93.8789C441.176 94.1035 441.171 94.3232 441.148 94.5381L440.572 98H439.732L440.313 94.5234L440.333 94.1377C440.333 93.6396 440.128 93.3857 439.718 93.376C439.382 93.3662 439.07 93.5566 438.78 93.9473L438.634 94.1572L437.97 98H437.125L438.043 92.7168L438.834 92.7119ZM448.014 94.8604H445.685L445.143 98H444.269L445.499 90.8906H449.098L448.961 91.6621H446.241L445.816 94.0938H448.15L448.014 94.8604ZM451.656 93.5225C451.516 93.4932 451.391 93.4785 451.28 93.4785C450.854 93.4785 450.502 93.7243 450.226 94.2158L449.571 98H448.727L449.645 92.7168L450.46 92.7119L450.343 93.2539C450.652 92.8145 451 92.5996 451.388 92.6094C451.466 92.6126 451.586 92.637 451.749 92.6826L451.656 93.5225ZM453.6 98.0977C453.007 98.0911 452.564 97.8779 452.271 97.458C451.979 97.0381 451.871 96.4652 451.949 95.7393L452.013 95.2168C452.114 94.3965 452.363 93.7552 452.76 93.293C453.16 92.8275 453.668 92.6029 454.283 92.6191C454.785 92.6322 455.16 92.8047 455.411 93.1367C455.665 93.4655 455.785 93.9294 455.772 94.5283L455.729 95.1143L455.655 95.6172L452.823 95.6123C452.781 95.9053 452.761 96.1348 452.765 96.3008C452.771 96.6296 452.853 96.8883 453.009 97.0771C453.165 97.2627 453.388 97.3571 453.678 97.3604C453.886 97.3669 454.091 97.3262 454.293 97.2383C454.498 97.1471 454.713 96.9893 454.938 96.7646L455.333 97.3164C455.125 97.5898 454.868 97.79 454.562 97.917C454.256 98.0439 453.935 98.1042 453.6 98.0977ZM454.229 93.3564C453.653 93.3304 453.25 93.6787 453.019 94.4014L452.887 94.875L454.913 94.8799L454.938 94.7529C454.957 94.6032 454.967 94.4469 454.967 94.2842C454.954 93.6917 454.708 93.3825 454.229 93.3564ZM458.189 98.0977C457.597 98.0911 457.154 97.8779 456.861 97.458C456.568 97.0381 456.461 96.4652 456.539 95.7393L456.603 95.2168C456.703 94.3965 456.952 93.7552 457.35 93.293C457.75 92.8275 458.258 92.6029 458.873 92.6191C459.374 92.6322 459.75 92.8047 460.001 93.1367C460.255 93.4655 460.375 93.9294 460.362 94.5283L460.318 95.1143L460.245 95.6172L457.413 95.6123C457.371 95.9053 457.351 96.1348 457.354 96.3008C457.361 96.6296 457.442 96.8883 457.599 97.0771C457.755 97.2627 457.978 97.3571 458.268 97.3604C458.476 97.3669 458.681 97.3262 458.883 97.2383C459.088 97.1471 459.303 96.9893 459.527 96.7646L459.923 97.3164C459.715 97.5898 459.457 97.79 459.151 97.917C458.845 98.0439 458.525 98.1042 458.189 98.0977ZM458.819 93.3564C458.243 93.3304 457.84 93.6787 457.608 94.4014L457.477 94.875L459.503 94.8799L459.527 94.7529C459.547 94.6032 459.557 94.4469 459.557 94.2842C459.544 93.6917 459.298 93.3825 458.819 93.3564Z" fill="#929292"/>
<path d="M647.582 60.4705C648.07 60.5715 648.39 61.06 648.272 61.5653C648.171 62.0537 647.683 62.3737 647.177 62.2558C647.11 62.239 621.611 56.8157 620.668 33.7584C620.651 33.2531 621.038 32.8321 621.543 32.8152C622.049 32.7984 622.47 33.1858 622.487 33.691C623.396 55.3167 647.514 60.4705 647.582 60.4705Z" fill="#929292"/>
<path d="M635.759 45.7166C634.765 47.6366 633.451 51.2746 635.742 54.3736C636.567 52.9925 637.729 49.9609 635.759 45.7166ZM635.153 56.4957C629.527 50.8704 635.035 43.3587 635.051 43.3418L635.86 42.1965L636.567 43.4092C641.3 51.3756 636.466 56.4621 636.449 56.4621L635.809 57.1694L635.153 56.4957Z" fill="#929292"/>
<path d="M632.171 39.9565C630.504 41.3208 627.86 44.1671 628.752 47.9061C630.049 46.963 632.306 44.6387 632.171 39.9565ZM627.388 49.6241C624.441 42.2471 632.458 37.4975 632.475 37.4975L633.67 36.7733L633.856 38.1544C635.068 47.3335 628.635 50.1125 628.618 50.1125L627.742 50.4999L627.388 49.6241Z" fill="#929292"/>
<path d="M627.186 32.2089C625.653 33.7248 623.278 36.7901 624.491 40.4449C625.704 39.3838 627.742 36.8575 627.186 32.2089ZM623.278 42.2639C619.674 35.1732 627.236 29.7331 627.253 29.7163L628.382 28.891L628.685 30.2552C630.723 39.2996 624.541 42.6344 624.525 42.6512L623.716 43.106L623.278 42.2639Z" fill="#929292"/>
<path d="M621.544 23.6026C620.55 25.5226 619.237 29.1606 621.527 32.2596C622.352 30.8785 623.515 27.8469 621.544 23.6026ZM620.938 34.3817C615.312 28.7564 620.82 21.2446 620.837 21.2278L621.645 20.0825L622.352 21.2952C627.085 29.2616 622.251 34.3481 622.235 34.3481L621.595 35.0554L620.938 34.3817Z" fill="#929292"/>
<path d="M613.308 31.5185C613.341 31.5185 622.537 32.967 622.504 40.9334V41.8766L621.56 41.8429C621.544 41.8429 614.52 41.624 612.28 32.6469L611.943 31.2827L613.308 31.5185ZM620.55 39.8387C619.994 36.0323 616.491 34.348 614.453 33.6912C616.036 38.1039 619 39.4344 620.55 39.8387Z" fill="#929292"/>
<path d="M615.312 43.1398C615.346 43.1398 624.542 41.7418 626.916 49.3378L627.203 50.2473L626.276 50.4999C626.26 50.4999 619.523 52.4199 614.655 44.5377L613.914 43.3419L615.312 43.1398ZM624.761 48.8662C623.093 45.3967 619.236 44.8577 617.08 44.8577C619.944 48.563 623.161 48.9504 624.761 48.8662Z" fill="#929292"/>
<path d="M622.689 54.2557C624.458 55.5021 627.894 57.2874 631.279 55.4179C629.999 54.4242 627.153 52.8746 622.689 54.2557ZM633.283 56.2768C626.967 61.1106 620.247 54.6431 620.23 54.6263L619.22 53.6662L620.5 53.1273C629.022 49.5062 633.418 54.9631 633.435 54.98L634.041 55.7042L633.283 56.2768Z" fill="#929292"/>
<path d="M660.685 43.6281C660.685 60.3695 647.11 73.9445 630.369 73.9445C613.628 73.9445 600.053 60.3695 600.053 43.6281C600.053 26.8868 613.628 13.3118 630.369 13.3118C647.11 13.3118 660.685 26.8868 660.685 43.6281ZM630.369 14.9286C614.554 14.9286 601.737 27.7457 601.737 43.5608C601.737 59.3758 614.554 72.1929 630.369 72.1929C646.184 72.1929 659.001 59.3758 659.001 43.5608C659.001 27.7457 646.184 14.9286 630.369 14.9286Z" fill="#929292"/>
<path d="M603.825 68.3865C603.067 67.6286 603.067 66.3991 603.825 65.6412L651.624 17.8424C652.382 17.0844 653.611 17.0844 654.369 17.8424C655.127 18.6003 655.127 19.8298 654.369 20.5877L606.571 68.3865C605.813 69.1444 604.566 69.1444 603.825 68.3865ZM606.065 67.6454L653.645 20.0656C654.049 19.6613 654.049 18.9876 653.645 18.5834C653.241 18.1792 652.567 18.1792 652.163 18.5834L604.566 66.1464C604.162 66.5507 604.162 67.2244 604.566 67.6286C604.987 68.0496 605.644 68.0496 606.065 67.6454Z" fill="white"/>
<path d="M606.066 67.6454L653.646 20.0656C654.05 19.6614 654.05 18.9877 653.646 18.5834C653.241 18.1792 652.568 18.1792 652.164 18.5834L604.567 66.1633C604.163 66.5675 604.163 67.2412 604.567 67.6454C604.988 68.0497 605.645 68.0497 606.066 67.6454Z" fill="#929292"/>
<path d="M613.191 95.1084H610.862L610.32 98.248H609.446L610.677 91.1387H614.275L614.139 91.9102H611.419L610.994 94.3418H613.328L613.191 95.1084ZM614.944 98.248H614.1L615.403 90.748H616.248L614.944 98.248ZM616.653 95.3721C616.761 94.6136 617.02 94.0033 617.43 93.541C617.843 93.0755 618.364 92.8509 618.992 92.8672C619.383 92.877 619.708 92.9909 619.969 93.209C620.229 93.4238 620.415 93.7217 620.525 94.1025C620.639 94.4834 620.67 94.9033 620.618 95.3623L620.56 95.8604C620.452 96.6156 620.192 97.2227 619.778 97.6816C619.365 98.1406 618.846 98.362 618.221 98.3457C617.83 98.3359 617.505 98.2236 617.244 98.0088C616.984 97.7939 616.797 97.4961 616.683 97.1152C616.572 96.7344 616.543 96.3161 616.595 95.8604L616.653 95.3721ZM617.41 96.2168C617.4 96.653 617.467 96.9915 617.61 97.2324C617.757 97.4733 617.977 97.6003 618.27 97.6133C618.647 97.6296 618.96 97.4961 619.207 97.2129C619.454 96.9264 619.62 96.4984 619.705 95.9287L619.778 95.3574L619.803 95.0059C619.812 94.5664 619.743 94.2262 619.593 93.9854C619.446 93.7445 619.228 93.6175 618.938 93.6045C618.554 93.5882 618.234 93.7477 617.977 94.083C617.723 94.415 617.558 94.8773 617.483 95.4697L617.425 95.9531L617.41 96.2168ZM623.968 97.7842C623.626 98.1748 623.204 98.3636 622.703 98.3506C622.329 98.3441 622.041 98.2074 621.839 97.9404C621.64 97.6735 621.541 97.3008 621.541 96.8223L621.565 96.3779L622.137 92.9648H622.972L622.405 96.3926L622.386 96.749C622.373 96.9867 622.41 97.1836 622.498 97.3398C622.589 97.4928 622.724 97.5726 622.903 97.5791C623.375 97.6019 623.763 97.3691 624.065 96.8809L624.739 92.9648H625.584L624.671 98.248H623.875L623.968 97.7842ZM628.895 93.7705C628.755 93.7412 628.629 93.7266 628.519 93.7266C628.092 93.7266 627.741 93.9723 627.464 94.4639L626.81 98.248H625.965L626.883 92.9648L627.698 92.96L627.581 93.502C627.89 93.0625 628.239 92.8477 628.626 92.8574C628.704 92.8607 628.825 92.8851 628.987 92.9307L628.895 93.7705ZM635.105 95.1084H632.776L632.234 98.248H631.36L632.591 91.1387H636.189L636.053 91.9102H633.333L632.908 94.3418H635.242L635.105 95.1084ZM638.748 93.7705C638.608 93.7412 638.483 93.7266 638.372 93.7266C637.946 93.7266 637.594 93.9723 637.317 94.4639L636.663 98.248H635.818L636.736 92.9648L637.552 92.96L637.435 93.502C637.744 93.0625 638.092 92.8477 638.479 92.8574C638.558 92.8607 638.678 92.8851 638.841 92.9307L638.748 93.7705ZM640.691 98.3457C640.099 98.3392 639.656 98.126 639.363 97.7061C639.07 97.2861 638.963 96.7132 639.041 95.9873L639.104 95.4648C639.205 94.6445 639.454 94.0033 639.852 93.541C640.252 93.0755 640.76 92.8509 641.375 92.8672C641.876 92.8802 642.252 93.0527 642.503 93.3848C642.757 93.7135 642.877 94.1774 642.864 94.7764L642.82 95.3623L642.747 95.8652L639.915 95.8604C639.873 96.1533 639.853 96.3828 639.856 96.5488C639.863 96.8776 639.944 97.1364 640.101 97.3252C640.257 97.5107 640.48 97.6051 640.77 97.6084C640.978 97.6149 641.183 97.5742 641.385 97.4863C641.59 97.3952 641.805 97.2373 642.029 97.0127L642.425 97.5645C642.216 97.8379 641.959 98.0381 641.653 98.165C641.347 98.292 641.027 98.3522 640.691 98.3457ZM641.321 93.6045C640.745 93.5785 640.341 93.9268 640.11 94.6494L639.979 95.123L642.005 95.1279L642.029 95.001C642.049 94.8512 642.059 94.695 642.059 94.5322C642.046 93.9398 641.8 93.6305 641.321 93.6045ZM645.281 98.3457C644.689 98.3392 644.246 98.126 643.953 97.7061C643.66 97.2861 643.553 96.7132 643.631 95.9873L643.694 95.4648C643.795 94.6445 644.044 94.0033 644.441 93.541C644.842 93.0755 645.35 92.8509 645.965 92.8672C646.466 92.8802 646.842 93.0527 647.093 93.3848C647.347 93.7135 647.467 94.1774 647.454 94.7764L647.41 95.3623L647.337 95.8652L644.505 95.8604C644.463 96.1533 644.443 96.3828 644.446 96.5488C644.453 96.8776 644.534 97.1364 644.69 97.3252C644.847 97.5107 645.07 97.6051 645.359 97.6084C645.568 97.6149 645.773 97.5742 645.975 97.4863C646.18 97.3952 646.395 97.2373 646.619 97.0127L647.015 97.5645C646.806 97.8379 646.549 98.0381 646.243 98.165C645.937 98.292 645.617 98.3522 645.281 98.3457ZM645.911 93.6045C645.335 93.5785 644.931 93.9268 644.7 94.6494L644.568 95.123L646.595 95.1279L646.619 95.001C646.639 94.8512 646.648 94.695 646.648 94.5322C646.635 93.9398 646.39 93.6305 645.911 93.6045Z" fill="#929292"/>
</svg>
