<?xml version="1.0" encoding="utf-8"?>
<!-- Generator: Adobe Illustrator 21.0.0, SVG Export Plug-In . SVG Version: 6.00 Build 0)  -->
<svg version="1.1" id="레이어_1" xmlns="http://www.w3.org/2000/svg" xmlns:xlink="http://www.w3.org/1999/xlink" x="0px"
	 y="0px" viewBox="0 0 250 430" style="enable-background:new 0 0 250 430;" xml:space="preserve">
<style type="text/css">
	.st0{fill:#FFFFFF;}
	.st1{fill:url(#SVGID_1_);}
	.st2{fill:url(#SVGID_2_);}
</style>
<rect class="st0" width="250" height="430"/>
<g>
	
		<radialGradient id="SVGID_1_" cx="108.9416" cy="237.9936" r="133.4216" gradientTransform="matrix(1 0 0 -1 0 432.0004)" gradientUnits="userSpaceOnUse">
		<stop  offset="0" style="stop-color:#FDB82D"/>
		<stop  offset="0.4611" style="stop-color:#FDB62B"/>
		<stop  offset="0.6748" style="stop-color:#FCB022"/>
		<stop  offset="0.8373" style="stop-color:#FAA819"/>
		<stop  offset="0.9734" style="stop-color:#F59A1E"/>
		<stop  offset="1" style="stop-color:#F4961F"/>
	</radialGradient>
	<path class="st1" d="M219.5,207.6c-4.7-39.4-46.5-70.2-97.4-70.2c-54,0-105.9,32.1-105.9,96.8c0,58.9,55,88.4,112.8,88.4
		s104.8-34.2,104.8-76.4C233.8,232.1,228.6,218.9,219.5,207.6z"/>
	
		<linearGradient id="SVGID_2_" gradientUnits="userSpaceOnUse" x1="131.2825" y1="201.4312" x2="141.3912" y2="80.1261" gradientTransform="matrix(1 0 0 -1 0 432.0004)">
		<stop  offset="0" style="stop-color:#8D633A"/>
		<stop  offset="1" style="stop-color:#412312"/>
	</linearGradient>
	<path class="st2" d="M219.5,207.6c0,0-5.4,62.7-76,69.3s-120.7-22.4-96.6-80.6s114.7-48.3,126.2-15c11.6,33.5-11.6,57.6-44,55.6
		c-41-2.5-48.8-45.4-14.9-51.5c21.6-3.9,22.9,14.7,9.1,16.1c-8.3,0.8-12.4,19.6,5.8,18c18.3-1.7,30.7-21.6,15.8-40.7
		c-15-19.1-55.6-16.6-71.4,8.3c-15.8,24.9,1.7,64.8,70.6,64.8S219.5,207.6,219.5,207.6z"/>
</g>
</svg>
