<?xml version="1.0" encoding="utf-8"?>
<!-- Generator: Adobe Illustrator 21.0.0, SVG Export Plug-In . SVG Version: 6.00 Build 0)  -->
<svg version="1.1" id="레이어_1" xmlns="http://www.w3.org/2000/svg" xmlns:xlink="http://www.w3.org/1999/xlink" x="0px"
	 y="0px" viewBox="0 0 250 430" style="enable-background:new 0 0 250 430;" xml:space="preserve">
<style type="text/css">
	.st0{fill:#FFFFFF;}
	.st1{fill:url(#SVGID_1_);}
	.st2{fill:url(#SVGID_2_);}
	.st3{fill:url(#SVGID_3_);}
	.st4{fill:url(#SVGID_4_);}
	.st5{fill:url(#SVGID_5_);}
	.st6{fill:url(#SVGID_6_);}
</style>
<rect y="0.2" class="st0" width="250" height="429.6"/>
<g>
	
		<radialGradient id="SVGID_1_" cx="115.8668" cy="324.3174" r="82.8208" gradientTransform="matrix(1 0 0 -1 0 432.0004)" gradientUnits="userSpaceOnUse">
		<stop  offset="0" style="stop-color:#FDB82D"/>
		<stop  offset="0.4611" style="stop-color:#FDB62B"/>
		<stop  offset="0.6748" style="stop-color:#FCB022"/>
		<stop  offset="0.8373" style="stop-color:#FAA819"/>
		<stop  offset="0.9734" style="stop-color:#F59A1E"/>
		<stop  offset="1" style="stop-color:#F4961F"/>
	</radialGradient>
	<path class="st1" d="M184.5,116.1c-2.9-24.5-28.9-43.6-60.4-43.6c-33.5,0-65.7,19.9-65.7,60.1c0,36.6,34.1,54.9,70,54.9
		s65-21.2,65-47.4C193.4,131.3,190.1,123.2,184.5,116.1z"/>
	
		<linearGradient id="SVGID_2_" gradientUnits="userSpaceOnUse" x1="129.7348" y1="301.6214" x2="136.0098" y2="226.3219" gradientTransform="matrix(1 0 0 -1 0 432.0004)">
		<stop  offset="0" style="stop-color:#8D633A"/>
		<stop  offset="1" style="stop-color:#412312"/>
	</linearGradient>
	<path class="st2" d="M184.5,116.1c0,0-3.3,38.9-47.1,43c-43.8,4.1-74.9-13.9-60-50s71.2-30,78.4-9.3c7.2,20.8-7.2,35.8-27.3,34.5
		c-25.5-1.5-30.3-28.2-9.3-32c13.4-2.4,14.2,9.1,5.6,10c-5.1,0.5-7.7,12.2,3.6,11.2c11.3-1,19.1-13.4,9.8-25.3
		c-9.3-11.9-34.5-10.3-44.3,5.2c-9.8,15.5,1,40.2,43.8,40.2S184.5,116.1,184.5,116.1z"/>
	
		<radialGradient id="SVGID_3_" cx="114.1349" cy="240.4224" r="82.8208" gradientTransform="matrix(1 0 0 -1 0 432.0004)" gradientUnits="userSpaceOnUse">
		<stop  offset="0" style="stop-color:#FDB82D"/>
		<stop  offset="0.4611" style="stop-color:#FDB62B"/>
		<stop  offset="0.6748" style="stop-color:#FCB022"/>
		<stop  offset="0.8373" style="stop-color:#FAA819"/>
		<stop  offset="0.9734" style="stop-color:#F59A1E"/>
		<stop  offset="1" style="stop-color:#F4961F"/>
	</radialGradient>
	<path class="st3" d="M182.7,200c-2.9-24.5-28.9-43.6-60.4-43.6c-33.5,0-65.7,19.9-65.7,60.1c0,36.6,34.1,54.9,70,54.9
		s65-21.2,65-47.4C191.6,215.2,188.4,207,182.7,200z"/>
	
		<linearGradient id="SVGID_4_" gradientUnits="userSpaceOnUse" x1="128.0029" y1="217.7265" x2="134.2779" y2="142.427" gradientTransform="matrix(1 0 0 -1 0 432.0004)">
		<stop  offset="0" style="stop-color:#8D633A"/>
		<stop  offset="1" style="stop-color:#412312"/>
	</linearGradient>
	<path class="st4" d="M182.7,200c0,0-3.3,38.9-47.1,43s-74.9-13.9-60-50s71.2-30,78.4-9.3c7.2,20.8-7.2,35.8-27.3,34.5
		c-25.5-1.5-30.3-28.2-9.3-32c13.4-2.4,14.2,9.1,5.6,10c-5.1,0.5-7.7,12.2,3.6,11.2c11.3-1,19.1-13.4,9.8-25.3
		c-9.3-11.9-34.5-10.3-44.3,5.2c-9.8,15.5,1,40.2,43.8,40.2S182.7,200,182.7,200z"/>
	
		<radialGradient id="SVGID_5_" cx="115.9287" cy="154.3687" r="82.8208" gradientTransform="matrix(1 0 0 -1 0 432.0004)" gradientUnits="userSpaceOnUse">
		<stop  offset="0" style="stop-color:#FDB82D"/>
		<stop  offset="0.4611" style="stop-color:#FDB62B"/>
		<stop  offset="0.6748" style="stop-color:#FCB022"/>
		<stop  offset="0.8373" style="stop-color:#FAA819"/>
		<stop  offset="0.9734" style="stop-color:#F59A1E"/>
		<stop  offset="1" style="stop-color:#F4961F"/>
	</radialGradient>
	<path class="st5" d="M184.5,286.1c-2.9-24.5-28.9-43.6-60.4-43.6c-33.5,0-65.7,19.9-65.7,60.1c0,36.6,34.1,54.9,70,54.9
		s65-21.2,65-47.4C193.4,301.3,190.2,293.1,184.5,286.1z"/>
	
		<linearGradient id="SVGID_6_" gradientUnits="userSpaceOnUse" x1="129.7967" y1="131.6727" x2="136.0717" y2="56.3732" gradientTransform="matrix(1 0 0 -1 0 432.0004)">
		<stop  offset="0" style="stop-color:#8D633A"/>
		<stop  offset="1" style="stop-color:#412312"/>
	</linearGradient>
	<path class="st6" d="M184.5,286.1c0,0-3.3,38.9-47.1,43c-43.8,4.1-74.9-13.9-60-50s71.2-30,78.4-9.3c7.2,20.8-7.2,35.8-27.3,34.5
		c-25.5-1.5-30.3-28.2-9.3-32c13.4-2.4,14.2,9.1,5.6,10c-5.1,0.5-7.7,12.2,3.6,11.2c11.3-1,19.1-13.4,9.8-25.3
		c-9.3-11.9-34.5-10.3-44.3,5.2c-9.8,15.5,1,40.2,43.8,40.2S184.5,286.1,184.5,286.1z"/>
</g>
</svg>
