<?xml version="1.0" encoding="utf-8"?>
<!-- Generator: Adobe Illustrator 21.0.0, SVG Export Plug-In . SVG Version: 6.00 Build 0)  -->
<svg version="1.1" id="레이어_1" xmlns="http://www.w3.org/2000/svg" xmlns:xlink="http://www.w3.org/1999/xlink" x="0px"
	 y="0px" viewBox="0 0 250 430" style="enable-background:new 0 0 250 430;" xml:space="preserve">
<style type="text/css">
	.st0{fill:#FFFFFF;}
	.st1{fill:url(#SVGID_1_);}
	.st2{fill:url(#SVGID_2_);}
	.st3{opacity:0.75;}
	.st4{fill:#FFF7D3;}
	.st5{fill:url(#SVGID_3_);}
	.st6{fill:url(#SVGID_4_);}
	.st7{fill:url(#SVGID_5_);}
	.st8{fill:url(#SVGID_6_);}
</style>
<rect class="st0" width="250" height="430"/>
<g>
	
		<radialGradient id="SVGID_1_" cx="115.9287" cy="322.5053" r="82.8208" gradientTransform="matrix(1 0 0 -1 0 432.0005)" gradientUnits="userSpaceOnUse">
		<stop  offset="0" style="stop-color:#FDB82D"/>
		<stop  offset="0.4611" style="stop-color:#FDB62B"/>
		<stop  offset="0.6748" style="stop-color:#FCB022"/>
		<stop  offset="0.8373" style="stop-color:#FAA819"/>
		<stop  offset="0.9734" style="stop-color:#F59A1E"/>
		<stop  offset="1" style="stop-color:#F4961F"/>
	</radialGradient>
	<path class="st1" d="M184.5,117.9c-2.9-24.5-28.9-43.6-60.4-43.6c-33.5,0-65.7,19.9-65.7,60.1c0,36.6,34.1,54.9,70,54.9
		s65-21.2,65-47.4C193.4,133.2,190.2,125,184.5,117.9z"/>
	
		<linearGradient id="SVGID_2_" gradientUnits="userSpaceOnUse" x1="129.7967" y1="299.8093" x2="136.0717" y2="224.5098" gradientTransform="matrix(1 0 0 -1 0 432.0005)">
		<stop  offset="0" style="stop-color:#8D633A"/>
		<stop  offset="1" style="stop-color:#412312"/>
	</linearGradient>
	<path class="st2" d="M184.5,117.9c0,0-3.3,38.9-47.1,43c-43.8,4.1-74.9-13.9-60-50s71.2-30,78.4-9.3c7.2,20.8-7.2,35.8-27.3,34.5
		c-25.5-1.5-30.3-28.2-9.3-32c13.4-2.4,14.2,9.1,5.6,10c-5.1,0.5-7.7,12.2,3.6,11.2c11.3-1,19.1-13.4,9.8-25.3
		c-9.3-11.9-34.5-10.3-44.3,5.2c-9.8,15.5,1,40.2,43.8,40.2S184.5,117.9,184.5,117.9z"/>
	<g class="st3">
		<path class="st4" d="M186.8,134.7c-4,6.6-9.6,10.3-15.5,10.2c-2.1,0-4.1-0.4-6.1-1.3c-0.2-0.1-0.5-0.2-0.8-0.1
			c-1.3-0.1-2.5,1.4-2.6,3.3v17.2c-0.2,4.3-2.7,7.6-5.5,7.3c-1.4,0-2.8-0.7-3.9-2.1c-1-1.3-1.6-3.1-1.6-5.1v-7.3
			c-0.2-4.3-2.7-7.6-5.5-7.3c-1.4,0-2.8,0.7-3.9,2.1c-1,1.3-1.6,3.1-1.6,5.1v18.2c-0.3,6.5-4.1,11.4-8.4,10.9
			c-2.2,0-4.2-1.1-5.9-3.2c-1.5-1.9-2.4-4.7-2.5-7.7v-8c0-12.2-9.2-20.8-18-16.9h0c-4.4,1.9-9.1,0.8-12.9-3l-2.3-2.3
			c-3.8-3.9-8.5-5-12.9-3h0c-5.6,2.5-11.6,0-15.5-6.6l-0.2-0.4c-2.2-3.9-3.2-8.9-2.9-13.9s2-9.7,4.6-12.8l1.6-2.1l3.3-2.8
			c0,0,115.2,3.2,115.5,2.5l0.3,0.3h0.5l1.4,1.8c2.6,3.2,4.3,8,4.6,13.1C190.2,125.8,189.1,130.8,186.8,134.7z"/>
		<path class="st4" d="M179.8,127.4l-8.4,3.5c-10.3,4.3-21.7,5.1-32.4,2.1l-3.1-0.8c-9.3-2.5-19-2.3-28.1,0.6
			c-9.8,3.1-20.3,3.1-30.1,0l-8.3-2.6c-4.5-1-8-4.4-9.4-8.9c-1.4-4.5-0.3-9.4,2.8-12.8l5.4-6.1l5.2-5.9l0.5-0.3l0.8-0.3
			c-0.5-1.2-0.7-2.4-0.7-3.7c0-11.8,21.6-21.5,48.4-21.5c26.7,0,50.7,18.3,61.9,34.5c1,1.5,1.9,3.1,2.5,4.9c1.5,3.2,1.6,7,0.3,10.3
			C185.7,123.6,183.1,126.2,179.8,127.4z"/>
	</g>
	
		<radialGradient id="SVGID_3_" cx="114.1968" cy="238.6103" r="82.8208" gradientTransform="matrix(1 0 0 -1 0 432.0005)" gradientUnits="userSpaceOnUse">
		<stop  offset="0" style="stop-color:#FDB82D"/>
		<stop  offset="0.4611" style="stop-color:#FDB62B"/>
		<stop  offset="0.6748" style="stop-color:#FCB022"/>
		<stop  offset="0.8373" style="stop-color:#FAA819"/>
		<stop  offset="0.9734" style="stop-color:#F59A1E"/>
		<stop  offset="1" style="stop-color:#F4961F"/>
	</radialGradient>
	<path class="st5" d="M182.8,201.8c-2.9-24.5-28.9-43.6-60.4-43.6c-33.5,0-65.7,19.9-65.7,60.1c0,36.6,34.1,54.9,70,54.9
		s65-21.2,65-47.4C191.7,217,188.5,208.9,182.8,201.8z"/>
	
		<linearGradient id="SVGID_4_" gradientUnits="userSpaceOnUse" x1="128.0648" y1="215.9144" x2="134.3398" y2="140.6149" gradientTransform="matrix(1 0 0 -1 0 432.0005)">
		<stop  offset="0" style="stop-color:#8D633A"/>
		<stop  offset="1" style="stop-color:#412312"/>
	</linearGradient>
	<path class="st6" d="M182.8,201.8c0,0-3.3,38.9-47.1,43c-43.8,4.1-74.9-13.9-60-50s71.2-30,78.4-9.3c7.2,20.8-7.2,35.8-27.3,34.5
		c-25.5-1.5-30.3-28.2-9.3-32c13.4-2.4,14.2,9.1,5.6,10c-5.1,0.5-7.7,12.2,3.6,11.2c11.3-1,19.1-13.4,9.8-25.3
		c-9.3-11.9-34.5-10.3-44.3,5.2c-9.8,15.5,1,40.2,43.8,40.2S182.8,201.8,182.8,201.8z"/>
	<g class="st3">
		<path class="st4" d="M185.1,218.6c-4,6.6-9.6,10.3-15.5,10.2c-2.1,0-4.1-0.4-6.1-1.3c-0.2-0.1-0.5-0.2-0.8-0.1
			c-1.3-0.1-2.5,1.4-2.6,3.3v17.2c-0.2,4.3-2.7,7.6-5.5,7.3c-1.4,0-2.8-0.7-3.9-2.1c-1-1.3-1.6-3.1-1.6-5.1v-7.3
			c-0.2-4.3-2.7-7.6-5.5-7.3c-1.4,0-2.8,0.7-3.9,2.1c-1,1.3-1.6,3.1-1.6,5.1v18.2c-0.3,6.5-4.1,11.4-8.4,10.9
			c-2.2,0-4.2-1.1-5.9-3.2c-1.5-1.9-2.4-4.7-2.5-7.7v-8c0-12.2-9.2-20.8-18-16.9h0c-4.4,1.9-9.1,0.8-12.9-3l-2.3-2.3
			c-3.8-3.9-8.5-5-12.9-3h0c-5.6,2.5-11.6,0-15.5-6.6l-0.2-0.4c-2.2-3.9-3.2-8.9-2.9-13.9s2-9.7,4.6-12.8l1.6-2.1l3.3-2.8
			c0,0,115.2,3.2,115.5,2.5l0.3,0.3h0.5l1.4,1.8c2.6,3.2,4.3,8,4.6,13.1C188.5,209.7,187.4,214.7,185.1,218.6z"/>
		<path class="st4" d="M178.1,211.3l-8.4,3.5c-10.3,4.3-21.7,5.1-32.4,2.1l-3.1-0.8c-9.3-2.5-19-2.3-28.1,0.6
			c-9.8,3.1-20.3,3.1-30.1,0l-8.3-2.6c-4.5-1-8-4.4-9.4-8.9c-1.4-4.5-0.3-9.4,2.8-12.8l5.4-6.1l5.2-5.9l0.5-0.3l0.8-0.3
			c-0.5-1.2-0.7-2.4-0.7-3.7c0-11.8,21.6-21.5,48.4-21.5c26.7,0,50.7,18.3,61.9,34.5c1,1.5,1.9,3.1,2.5,4.9c1.5,3.2,1.6,7,0.3,10.3
			S181.4,210.1,178.1,211.3z"/>
	</g>
	
		<radialGradient id="SVGID_5_" cx="115.9906" cy="152.5565" r="82.8208" gradientTransform="matrix(1 0 0 -1 0 432.0005)" gradientUnits="userSpaceOnUse">
		<stop  offset="0" style="stop-color:#FDB82D"/>
		<stop  offset="0.4611" style="stop-color:#FDB62B"/>
		<stop  offset="0.6748" style="stop-color:#FCB022"/>
		<stop  offset="0.8373" style="stop-color:#FAA819"/>
		<stop  offset="0.9734" style="stop-color:#F59A1E"/>
		<stop  offset="1" style="stop-color:#F4961F"/>
	</radialGradient>
	<path class="st7" d="M184.6,287.9c-2.9-24.5-28.9-43.6-60.4-43.6c-33.5,0-65.7,19.9-65.7,60.1c0,36.6,34.1,54.9,70,54.9
		s65-21.2,65-47.4C193.5,303.1,190.3,294.9,184.6,287.9z"/>
	
		<linearGradient id="SVGID_6_" gradientUnits="userSpaceOnUse" x1="129.8586" y1="129.8606" x2="136.1336" y2="54.5611" gradientTransform="matrix(1 0 0 -1 0 432.0005)">
		<stop  offset="0" style="stop-color:#8D633A"/>
		<stop  offset="1" style="stop-color:#412312"/>
	</linearGradient>
	<path class="st8" d="M184.6,287.9c0,0-3.3,38.9-47.1,43s-74.9-13.9-60-50s71.2-30,78.4-9.3c7.2,20.8-7.2,35.8-27.3,34.5
		c-25.5-1.5-30.3-28.2-9.3-32c13.4-2.4,14.2,9.1,5.6,10c-5.1,0.5-7.7,12.2,3.6,11.2c11.3-1,19.1-13.4,9.8-25.3
		c-9.3-11.9-34.5-10.3-44.3,5.2c-9.8,15.5,1,40.2,43.8,40.2S184.6,287.9,184.6,287.9z"/>
	<g class="st3">
		<path class="st4" d="M186.9,304.6c-4,6.6-9.6,10.3-15.5,10.2c-2.1,0-4.1-0.4-6.1-1.3c-0.2-0.1-0.5-0.2-0.8-0.1
			c-1.3-0.1-2.5,1.4-2.6,3.3v17.2c-0.2,4.3-2.7,7.6-5.5,7.3c-1.4,0-2.8-0.7-3.9-2.1c-1-1.3-1.6-3.1-1.6-5.1v-7.3
			c-0.2-4.3-2.7-7.6-5.5-7.3c-1.4,0-2.8,0.7-3.9,2.1c-1,1.3-1.6,3.1-1.6,5.1v18.2c-0.3,6.5-4.1,11.4-8.4,10.9
			c-2.2,0-4.2-1.1-5.9-3.2c-1.5-1.9-2.4-4.7-2.5-7.7v-8c0-12.2-9.2-20.8-18-16.9h0c-4.4,1.9-9.1,0.8-12.9-3l-2.3-2.3
			c-3.8-3.9-8.5-5-12.9-3h0c-5.6,2.5-11.6,0-15.5-6.6l-0.2-0.4c-2.2-3.9-3.2-8.9-2.9-13.9s2-9.7,4.6-12.8l1.6-2.1l3.3-2.8
			c0,0,115.2,3.2,115.5,2.5l0.3,0.3h0.5l1.4,1.8c2.6,3.2,4.3,8,4.6,13.1C190.3,295.7,189.1,300.8,186.9,304.6z"/>
		<path class="st4" d="M179.9,297.3l-8.4,3.5c-10.3,4.3-21.7,5.1-32.4,2.1l-3.1-0.8c-9.3-2.5-19-2.3-28.1,0.6
			c-9.8,3.1-20.3,3.1-30.1,0l-8.3-2.6c-4.5-1-8-4.4-9.4-8.9c-1.4-4.5-0.3-9.4,2.8-12.8l5.4-6.1l5.2-5.9l0.5-0.3l0.8-0.3
			c-0.5-1.2-0.7-2.4-0.7-3.7c0-11.8,21.6-21.5,48.4-21.5c26.7,0,50.7,18.3,61.9,34.5c1,1.5,1.9,3.1,2.5,4.9c1.5,3.2,1.6,7,0.3,10.3
			S183.2,296.2,179.9,297.3z"/>
	</g>
</g>
</svg>
