<?xml version="1.0" encoding="utf-8"?>
<!-- Generator: Adobe Illustrator 21.0.0, SVG Export Plug-In . SVG Version: 6.00 Build 0)  -->
<svg version="1.1" id="레이어_1" xmlns="http://www.w3.org/2000/svg" xmlns:xlink="http://www.w3.org/1999/xlink" x="0px"
	 y="0px" viewBox="0 0 250 430" style="enable-background:new 0 0 250 430;" xml:space="preserve">
<style type="text/css">
	.st0{fill:#FFFFFF;}
	.st1{fill:url(#SVGID_1_);}
	.st2{fill:url(#SVGID_2_);}
	.st3{opacity:0.75;}
	.st4{fill:#8E7645;}
	.st5{fill:url(#SVGID_3_);}
	.st6{fill:url(#SVGID_4_);}
	.st7{fill:url(#SVGID_5_);}
	.st8{fill:url(#SVGID_6_);}
	.st9{fill:url(#SVGID_7_);}
	.st10{fill:url(#SVGID_8_);}
	.st11{fill:url(#SVGID_9_);}
	.st12{fill:url(#SVGID_10_);}
	.st13{fill:url(#SVGID_11_);}
	.st14{fill:url(#SVGID_12_);}
</style>
<rect y="0.2" class="st0" width="250" height="429.6"/>
<g>
	
		<radialGradient id="SVGID_1_" cx="65.9732" cy="307.4975" r="70.794" gradientTransform="matrix(1 0 0 -1 0 432.0004)" gradientUnits="userSpaceOnUse">
		<stop  offset="0" style="stop-color:#FDB82D"/>
		<stop  offset="0.4611" style="stop-color:#FDB62B"/>
		<stop  offset="0.6748" style="stop-color:#FCB022"/>
		<stop  offset="0.8373" style="stop-color:#FAA819"/>
		<stop  offset="0.9734" style="stop-color:#F59A1E"/>
		<stop  offset="1" style="stop-color:#F4961F"/>
	</radialGradient>
	<path class="st1" d="M124.6,131.7C122.1,110.8,100,94.5,73,94.5c-28.7,0-56.2,17-56.2,51.4c0,31.3,29.2,46.9,59.9,46.9
		s55.6-18.2,55.6-40.5C132.2,144.7,129.5,137.7,124.6,131.7z"/>
	
		<linearGradient id="SVGID_2_" gradientUnits="userSpaceOnUse" x1="77.8274" y1="288.0974" x2="83.1911" y2="223.7325" gradientTransform="matrix(1 0 0 -1 0 432.0004)">
		<stop  offset="0" style="stop-color:#8D633A"/>
		<stop  offset="1" style="stop-color:#412312"/>
	</linearGradient>
	<path class="st2" d="M124.6,131.7c0,0-2.8,33.3-40.3,36.8s-64-11.9-51.3-42.8s60.9-25.6,67-7.9c6.2,17.8-6.2,30.6-23.4,29.5
		c-21.8-1.3-25.9-24.1-7.9-27.3c11.4-2,12.2,7.8,4.8,8.5c-4.4,0.4-6.6,10.4,3.1,9.5c9.7-0.9,16.3-11.5,8.4-21.6
		c-7.9-10.1-29.5-8.8-37.9,4.4c-8.4,13.2,0.9,34.4,37.5,34.4S124.6,131.7,124.6,131.7z"/>
	<g class="st3">
		<path class="st4" d="M126.6,146c-3.4,5.7-8.2,8.8-13.2,8.7c-1.8,0-3.5-0.4-5.3-1.1c-0.2-0.1-0.4-0.1-0.7-0.1
			c-1.1-0.1-2.1,1.2-2.2,2.9V171c-0.2,3.7-2.3,6.5-4.7,6.2c-1.2,0-2.4-0.6-3.3-1.8c-0.9-1.1-1.4-2.7-1.4-4.4v-6.2
			c-0.2-3.7-2.3-6.5-4.7-6.2c-1.2,0-2.4,0.6-3.3,1.8c-0.9,1.1-1.4,2.7-1.4,4.4v15.5c-0.3,5.6-3.5,9.7-7.1,9.3c-1.8,0-3.6-0.9-5-2.7
			c-1.3-1.6-2.1-4-2.1-6.6v-6.8c0-10.4-7.8-17.8-15.4-14.5h0c-3.7,1.7-7.8,0.7-11-2.6l-2-2c-3.2-3.3-7.3-4.2-11-2.6h0
			c-4.8,2.2-9.9,0-13.3-5.6l-0.2-0.3c-1.9-3.3-2.8-7.6-2.5-11.9c0.3-4.3,1.7-8.3,3.9-11l1.4-1.8l2.8-2.4c0,0,98.5,2.7,98.7,2.2
			l0.2,0.2h0.4l1.2,1.6c2.3,2.8,3.7,6.8,3.9,11.2C129.5,138.4,128.5,142.7,126.6,146z"/>
		<path class="st4" d="M120.6,139.8l-7.2,3c-8.8,3.7-18.5,4.3-27.7,1.8l-2.6-0.7c-7.9-2.1-16.2-2-24.1,0.5c-8.4,2.6-17.4,2.6-25.7,0
			l-7.1-2.2c-3.8-0.9-6.9-3.8-8-7.6c-1.2-3.8-0.2-8,2.4-11l4.6-5.2l4.4-5l0.5-0.2l0.6-0.3c-0.4-1-0.6-2.1-0.6-3.2
			c0-10.1,18.5-18.3,41.4-18.3c22.8,0,43.3,15.7,52.9,29.5c0.9,1.3,1.6,2.7,2.2,4.1c1.3,2.8,1.4,5.9,0.3,8.8
			C125.7,136.6,123.4,138.8,120.6,139.8z"/>
	</g>
	
		<radialGradient id="SVGID_3_" cx="64.4928" cy="235.7854" r="70.794" gradientTransform="matrix(1 0 0 -1 0 432.0004)" gradientUnits="userSpaceOnUse">
		<stop  offset="0" style="stop-color:#FDB82D"/>
		<stop  offset="0.4611" style="stop-color:#FDB62B"/>
		<stop  offset="0.6748" style="stop-color:#FCB022"/>
		<stop  offset="0.8373" style="stop-color:#FAA819"/>
		<stop  offset="0.9734" style="stop-color:#F59A1E"/>
		<stop  offset="1" style="stop-color:#F4961F"/>
	</radialGradient>
	<path class="st5" d="M123.1,203.4c-2.5-20.9-24.7-37.3-51.7-37.3c-28.7,0-56.2,17-56.2,51.4c0,31.3,29.2,46.9,59.9,46.9
		s55.6-18.2,55.6-40.5C130.7,216.4,128,209.4,123.1,203.4z"/>
	
		<linearGradient id="SVGID_4_" gradientUnits="userSpaceOnUse" x1="76.347" y1="216.3852" x2="81.7107" y2="152.0204" gradientTransform="matrix(1 0 0 -1 0 432.0004)">
		<stop  offset="0" style="stop-color:#8D633A"/>
		<stop  offset="1" style="stop-color:#412312"/>
	</linearGradient>
	<path class="st6" d="M123.1,203.4c0,0-2.8,33.3-40.3,36.8c-37.5,3.5-64-11.9-51.3-42.8s60.9-25.6,67-7.9
		c6.2,17.8-6.2,30.6-23.4,29.5c-21.8-1.3-25.9-24.1-7.9-27.3c11.4-2,12.2,7.8,4.8,8.5c-4.4,0.4-6.6,10.4,3.1,9.5
		c9.7-0.9,16.3-11.5,8.4-21.6c-7.9-10.1-29.5-8.8-37.9,4.4c-8.4,13.2,0.9,34.4,37.5,34.4S123.1,203.4,123.1,203.4z"/>
	<g class="st3">
		<path class="st4" d="M125.1,217.7c-3.4,5.7-8.2,8.8-13.2,8.7c-1.8,0-3.5-0.4-5.3-1.1c-0.2-0.1-0.4-0.1-0.7-0.1
			c-1.1-0.1-2.1,1.2-2.2,2.9v14.7c-0.2,3.7-2.3,6.5-4.7,6.2c-1.2,0-2.4-0.6-3.3-1.8c-0.9-1.1-1.4-2.7-1.4-4.4v-6.2
			c-0.2-3.7-2.3-6.5-4.7-6.2c-1.2,0-2.4,0.6-3.3,1.8c-0.9,1.1-1.4,2.7-1.4,4.4v15.5c-0.3,5.6-3.5,9.7-7.1,9.3c-1.8,0-3.6-0.9-5-2.7
			c-1.3-1.6-2.1-4-2.1-6.6v-6.8c0-10.4-7.8-17.8-15.4-14.5h0c-3.7,1.7-7.8,0.7-11-2.6l-2-2c-3.2-3.3-7.3-4.2-11-2.6h0
			c-4.8,2.2-9.9,0-13.3-5.6l-0.2-0.3c-1.9-3.3-2.8-7.6-2.5-11.9s1.7-8.3,3.9-11l1.4-1.8l2.8-2.4c0,0,98.5,2.7,98.7,2.2l0.2,0.2h0.4
			l1.2,1.6c2.3,2.8,3.7,6.8,3.9,11.2C128,210.1,127,214.5,125.1,217.7z"/>
		<path class="st4" d="M119.1,211.5l-7.2,3c-8.8,3.7-18.5,4.3-27.7,1.8l-2.6-0.7c-7.9-2.1-16.2-2-24.1,0.5c-8.4,2.6-17.4,2.6-25.7,0
			l-7.1-2.2c-3.8-0.9-6.9-3.8-8-7.6c-1.2-3.8-0.2-8,2.4-11l4.6-5.2l4.4-5l0.5-0.2l0.6-0.3c-0.4-1-0.6-2.1-0.6-3.2
			c0-10.1,18.5-18.3,41.4-18.3c22.8,0,43.3,15.7,52.9,29.5c0.9,1.3,1.6,2.7,2.2,4.1c1.3,2.8,1.4,5.9,0.3,8.8
			S121.9,210.5,119.1,211.5z"/>
	</g>
	
		<radialGradient id="SVGID_5_" cx="66.0262" cy="162.2279" r="70.794" gradientTransform="matrix(1 0 0 -1 0 432.0004)" gradientUnits="userSpaceOnUse">
		<stop  offset="0" style="stop-color:#FDB82D"/>
		<stop  offset="0.4611" style="stop-color:#FDB62B"/>
		<stop  offset="0.6748" style="stop-color:#FCB022"/>
		<stop  offset="0.8373" style="stop-color:#FAA819"/>
		<stop  offset="0.9734" style="stop-color:#F59A1E"/>
		<stop  offset="1" style="stop-color:#F4961F"/>
	</radialGradient>
	<path class="st7" d="M124.7,277c-2.5-20.9-24.7-37.3-51.7-37.3c-28.7,0-56.2,17-56.2,51.4c0,31.3,29.2,46.9,59.9,46.9
		s55.6-18.2,55.6-40.5C132.3,290,129.5,283,124.7,277z"/>
	
		<linearGradient id="SVGID_6_" gradientUnits="userSpaceOnUse" x1="77.8803" y1="142.8278" x2="83.2441" y2="78.4629" gradientTransform="matrix(1 0 0 -1 0 432.0004)">
		<stop  offset="0" style="stop-color:#8D633A"/>
		<stop  offset="1" style="stop-color:#412312"/>
	</linearGradient>
	<path class="st8" d="M124.7,277c0,0-2.8,33.3-40.3,36.8c-37.5,3.5-64-11.9-51.3-42.8s60.9-25.6,67-7.9c6.2,17.8-6.2,30.6-23.4,29.5
		c-21.8-1.3-25.9-24.1-7.9-27.3c11.4-2,12.2,7.8,4.8,8.5c-4.4,0.4-6.6,10.4,3.1,9.5c9.7-0.9,16.3-11.5,8.4-21.6
		c-7.9-10.1-29.5-8.8-37.9,4.4c-8.4,13.2,0.9,34.4,37.5,34.4S124.7,277,124.7,277z"/>
	<g class="st3">
		<path class="st4" d="M126.6,291.3c-3.4,5.7-8.2,8.8-13.2,8.7c-1.8,0-3.5-0.4-5.3-1.1c-0.2-0.1-0.4-0.1-0.7-0.1
			c-1.1-0.1-2.1,1.2-2.2,2.9v14.7c-0.2,3.7-2.3,6.5-4.7,6.2c-1.2,0-2.4-0.6-3.3-1.8c-0.9-1.1-1.4-2.7-1.4-4.4v-6.2
			c-0.2-3.7-2.3-6.5-4.7-6.2c-1.2,0-2.4,0.6-3.3,1.8c-0.9,1.1-1.4,2.7-1.4,4.4v15.5c-0.3,5.6-3.5,9.7-7.1,9.3c-1.8,0-3.6-0.9-5-2.7
			c-1.3-1.6-2.1-4-2.1-6.6v-6.8c0-10.4-7.8-17.8-15.4-14.5h0c-3.7,1.7-7.8,0.7-11-2.6l-2-2c-3.2-3.3-7.3-4.2-11-2.6h0
			c-4.8,2.2-9.9,0-13.3-5.6l-0.2-0.3c-1.9-3.3-2.8-7.6-2.5-11.9c0.3-4.3,1.7-8.3,3.9-11l1.4-1.8l2.8-2.4c0,0,98.5,2.7,98.7,2.2
			l0.2,0.2h0.4l1.2,1.6c2.3,2.8,3.7,6.8,3.9,11.2C129.5,283.7,128.6,288,126.6,291.3z"/>
		<path class="st4" d="M120.6,285.1l-7.2,3c-8.8,3.7-18.5,4.3-27.7,1.8l-2.6-0.7c-7.9-2.1-16.2-2-24.1,0.5c-8.4,2.6-17.4,2.6-25.7,0
			l-7.1-2.2c-3.8-0.9-6.9-3.8-8-7.6c-1.2-3.8-0.2-8,2.4-11l4.6-5.2l4.4-5l0.5-0.2l0.6-0.3c-0.4-1-0.6-2.1-0.6-3.2
			c0-10.1,18.5-18.3,41.4-18.3c22.8,0,43.3,15.7,52.9,29.5c0.9,1.3,1.6,2.7,2.2,4.1c1.3,2.8,1.4,5.9,0.3,8.8
			S123.5,284.1,120.6,285.1z"/>
	</g>
	
		<radialGradient id="SVGID_7_" cx="168.5188" cy="306.8712" r="70.794" gradientTransform="matrix(1 0 0 -1 0 432.0004)" gradientUnits="userSpaceOnUse">
		<stop  offset="0" style="stop-color:#FDB82D"/>
		<stop  offset="0.4611" style="stop-color:#FDB62B"/>
		<stop  offset="0.6748" style="stop-color:#FCB022"/>
		<stop  offset="0.8373" style="stop-color:#FAA819"/>
		<stop  offset="0.9734" style="stop-color:#F59A1E"/>
		<stop  offset="1" style="stop-color:#F4961F"/>
	</radialGradient>
	<path class="st9" d="M227.2,132.3c-2.5-20.9-24.7-37.3-51.7-37.3c-28.7,0-56.2,17-56.2,51.4c0,31.3,29.2,46.9,59.9,46.9
		s55.6-18.2,55.6-40.5C234.8,145.4,232,138.4,227.2,132.3z"/>
	
		<linearGradient id="SVGID_8_" gradientUnits="userSpaceOnUse" x1="180.3729" y1="287.471" x2="185.7367" y2="223.1062" gradientTransform="matrix(1 0 0 -1 0 432.0004)">
		<stop  offset="0" style="stop-color:#8D633A"/>
		<stop  offset="1" style="stop-color:#412312"/>
	</linearGradient>
	<path class="st10" d="M227.2,132.3c0,0-2.8,33.3-40.3,36.8c-37.5,3.5-64-11.9-51.3-42.8s60.9-25.6,67-7.9
		c6.2,17.8-6.2,30.6-23.4,29.5c-21.8-1.3-25.9-24.1-7.9-27.3c11.4-2,12.2,7.8,4.8,8.5c-4.4,0.4-6.6,10.4,3.1,9.5
		c9.7-0.9,16.3-11.5,8.4-21.6c-7.9-10.1-29.5-8.8-37.9,4.4c-8.4,13.2,0.9,34.4,37.5,34.4S227.2,132.3,227.2,132.3z"/>
	<g class="st3">
		<path class="st4" d="M229.1,146.7c-3.4,5.7-8.2,8.8-13.2,8.7c-1.8,0-3.5-0.4-5.3-1.1c-0.2-0.1-0.4-0.1-0.7-0.1
			c-1.1-0.1-2.1,1.2-2.2,2.9v14.7c-0.2,3.7-2.3,6.5-4.7,6.2c-1.2,0-2.4-0.6-3.3-1.8c-0.9-1.1-1.4-2.7-1.4-4.4v-6.2
			c-0.2-3.7-2.3-6.5-4.7-6.2c-1.2,0-2.4,0.6-3.3,1.8c-0.9,1.1-1.4,2.7-1.4,4.4V181c-0.3,5.6-3.5,9.7-7.1,9.3c-1.8,0-3.6-0.9-5-2.7
			c-1.3-1.6-2.1-4-2.1-6.6v-6.8c0-10.4-7.8-17.8-15.4-14.5h0c-3.7,1.7-7.8,0.7-11-2.6l-2-2c-3.2-3.3-7.3-4.2-11-2.6h0
			c-4.8,2.2-9.9,0-13.3-5.6l-0.2-0.3c-1.9-3.3-2.8-7.6-2.5-11.9s1.7-8.3,3.9-11l1.4-1.8l2.8-2.4c0,0,98.5,2.7,98.7,2.2l0.2,0.2h0.4
			l1.2,1.6c2.3,2.8,3.7,6.8,3.9,11.2C232,139,231.1,143.4,229.1,146.7z"/>
		<path class="st4" d="M223.1,140.4l-7.2,3c-8.8,3.7-18.5,4.3-27.7,1.8l-2.6-0.7c-7.9-2.1-16.2-2-24.1,0.5c-8.4,2.6-17.4,2.6-25.7,0
			l-7.1-2.2c-3.8-0.9-6.9-3.8-8-7.6c-1.2-3.8-0.2-8,2.4-11l4.6-5.2l4.4-5l0.5-0.2l0.6-0.3c-0.4-1-0.6-2.1-0.6-3.2
			c0-10.1,18.5-18.3,41.4-18.3c22.8,0,43.3,15.7,52.9,29.5c0.9,1.3,1.6,2.7,2.2,4.1c1.3,2.8,1.4,5.9,0.3,8.8
			C228.2,137.2,225.9,139.4,223.1,140.4z"/>
	</g>
	
		<radialGradient id="SVGID_9_" cx="167.0384" cy="235.1591" r="70.794" gradientTransform="matrix(1 0 0 -1 0 432.0004)" gradientUnits="userSpaceOnUse">
		<stop  offset="0" style="stop-color:#FDB82D"/>
		<stop  offset="0.4611" style="stop-color:#FDB62B"/>
		<stop  offset="0.6748" style="stop-color:#FCB022"/>
		<stop  offset="0.8373" style="stop-color:#FAA819"/>
		<stop  offset="0.9734" style="stop-color:#F59A1E"/>
		<stop  offset="1" style="stop-color:#F4961F"/>
	</radialGradient>
	<path class="st11" d="M225.7,204.1c-2.5-20.9-24.7-37.3-51.7-37.3c-28.7,0-56.2,17-56.2,51.4c0,31.3,29.2,46.9,59.9,46.9
		s55.6-18.2,55.6-40.5C233.3,217.1,230.5,210.1,225.7,204.1z"/>
	
		<linearGradient id="SVGID_10_" gradientUnits="userSpaceOnUse" x1="178.8926" y1="215.7589" x2="184.2563" y2="151.3941" gradientTransform="matrix(1 0 0 -1 0 432.0004)">
		<stop  offset="0" style="stop-color:#8D633A"/>
		<stop  offset="1" style="stop-color:#412312"/>
	</linearGradient>
	<path class="st12" d="M225.7,204.1c0,0-2.8,33.3-40.3,36.8s-64-11.9-51.3-42.8c12.8-30.8,60.9-25.6,67-7.9
		c6.2,17.8-6.2,30.6-23.4,29.5c-21.8-1.3-25.9-24.1-7.9-27.3c11.4-2,12.2,7.8,4.8,8.5c-4.4,0.4-6.6,10.4,3.1,9.5
		c9.7-0.9,16.3-11.5,8.4-21.6c-7.9-10.1-29.5-8.8-37.9,4.4c-8.4,13.2,0.9,34.4,37.5,34.4S225.7,204.1,225.7,204.1z"/>
	<g class="st3">
		<path class="st4" d="M227.6,218.4c-3.4,5.7-8.2,8.8-13.2,8.7c-1.8,0-3.5-0.4-5.3-1.1c-0.2-0.1-0.4-0.1-0.7-0.1
			c-1.1-0.1-2.1,1.2-2.2,2.9v14.7c-0.2,3.7-2.3,6.5-4.7,6.2c-1.2,0-2.4-0.6-3.3-1.8c-0.9-1.1-1.4-2.7-1.4-4.4v-6.2
			c-0.2-3.7-2.3-6.5-4.7-6.2c-1.2,0-2.4,0.6-3.3,1.8c-0.9,1.1-1.4,2.7-1.4,4.4v15.5c-0.3,5.6-3.5,9.7-7.1,9.3c-1.8,0-3.6-0.9-5-2.7
			c-1.3-1.6-2.1-4-2.1-6.6v-6.8c0-10.4-7.8-17.8-15.4-14.5h0c-3.7,1.7-7.8,0.7-11-2.6l-2-2c-3.2-3.3-7.3-4.2-11-2.6h0
			c-4.8,2.2-9.9,0-13.3-5.6l-0.2-0.3c-1.9-3.3-2.8-7.6-2.5-11.9s1.7-8.3,3.9-11l1.4-1.8l2.8-2.4c0,0,98.5,2.7,98.7,2.2l0.2,0.2h0.4
			l1.2,1.6c2.3,2.8,3.7,6.8,3.9,11.2C230.5,210.7,229.6,215.1,227.6,218.4z"/>
		<path class="st4" d="M221.7,212.1l-7.2,3c-8.8,3.7-18.5,4.3-27.7,1.8l-2.6-0.7c-7.9-2.1-16.2-2-24.1,0.5c-8.4,2.6-17.4,2.6-25.7,0
			l-7.1-2.2c-3.8-0.9-6.9-3.8-8-7.6c-1.2-3.8-0.2-8,2.4-11l4.6-5.2l4.4-5l0.5-0.2l0.6-0.3c-0.4-1-0.6-2.1-0.6-3.2
			c0-10.1,18.5-18.3,41.4-18.3c22.8,0,43.3,15.7,52.9,29.5c0.9,1.3,1.6,2.7,2.2,4.1c1.3,2.8,1.4,5.9,0.3,8.8
			C226.7,208.9,224.5,211.1,221.7,212.1z"/>
	</g>
	
		<radialGradient id="SVGID_11_" cx="168.5717" cy="161.6016" r="70.794" gradientTransform="matrix(1 0 0 -1 0 432.0004)" gradientUnits="userSpaceOnUse">
		<stop  offset="0" style="stop-color:#FDB82D"/>
		<stop  offset="0.4611" style="stop-color:#FDB62B"/>
		<stop  offset="0.6748" style="stop-color:#FCB022"/>
		<stop  offset="0.8373" style="stop-color:#FAA819"/>
		<stop  offset="0.9734" style="stop-color:#F59A1E"/>
		<stop  offset="1" style="stop-color:#F4961F"/>
	</radialGradient>
	<path class="st13" d="M227.2,277.6c-2.5-20.9-24.7-37.3-51.7-37.3c-28.7,0-56.2,17-56.2,51.4c0,31.3,29.2,46.9,59.9,46.9
		s55.6-18.2,55.6-40.5C234.8,290.6,232.1,283.6,227.2,277.6z"/>
	
		<linearGradient id="SVGID_12_" gradientUnits="userSpaceOnUse" x1="180.4259" y1="142.2015" x2="185.7896" y2="77.8366" gradientTransform="matrix(1 0 0 -1 0 432.0004)">
		<stop  offset="0" style="stop-color:#8D633A"/>
		<stop  offset="1" style="stop-color:#412312"/>
	</linearGradient>
	<path class="st14" d="M227.2,277.6c0,0-2.8,33.3-40.3,36.8s-64-11.9-51.3-42.8s60.9-25.6,67-7.9c6.2,17.8-6.2,30.6-23.4,29.5
		c-21.8-1.3-25.9-24.1-7.9-27.3c11.4-2,12.2,7.8,4.8,8.5c-4.4,0.4-6.6,10.4,3.1,9.5c9.7-0.9,16.3-11.5,8.4-21.6
		c-7.9-10.1-29.5-8.8-37.9,4.4c-8.4,13.2,0.9,34.4,37.5,34.4S227.2,277.6,227.2,277.6z"/>
	<g class="st3">
		<path class="st4" d="M229.2,291.9c-3.4,5.7-8.2,8.8-13.2,8.7c-1.8,0-3.5-0.4-5.3-1.1c-0.2-0.1-0.4-0.1-0.7-0.1
			c-1.1-0.1-2.1,1.2-2.2,2.9v14.7c-0.2,3.7-2.3,6.5-4.7,6.2c-1.2,0-2.4-0.6-3.3-1.8c-0.9-1.1-1.4-2.7-1.4-4.4v-6.2
			c-0.2-3.7-2.3-6.5-4.7-6.2c-1.2,0-2.4,0.6-3.3,1.8c-0.9,1.1-1.4,2.7-1.4,4.4v15.5c-0.3,5.6-3.5,9.7-7.1,9.3c-1.8,0-3.6-0.9-5-2.7
			c-1.3-1.6-2.1-4-2.1-6.6v-6.8c0-10.4-7.8-17.8-15.4-14.5h0c-3.7,1.7-7.8,0.7-11-2.6l-2-2c-3.2-3.3-7.3-4.2-11-2.6h0
			c-4.8,2.2-9.9,0-13.3-5.6l-0.2-0.3c-1.9-3.3-2.8-7.6-2.5-11.9c0.3-4.3,1.7-8.3,3.9-11l1.4-1.8l2.8-2.4c0,0,98.5,2.7,98.7,2.2
			l0.2,0.2h0.4l1.2,1.6c2.3,2.8,3.7,6.8,3.9,11.2C232.1,284.3,231.1,288.6,229.2,291.9z"/>
		<path class="st4" d="M223.2,285.7l-7.2,3c-8.8,3.7-18.5,4.3-27.7,1.8l-2.6-0.7c-7.9-2.1-16.2-2-24.1,0.5c-8.4,2.6-17.4,2.6-25.7,0
			l-7.1-2.2c-3.8-0.9-6.9-3.8-8-7.6c-1.2-3.8-0.2-8,2.4-11l4.6-5.2l4.4-5l0.5-0.2l0.6-0.3c-0.4-1-0.6-2.1-0.6-3.2
			c0-10.1,18.5-18.3,41.4-18.3c22.8,0,43.3,15.7,52.9,29.5c0.9,1.3,1.6,2.7,2.2,4.1c1.3,2.8,1.4,5.9,0.3,8.8
			C228.3,282.5,226,284.7,223.2,285.7z"/>
	</g>
</g>
</svg>
