<?xml version="1.0" encoding="utf-8"?>
<!-- Generator: Adobe Illustrator 21.0.0, SVG Export Plug-In . SVG Version: 6.00 Build 0)  -->
<svg version="1.1" id="레이어_1" xmlns="http://www.w3.org/2000/svg" xmlns:xlink="http://www.w3.org/1999/xlink" x="0px"
	 y="0px" viewBox="0 0 250 430" style="enable-background:new 0 0 250 430;" xml:space="preserve">
<style type="text/css">
	.st0{fill:#FFFFFF;}
	.st1{fill:url(#SVGID_1_);}
	.st2{fill:url(#SVGID_2_);}
	.st3{opacity:0.75;}
	.st4{fill:#8E7645;}
</style>
<rect y="0.2" class="st0" width="250" height="429.6"/>
<g>
	
		<radialGradient id="SVGID_1_" cx="109.0413" cy="250.0743" r="133.4216" gradientTransform="matrix(1 0 0 -1 0 432.0004)" gradientUnits="userSpaceOnUse">
		<stop  offset="0" style="stop-color:#FDB82D"/>
		<stop  offset="0.4611" style="stop-color:#FDB62B"/>
		<stop  offset="0.6748" style="stop-color:#FCB022"/>
		<stop  offset="0.8373" style="stop-color:#FAA819"/>
		<stop  offset="0.9734" style="stop-color:#F59A1E"/>
		<stop  offset="1" style="stop-color:#F4961F"/>
	</radialGradient>
	<path class="st1" d="M219.6,195.5c-4.7-39.4-46.5-70.2-97.4-70.2c-54,0-105.9,32.1-105.9,96.8c0,58.9,55,88.4,112.8,88.4
		s104.8-34.2,104.8-76.4C233.9,220,228.7,206.8,219.6,195.5z"/>
	
		<linearGradient id="SVGID_2_" gradientUnits="userSpaceOnUse" x1="131.3822" y1="213.5119" x2="141.491" y2="92.2069" gradientTransform="matrix(1 0 0 -1 0 432.0004)">
		<stop  offset="0" style="stop-color:#8D633A"/>
		<stop  offset="1" style="stop-color:#412312"/>
	</linearGradient>
	<path class="st2" d="M219.6,195.5c0,0-5.4,62.7-76,69.3S22.9,242.4,47,184.3s114.7-48.3,126.2-15c11.6,33.5-11.6,57.6-44,55.6
		c-41-2.5-48.8-45.4-14.9-51.5c21.6-3.9,22.9,14.7,9.1,16.1c-8.3,0.8-12.4,19.6,5.8,18c18.3-1.7,30.7-21.6,15.8-40.7
		c-15-19.1-55.6-16.6-71.4,8.3c-15.8,24.9,1.7,64.8,70.6,64.8S219.6,195.5,219.6,195.5z"/>
	<g class="st3">
		<path class="st4" d="M223.2,222.5c-6.4,10.7-15.4,16.6-24.9,16.4c-3.3,0-6.7-0.7-9.9-2.1c-0.4-0.2-0.8-0.2-1.2-0.2
			c-2.1-0.2-4,2.2-4.1,5.4v27.7c-0.4,7-4.4,12.2-8.9,11.7c-2.3,0-4.5-1.2-6.3-3.5c-1.6-2-2.6-5.1-2.6-8.3v-11.7
			c-0.4-7-4.3-12.2-8.9-11.7c-2.3-0.1-4.5,1.2-6.3,3.5c-1.6,2-2.6,5.1-2.6,8.3v29.3c-0.6,10.5-6.6,18.3-13.5,17.6
			c-3.5,0.1-6.8-1.8-9.5-5.2c-2.5-3.1-3.9-7.6-4-12.4v-12.9c0-19.6-14.7-33.5-29-27.2h0c-7.1,3.1-14.7,1.3-20.8-4.9l-3.7-3.8
			c-6.1-6.2-13.7-8-20.8-4.9h0c-9,4.1-18.7,0-25-10.6l-0.3-0.6c-3.5-6.2-5.2-14.3-4.7-22.4c0.5-8.1,3.2-15.6,7.4-20.7l2.6-3.4
			l5.4-4.5c0,0,185.6,5.2,186,4.1l0.4,0.4h0.7l2.2,2.9c4.3,5.2,6.9,12.8,7.4,21.1C228.7,208.1,226.9,216.3,223.2,222.5z"/>
		<path class="st4" d="M212,210.8l-13.6,5.7c-16.6,6.9-34.9,8.1-52.2,3.5l-5-1.3c-14.9-4-30.6-3.7-45.3,0.9c-15.8,5-32.7,5-48.5,0
			L34,215.3c-7.2-1.6-13-7.1-15.1-14.3c-2.2-7.2-0.4-15.1,4.6-20.6l8.7-9.8l8.3-9.5l0.9-0.4l1.2-0.6c-0.7-1.9-1.1-3.9-1.1-5.9
			c0-19.1,34.9-34.6,77.9-34.6c43,0,81.7,29.5,99.7,55.5c1.7,2.4,3.1,5,4.1,7.8c2.5,5.2,2.6,11.2,0.5,16.5
			C221.5,204.7,217.3,208.8,212,210.8z"/>
	</g>
</g>
</svg>
