<?xml version="1.0" encoding="utf-8"?>
<!-- Generator: Adobe Illustrator 21.0.0, SVG Export Plug-In . SVG Version: 6.00 Build 0)  -->
<svg version="1.1" id="레이어_1" xmlns="http://www.w3.org/2000/svg" xmlns:xlink="http://www.w3.org/1999/xlink" x="0px"
	 y="0px" viewBox="0 0 250 430" style="enable-background:new 0 0 250 430;" xml:space="preserve">
<style type="text/css">
	.st0{fill:#FFFFFF;}
	.st1{fill:url(#SVGID_1_);}
	.st2{fill:url(#SVGID_2_);}
	.st3{opacity:0.75;}
	.st4{fill:#FFF7D3;}
	.st5{fill:url(#SVGID_3_);}
	.st6{fill:url(#SVGID_4_);}
	.st7{fill:url(#SVGID_5_);}
	.st8{fill:url(#SVGID_6_);}
	.st9{fill:url(#SVGID_7_);}
	.st10{fill:url(#SVGID_8_);}
	.st11{fill:url(#SVGID_9_);}
	.st12{fill:url(#SVGID_10_);}
	.st13{fill:url(#SVGID_11_);}
	.st14{fill:url(#SVGID_12_);}
	.st15{fill:url(#SVGID_13_);}
	.st16{fill:url(#SVGID_14_);}
	.st17{fill:url(#SVGID_15_);}
	.st18{fill:url(#SVGID_16_);}
	.st19{fill:url(#SVGID_17_);}
	.st20{fill:url(#SVGID_18_);}
	.st21{fill:url(#SVGID_19_);}
	.st22{fill:url(#SVGID_20_);}
	.st23{fill:url(#SVGID_21_);}
	.st24{fill:url(#SVGID_22_);}
	.st25{fill:url(#SVGID_23_);}
	.st26{fill:url(#SVGID_24_);}
</style>
<rect y="0" class="st0" width="250" height="430"/>
<g>
	
		<radialGradient id="SVGID_1_" cx="46.3734" cy="307.8033" r="50.7041" gradientTransform="matrix(1 0 0 -1 0 432.0004)" gradientUnits="userSpaceOnUse">
		<stop  offset="0" style="stop-color:#FDB82D"/>
		<stop  offset="0.4611" style="stop-color:#FDB62B"/>
		<stop  offset="0.6748" style="stop-color:#FCB022"/>
		<stop  offset="0.8373" style="stop-color:#FAA819"/>
		<stop  offset="0.9734" style="stop-color:#F59A1E"/>
		<stop  offset="1" style="stop-color:#F4961F"/>
	</radialGradient>
	<path class="st1" d="M88.4,129.4c-1.8-15-17.7-26.7-37-26.7c-20.5,0-40.2,12.2-40.2,36.8c0,22.4,20.9,33.6,42.9,33.6
		s39.8-13,39.8-29C93.8,138.7,91.8,133.7,88.4,129.4z"/>
	
		<linearGradient id="SVGID_2_" gradientUnits="userSpaceOnUse" x1="54.8636" y1="293.9085" x2="58.7053" y2="247.8091" gradientTransform="matrix(1 0 0 -1 0 432.0004)">
		<stop  offset="0" style="stop-color:#8D633A"/>
		<stop  offset="1" style="stop-color:#412312"/>
	</linearGradient>
	<path class="st2" d="M88.4,129.4c0,0-2,23.8-28.9,26.3s-45.9-8.5-36.7-30.6s43.6-18.3,48-5.7c4.4,12.7-4.4,21.9-16.7,21.1
		c-15.6-0.9-18.6-17.3-5.7-19.6c8.2-1.5,8.7,5.6,3.5,6.1c-3.1,0.3-4.7,7.5,2.2,6.8c6.9-0.6,11.7-8.2,6-15.5
		c-5.7-7.3-21.1-6.3-27.1,3.2c-6,9.5,0.6,24.6,26.8,24.6S88.4,129.4,88.4,129.4z"/>
	<g class="st3">
		<path class="st4" d="M89.8,139.6c-2.4,4.1-5.9,6.3-9.5,6.2c-1.3,0-2.5-0.3-3.8-0.8c-0.2-0.1-0.3-0.1-0.5-0.1
			c-0.8-0.1-1.5,0.8-1.6,2v10.5c-0.1,2.6-1.7,4.6-3.4,4.5c-0.9,0-1.7-0.5-2.4-1.3c-0.6-0.8-1-1.9-1-3.1v-4.5
			c-0.1-2.6-1.6-4.6-3.4-4.5c-0.9,0-1.7,0.4-2.4,1.3c-0.6,0.8-1,1.9-1,3.1v11.1c-0.2,4-2.5,7-5.1,6.7c-1.3,0-2.6-0.7-3.6-2
			c-0.9-1.2-1.5-2.9-1.5-4.7v-4.9c0-7.5-5.6-12.7-11-10.4h0c-2.7,1.2-5.6,0.5-7.9-1.8l-1.4-1.4c-2.3-2.4-5.2-3-7.9-1.8h0
			c-3.4,1.6-7.1,0-9.5-4l-0.1-0.2c-1.3-2.4-2-5.4-1.8-8.5c0.2-3.1,1.2-5.9,2.8-7.9l1-1.3l2-1.7c0,0,70.5,2,70.7,1.6l0.2,0.2H88
			l0.8,1.1c1.6,2,2.6,4.9,2.8,8C91.8,134.2,91.2,137.3,89.8,139.6z"/>
		<path class="st4" d="M85.5,135.2l-5.2,2.2c-6.3,2.6-13.3,3.1-19.8,1.3l-1.9-0.5c-5.7-1.5-11.6-1.4-17.2,0.3
			c-6,1.9-12.4,1.9-18.4,0l-5.1-1.6c-2.7-0.6-4.9-2.7-5.8-5.5c-0.8-2.7-0.2-5.7,1.7-7.8l3.3-3.7l3.2-3.6l0.3-0.2l0.5-0.2
			c-0.3-0.7-0.4-1.5-0.4-2.3c0-7.3,13.3-13.1,29.6-13.1c16.3,0,31,11.2,37.9,21.1c0.6,0.9,1.2,1.9,1.6,3c0.9,2,1,4.3,0.2,6.3
			C89.1,132.9,87.5,134.4,85.5,135.2z"/>
	</g>
	
		<radialGradient id="SVGID_3_" cx="45.3132" cy="256.4416" r="50.7041" gradientTransform="matrix(1 0 0 -1 0 432.0004)" gradientUnits="userSpaceOnUse">
		<stop  offset="0" style="stop-color:#FDB82D"/>
		<stop  offset="0.4611" style="stop-color:#FDB62B"/>
		<stop  offset="0.6748" style="stop-color:#FCB022"/>
		<stop  offset="0.8373" style="stop-color:#FAA819"/>
		<stop  offset="0.9734" style="stop-color:#F59A1E"/>
		<stop  offset="1" style="stop-color:#F4961F"/>
	</radialGradient>
	<path class="st5" d="M87.3,180.7c-1.8-15-17.7-26.7-37-26.7c-20.5,0-40.2,12.2-40.2,36.8c0,22.4,20.9,33.6,42.9,33.6
		s39.8-13,39.8-29C92.8,190,90.8,185,87.3,180.7z"/>
	
		<linearGradient id="SVGID_4_" gradientUnits="userSpaceOnUse" x1="53.8034" y1="242.5468" x2="57.645" y2="196.4474" gradientTransform="matrix(1 0 0 -1 0 432.0004)">
		<stop  offset="0" style="stop-color:#8D633A"/>
		<stop  offset="1" style="stop-color:#412312"/>
	</linearGradient>
	<path class="st6" d="M87.3,180.7c0,0-2,23.8-28.9,26.3s-45.9-8.5-36.7-30.6s43.6-18.3,48-5.7c4.4,12.7-4.4,21.9-16.7,21.1
		c-15.6-0.9-18.6-17.3-5.7-19.6c8.2-1.5,8.7,5.6,3.5,6.1c-3.1,0.3-4.7,7.5,2.2,6.8c6.9-0.6,11.7-8.2,6-15.5
		c-5.7-7.3-21.1-6.3-27.1,3.2c-6,9.5,0.6,24.6,26.8,24.6S87.3,180.7,87.3,180.7z"/>
	<g class="st3">
		<path class="st4" d="M88.7,191c-2.4,4.1-5.9,6.3-9.5,6.2c-1.3,0-2.5-0.3-3.8-0.8c-0.2-0.1-0.3-0.1-0.5-0.1c-0.8-0.1-1.5,0.8-1.6,2
			v10.5c-0.1,2.6-1.7,4.6-3.4,4.5c-0.9,0-1.7-0.5-2.4-1.3c-0.6-0.8-1-1.9-1-3.1v-4.5c-0.1-2.6-1.6-4.6-3.4-4.5
			c-0.9,0-1.7,0.4-2.4,1.3c-0.6,0.8-1,1.9-1,3.1v11.1c-0.2,4-2.5,7-5.1,6.7c-1.3,0-2.6-0.7-3.6-2c-0.9-1.2-1.5-2.9-1.5-4.7v-4.9
			c0-7.5-5.6-12.7-11-10.4h0c-2.7,1.2-5.6,0.5-7.9-1.8l-1.4-1.4c-2.3-2.4-5.2-3-7.9-1.8h0c-3.4,1.6-7.1,0-9.5-4l-0.1-0.2
			c-1.3-2.4-2-5.4-1.8-8.5s1.2-5.9,2.8-7.9l1-1.3l2-1.7c0,0,70.5,2,70.7,1.6l0.2,0.2H87l0.8,1.1c1.6,2,2.6,4.9,2.8,8
			C90.8,185.5,90.1,188.6,88.7,191z"/>
		<path class="st4" d="M84.4,186.5l-5.2,2.2c-6.3,2.6-13.3,3.1-19.8,1.3l-1.9-0.5c-5.7-1.5-11.6-1.4-17.2,0.3
			c-6,1.9-12.4,1.9-18.4,0l-5.1-1.6c-2.7-0.6-4.9-2.7-5.8-5.5c-0.8-2.7-0.2-5.7,1.7-7.8l3.3-3.7l3.2-3.6l0.3-0.2l0.5-0.2
			c-0.3-0.7-0.4-1.5-0.4-2.3c0-7.3,13.3-13.1,29.6-13.1c16.3,0,31,11.2,37.9,21.1c0.6,0.9,1.2,1.9,1.6,3c0.9,2,1,4.3,0.2,6.3
			C88.1,184.2,86.4,185.8,84.4,186.5z"/>
	</g>
	
		<radialGradient id="SVGID_5_" cx="119.8187" cy="307.3547" r="50.7041" gradientTransform="matrix(1 0 0 -1 0 432.0004)" gradientUnits="userSpaceOnUse">
		<stop  offset="0" style="stop-color:#FDB82D"/>
		<stop  offset="0.4611" style="stop-color:#FDB62B"/>
		<stop  offset="0.6748" style="stop-color:#FCB022"/>
		<stop  offset="0.8373" style="stop-color:#FAA819"/>
		<stop  offset="0.9734" style="stop-color:#F59A1E"/>
		<stop  offset="1" style="stop-color:#F4961F"/>
	</radialGradient>
	<path class="st7" d="M161.8,129.8c-1.8-15-17.7-26.7-37-26.7c-20.5,0-40.2,12.2-40.2,36.8c0,22.4,20.9,33.6,42.9,33.6
		s39.8-13,39.8-29C167.3,139.1,165.3,134.1,161.8,129.8z"/>
	
		<linearGradient id="SVGID_6_" gradientUnits="userSpaceOnUse" x1="128.3089" y1="293.4599" x2="132.1505" y2="247.3605" gradientTransform="matrix(1 0 0 -1 0 432.0004)">
		<stop  offset="0" style="stop-color:#8D633A"/>
		<stop  offset="1" style="stop-color:#412312"/>
	</linearGradient>
	<path class="st8" d="M161.8,129.8c0,0-2,23.8-28.9,26.3s-45.9-8.5-36.7-30.6s43.6-18.3,48-5.7c4.4,12.7-4.4,21.9-16.7,21.1
		c-15.6-0.9-18.6-17.3-5.7-19.6c8.2-1.5,8.7,5.6,3.5,6.1c-3.1,0.3-4.7,7.5,2.2,6.8c6.9-0.6,11.7-8.2,6-15.5
		c-5.7-7.3-21.1-6.3-27.1,3.2c-6,9.5,0.6,24.6,26.8,24.6S161.8,129.8,161.8,129.8z"/>
	<g class="st3">
		<path class="st4" d="M163.2,140.1c-2.4,4.1-5.9,6.3-9.5,6.2c-1.3,0-2.5-0.3-3.8-0.8c-0.2-0.1-0.3-0.1-0.5-0.1
			c-0.8-0.1-1.5,0.8-1.6,2V158c-0.1,2.6-1.7,4.6-3.4,4.5c-0.9,0-1.7-0.5-2.4-1.3c-0.6-0.8-1-1.9-1-3.1v-4.5
			c-0.1-2.6-1.6-4.6-3.4-4.5c-0.9,0-1.7,0.4-2.4,1.3c-0.6,0.8-1,1.9-1,3.1v11.1c-0.2,4-2.5,7-5.1,6.7c-1.3,0-2.6-0.7-3.6-2
			c-0.9-1.2-1.5-2.9-1.5-4.7v-4.9c0-7.5-5.6-12.7-11-10.4h0c-2.7,1.2-5.6,0.5-7.9-1.8l-1.4-1.4c-2.3-2.4-5.2-3-7.9-1.8h0
			c-3.4,1.6-7.1,0-9.5-4l-0.1-0.2c-1.3-2.4-2-5.4-1.8-8.5c0.2-3.1,1.2-5.9,2.8-7.9l1-1.3l2-1.7c0,0,70.5,2,70.7,1.6l0.2,0.2h0.3
			l0.8,1.1c1.6,2,2.6,4.9,2.8,8C165.3,134.6,164.6,137.7,163.2,140.1z"/>
		<path class="st4" d="M158.9,135.6l-5.2,2.2c-6.3,2.6-13.3,3.1-19.8,1.3l-1.9-0.5c-5.7-1.5-11.6-1.4-17.2,0.3
			c-6,1.9-12.4,1.9-18.4,0l-5.1-1.6c-2.7-0.6-4.9-2.7-5.8-5.5c-0.8-2.7-0.2-5.7,1.7-7.8l3.3-3.7l3.2-3.6l0.3-0.2l0.5-0.2
			c-0.3-0.7-0.4-1.5-0.4-2.3c0-7.3,13.3-13.1,29.6-13.1c16.3,0,31,11.2,37.9,21.1c0.6,0.9,1.2,1.9,1.6,3c0.9,2,1,4.3,0.2,6.3
			C162.6,133.3,160.9,134.9,158.9,135.6z"/>
	</g>
	
		<radialGradient id="SVGID_7_" cx="118.7584" cy="255.993" r="50.7041" gradientTransform="matrix(1 0 0 -1 0 432.0004)" gradientUnits="userSpaceOnUse">
		<stop  offset="0" style="stop-color:#FDB82D"/>
		<stop  offset="0.4611" style="stop-color:#FDB62B"/>
		<stop  offset="0.6748" style="stop-color:#FCB022"/>
		<stop  offset="0.8373" style="stop-color:#FAA819"/>
		<stop  offset="0.9734" style="stop-color:#F59A1E"/>
		<stop  offset="1" style="stop-color:#F4961F"/>
	</radialGradient>
	<path class="st9" d="M160.8,181.2c-1.8-15-17.7-26.7-37-26.7c-20.5,0-40.2,12.2-40.2,36.8c0,22.4,20.9,33.6,42.9,33.6
		s39.8-13,39.8-29C166.2,190.5,164.2,185.5,160.8,181.2z"/>
	
		<linearGradient id="SVGID_8_" gradientUnits="userSpaceOnUse" x1="127.2486" y1="242.0982" x2="131.0902" y2="195.9988" gradientTransform="matrix(1 0 0 -1 0 432.0004)">
		<stop  offset="0" style="stop-color:#8D633A"/>
		<stop  offset="1" style="stop-color:#412312"/>
	</linearGradient>
	<path class="st10" d="M160.8,181.2c0,0-2,23.8-28.9,26.3S86,199,95.2,176.9s43.6-18.3,48-5.7c4.4,12.7-4.4,21.9-16.7,21.1
		c-15.6-0.9-18.6-17.3-5.7-19.6c8.2-1.5,8.7,5.6,3.5,6.1c-3.1,0.3-4.7,7.5,2.2,6.8c6.9-0.6,11.7-8.2,6-15.5
		c-5.7-7.3-21.1-6.3-27.1,3.2c-6,9.5,0.6,24.6,26.8,24.6S160.8,181.2,160.8,181.2z"/>
	<g class="st3">
		<path class="st4" d="M162.2,191.4c-2.4,4.1-5.9,6.3-9.5,6.2c-1.3,0-2.5-0.3-3.8-0.8c-0.2-0.1-0.3-0.1-0.5-0.1
			c-0.8-0.1-1.5,0.8-1.6,2v10.5c-0.1,2.6-1.7,4.6-3.4,4.5c-0.9,0-1.7-0.5-2.4-1.3c-0.6-0.8-1-1.9-1-3.1v-4.5
			c-0.1-2.6-1.6-4.6-3.4-4.5c-0.9,0-1.7,0.4-2.4,1.3c-0.6,0.8-1,1.9-1,3.1V216c-0.2,4-2.5,7-5.1,6.7c-1.3,0-2.6-0.7-3.6-2
			c-0.9-1.2-1.5-2.9-1.5-4.7v-4.9c0-7.5-5.6-12.7-11-10.4h0c-2.7,1.2-5.6,0.5-7.9-1.8l-1.4-1.4c-2.3-2.4-5.2-3-7.9-1.8h0
			c-3.4,1.6-7.1,0-9.5-4l-0.1-0.2c-1.3-2.4-2-5.4-1.8-8.5c0.2-3.1,1.2-5.9,2.8-7.9l1-1.3l2-1.7c0,0,70.5,2,70.7,1.6l0.2,0.2h0.3
			l0.8,1.1c1.6,2,2.6,4.9,2.8,8C164.2,186,163.5,189.1,162.2,191.4z"/>
		<path class="st4" d="M157.9,187l-5.2,2.2c-6.3,2.6-13.3,3.1-19.8,1.3l-1.9-0.5c-5.7-1.5-11.6-1.4-17.2,0.3c-6,1.9-12.4,1.9-18.4,0
			l-5.1-1.6c-2.7-0.6-4.9-2.7-5.8-5.5c-0.8-2.7-0.2-5.7,1.7-7.8l3.3-3.7l3.2-3.6l0.3-0.2l0.5-0.2c-0.3-0.7-0.4-1.5-0.4-2.3
			c0-7.3,13.3-13.1,29.6-13.1c16.3,0,31,11.2,37.9,21.1c0.6,0.9,1.2,1.9,1.6,3c0.9,2,1,4.3,0.2,6.3
			C161.5,184.7,159.9,186.2,157.9,187z"/>
	</g>
	
		<radialGradient id="SVGID_9_" cx="192.6767" cy="306.9182" r="50.7041" gradientTransform="matrix(1 0 0 -1 0 432.0004)" gradientUnits="userSpaceOnUse">
		<stop  offset="0" style="stop-color:#FDB82D"/>
		<stop  offset="0.4611" style="stop-color:#FDB62B"/>
		<stop  offset="0.6748" style="stop-color:#FCB022"/>
		<stop  offset="0.8373" style="stop-color:#FAA819"/>
		<stop  offset="0.9734" style="stop-color:#F59A1E"/>
		<stop  offset="1" style="stop-color:#F4961F"/>
	</radialGradient>
	<path class="st11" d="M234.7,130.2c-1.8-15-17.7-26.7-37-26.7c-20.5,0-40.2,12.2-40.2,36.8c0,22.4,20.9,33.6,42.9,33.6
		s39.8-13,39.8-29C240.1,139.6,238.1,134.6,234.7,130.2z"/>
	
		<linearGradient id="SVGID_10_" gradientUnits="userSpaceOnUse" x1="201.1669" y1="293.0234" x2="205.0085" y2="246.924" gradientTransform="matrix(1 0 0 -1 0 432.0004)">
		<stop  offset="0" style="stop-color:#8D633A"/>
		<stop  offset="1" style="stop-color:#412312"/>
	</linearGradient>
	<path class="st12" d="M234.7,130.2c0,0-2,23.8-28.9,26.3s-45.9-8.5-36.7-30.6c9.2-22.1,43.6-18.3,48-5.7
		c4.4,12.7-4.4,21.9-16.7,21.1c-15.6-0.9-18.6-17.3-5.7-19.6c8.2-1.5,8.7,5.6,3.5,6.1c-3.1,0.3-4.7,7.5,2.2,6.8
		c6.9-0.6,11.7-8.2,6-15.5c-5.7-7.3-21.1-6.3-27.1,3.2c-6,9.5,0.6,24.6,26.8,24.6S234.7,130.2,234.7,130.2z"/>
	<g class="st3">
		<path class="st4" d="M236.1,140.5c-2.4,4.1-5.9,6.3-9.5,6.2c-1.3,0-2.5-0.3-3.8-0.8c-0.2-0.1-0.3-0.1-0.5-0.1
			c-0.8-0.1-1.5,0.8-1.6,2v10.5c-0.1,2.6-1.7,4.6-3.4,4.5c-0.9,0-1.7-0.5-2.4-1.3c-0.6-0.8-1-1.9-1-3.1v-4.5
			c-0.1-2.6-1.6-4.6-3.4-4.5c-0.9,0-1.7,0.4-2.4,1.3c-0.6,0.8-1,1.9-1,3.1v11.1c-0.2,4-2.5,7-5.1,6.7c-1.3,0-2.6-0.7-3.6-2
			c-0.9-1.2-1.5-2.9-1.5-4.7v-4.9c0-7.5-5.6-12.7-11-10.4h0c-2.7,1.2-5.6,0.5-7.9-1.8l-1.4-1.4c-2.3-2.4-5.2-3-7.9-1.8h0
			c-3.4,1.6-7.1,0-9.5-4l-0.1-0.2c-1.3-2.4-2-5.4-1.8-8.5c0.2-3.1,1.2-5.9,2.8-7.9l1-1.3l2-1.7c0,0,70.5,2,70.7,1.6l0.2,0.2h0.3
			l0.8,1.1c1.6,2,2.6,4.9,2.8,8C238.2,135,237.5,138.2,236.1,140.5z"/>
		<path class="st4" d="M231.8,136l-5.2,2.2c-6.3,2.6-13.3,3.1-19.8,1.3l-1.9-0.5c-5.7-1.5-11.6-1.4-17.2,0.3c-6,1.9-12.4,1.9-18.4,0
			l-5.1-1.6c-2.7-0.6-4.9-2.7-5.8-5.5c-0.8-2.7-0.2-5.7,1.7-7.8l3.3-3.7l3.2-3.6l0.3-0.2l0.5-0.2c-0.3-0.7-0.4-1.5-0.4-2.3
			c0-7.3,13.3-13.1,29.6-13.1c16.3,0,31,11.2,37.9,21.1c0.6,0.9,1.2,1.9,1.6,3c0.9,2,1,4.3,0.2,6.3
			C235.4,133.7,233.8,135.3,231.8,136z"/>
	</g>
	
		<radialGradient id="SVGID_11_" cx="192.7146" cy="254.7765" r="50.7041" gradientTransform="matrix(1 0 0 -1 0 432.0004)" gradientUnits="userSpaceOnUse">
		<stop  offset="0" style="stop-color:#FDB82D"/>
		<stop  offset="0.4611" style="stop-color:#FDB62B"/>
		<stop  offset="0.6748" style="stop-color:#FCB022"/>
		<stop  offset="0.8373" style="stop-color:#FAA819"/>
		<stop  offset="0.9734" style="stop-color:#F59A1E"/>
		<stop  offset="1" style="stop-color:#F4961F"/>
	</radialGradient>
	<path class="st13" d="M234.7,182.4c-1.8-15-17.7-26.7-37-26.7c-20.5,0-40.2,12.2-40.2,36.8c0,22.4,20.9,33.6,42.9,33.6
		s39.8-13,39.8-29C240.2,191.7,238.2,186.7,234.7,182.4z"/>
	
		<linearGradient id="SVGID_12_" gradientUnits="userSpaceOnUse" x1="201.2048" y1="240.8817" x2="205.0465" y2="194.7823" gradientTransform="matrix(1 0 0 -1 0 432.0004)">
		<stop  offset="0" style="stop-color:#8D633A"/>
		<stop  offset="1" style="stop-color:#412312"/>
	</linearGradient>
	<path class="st14" d="M234.7,182.4c0,0-2,23.8-28.9,26.3s-45.9-8.5-36.7-30.6c9.2-22.1,43.6-18.3,48-5.7
		c4.4,12.7-4.4,21.9-16.7,21.1c-15.6-0.9-18.6-17.3-5.7-19.6c8.2-1.5,8.7,5.6,3.5,6.1c-3.1,0.3-4.7,7.5,2.2,6.8
		c6.9-0.6,11.7-8.2,6-15.5c-5.7-7.3-21.1-6.3-27.1,3.2c-6,9.5,0.6,24.6,26.8,24.6S234.7,182.4,234.7,182.4z"/>
	<g class="st3">
		<path class="st4" d="M236.1,192.6c-2.4,4.1-5.9,6.3-9.5,6.2c-1.3,0-2.5-0.3-3.8-0.8c-0.2-0.1-0.3-0.1-0.5-0.1
			c-0.8-0.1-1.5,0.8-1.6,2v10.5c-0.1,2.6-1.7,4.6-3.4,4.5c-0.9,0-1.7-0.5-2.4-1.3c-0.6-0.8-1-1.9-1-3.1v-4.5
			c-0.1-2.6-1.6-4.6-3.4-4.5c-0.9,0-1.7,0.4-2.4,1.3c-0.6,0.8-1,1.9-1,3.1v11.1c-0.2,4-2.5,7-5.1,6.7c-1.3,0-2.6-0.7-3.6-2
			c-0.9-1.2-1.5-2.9-1.5-4.7v-4.9c0-7.5-5.6-12.7-11-10.4h0c-2.7,1.2-5.6,0.5-7.9-1.8l-1.4-1.4c-2.3-2.4-5.2-3-7.9-1.8h0
			c-3.4,1.6-7.1,0-9.5-4l-0.1-0.2c-1.3-2.4-2-5.4-1.8-8.5c0.2-3.1,1.2-5.9,2.8-7.9l1-1.3l2-1.7c0,0,70.5,2,70.7,1.6l0.2,0.2h0.3
			l0.8,1.1c1.6,2,2.6,4.9,2.8,8C238.2,187.2,237.5,190.3,236.1,192.6z"/>
		<path class="st4" d="M231.8,188.2l-5.2,2.2c-6.3,2.6-13.3,3.1-19.8,1.3l-1.9-0.5c-5.7-1.5-11.6-1.4-17.2,0.3
			c-6,1.9-12.4,1.9-18.4,0l-5.1-1.6c-2.7-0.6-4.9-2.7-5.8-5.5c-0.8-2.7-0.2-5.7,1.7-7.8l3.3-3.7l3.2-3.6l0.3-0.2l0.5-0.2
			c-0.3-0.7-0.4-1.5-0.4-2.3c0-7.3,13.3-13.1,29.6-13.1c16.3,0,31,11.2,37.9,21.1c0.6,0.9,1.2,1.9,1.6,3c0.9,2,1,4.3,0.2,6.3
			C235.5,185.9,233.8,187.5,231.8,188.2z"/>
	</g>
	
		<radialGradient id="SVGID_13_" cx="46.2161" cy="204.3625" r="50.7041" gradientTransform="matrix(1 0 0 -1 0 432.0004)" gradientUnits="userSpaceOnUse">
		<stop  offset="0" style="stop-color:#FDB82D"/>
		<stop  offset="0.4611" style="stop-color:#FDB62B"/>
		<stop  offset="0.6748" style="stop-color:#FCB022"/>
		<stop  offset="0.8373" style="stop-color:#FAA819"/>
		<stop  offset="0.9734" style="stop-color:#F59A1E"/>
		<stop  offset="1" style="stop-color:#F4961F"/>
	</radialGradient>
	<path class="st15" d="M88.2,232.8c-1.8-15-17.7-26.7-37-26.7c-20.5,0-40.2,12.2-40.2,36.8c0,22.4,20.9,33.6,42.9,33.6
		s39.8-13,39.8-29C93.7,242.1,91.7,237.1,88.2,232.8z"/>
	
		<linearGradient id="SVGID_14_" gradientUnits="userSpaceOnUse" x1="54.7063" y1="190.4677" x2="58.5479" y2="144.3683" gradientTransform="matrix(1 0 0 -1 0 432.0004)">
		<stop  offset="0" style="stop-color:#8D633A"/>
		<stop  offset="1" style="stop-color:#412312"/>
	</linearGradient>
	<path class="st16" d="M88.2,232.8c0,0-2,23.8-28.9,26.3s-45.9-8.5-36.7-30.6s43.6-18.3,48-5.7c4.4,12.7-4.4,21.9-16.7,21.1
		c-15.6-0.9-18.6-17.3-5.7-19.6c8.2-1.5,8.7,5.6,3.5,6.1c-3.1,0.3-4.7,7.5,2.2,6.8c6.9-0.6,11.7-8.2,6-15.5
		c-5.7-7.3-21.1-6.3-27.1,3.2c-6,9.5,0.6,24.6,26.8,24.6S88.2,232.8,88.2,232.8z"/>
	<g class="st3">
		<path class="st4" d="M89.6,243.1c-2.4,4.1-5.9,6.3-9.5,6.2c-1.3,0-2.5-0.3-3.8-0.8c-0.2-0.1-0.3-0.1-0.5-0.1
			c-0.8-0.1-1.5,0.8-1.6,2V261c-0.1,2.6-1.7,4.6-3.4,4.5c-0.9,0-1.7-0.5-2.4-1.3c-0.6-0.8-1-1.9-1-3.1v-4.5
			c-0.1-2.6-1.6-4.6-3.4-4.5c-0.9,0-1.7,0.4-2.4,1.3c-0.6,0.8-1,1.9-1,3.1v11.1c-0.2,4-2.5,7-5.1,6.7c-1.3,0-2.6-0.7-3.6-2
			c-0.9-1.2-1.5-2.9-1.5-4.7v-4.9c0-7.5-5.6-12.7-11-10.4h0c-2.7,1.2-5.6,0.5-7.9-1.8l-1.4-1.4c-2.3-2.4-5.2-3-7.9-1.8h0
			c-3.4,1.6-7.1,0-9.5-4l-0.1-0.2c-1.3-2.4-2-5.4-1.8-8.5c0.2-3.1,1.2-5.9,2.8-7.9l1-1.3l2-1.7c0,0,70.5,2,70.7,1.6l0.2,0.2h0.3
			l0.8,1.1c1.6,2,2.6,4.9,2.8,8C91.7,237.6,91,240.7,89.6,243.1z"/>
		<path class="st4" d="M85.3,238.6l-5.2,2.2c-6.3,2.6-13.3,3.1-19.8,1.3l-1.9-0.5c-5.7-1.5-11.6-1.4-17.2,0.3
			c-6,1.9-12.4,1.9-18.4,0l-5.1-1.6c-2.7-0.6-4.9-2.7-5.8-5.5c-0.8-2.7-0.2-5.7,1.7-7.8l3.3-3.7l3.2-3.6l0.3-0.2l0.5-0.2
			c-0.3-0.7-0.4-1.5-0.4-2.3c0-7.3,13.3-13.1,29.6-13.1c16.3,0,31,11.2,37.9,21.1c0.6,0.9,1.2,1.9,1.6,3c0.9,2,1,4.3,0.2,6.3
			C89,236.3,87.3,237.9,85.3,238.6z"/>
	</g>
	
		<radialGradient id="SVGID_15_" cx="45.1558" cy="153.0008" r="50.7041" gradientTransform="matrix(1 0 0 -1 0 432.0004)" gradientUnits="userSpaceOnUse">
		<stop  offset="0" style="stop-color:#FDB82D"/>
		<stop  offset="0.4611" style="stop-color:#FDB62B"/>
		<stop  offset="0.6748" style="stop-color:#FCB022"/>
		<stop  offset="0.8373" style="stop-color:#FAA819"/>
		<stop  offset="0.9734" style="stop-color:#F59A1E"/>
		<stop  offset="1" style="stop-color:#F4961F"/>
	</radialGradient>
	<path class="st17" d="M87.2,284.2c-1.8-15-17.7-26.7-37-26.7c-20.5,0-40.2,12.2-40.2,36.8c0,22.4,20.9,33.6,42.9,33.6
		s39.8-13,39.8-29C92.6,293.5,90.6,288.5,87.2,284.2z"/>
	
		<linearGradient id="SVGID_16_" gradientUnits="userSpaceOnUse" x1="53.646" y1="139.106" x2="57.4877" y2="93.0066" gradientTransform="matrix(1 0 0 -1 0 432.0004)">
		<stop  offset="0" style="stop-color:#8D633A"/>
		<stop  offset="1" style="stop-color:#412312"/>
	</linearGradient>
	<path class="st18" d="M87.2,284.2c0,0-2,23.8-28.9,26.3s-45.9-8.5-36.7-30.6s43.6-18.3,48-5.7c4.4,12.7-4.4,21.9-16.7,21.1
		c-15.6-0.9-18.6-17.3-5.7-19.6c8.2-1.5,8.7,5.6,3.5,6.1c-3.1,0.3-4.7,7.5,2.2,6.8c6.9-0.6,11.7-8.2,6-15.5
		c-5.7-7.3-21.1-6.3-27.1,3.2c-6,9.5,0.6,24.6,26.8,24.6S87.2,284.2,87.2,284.2z"/>
	<g class="st3">
		<path class="st4" d="M88.6,294.4c-2.4,4.1-5.9,6.3-9.5,6.2c-1.3,0-2.5-0.3-3.8-0.8c-0.2-0.1-0.3-0.1-0.5-0.1
			c-0.8-0.1-1.5,0.8-1.6,2v10.5c-0.1,2.6-1.7,4.6-3.4,4.5c-0.9,0-1.7-0.5-2.4-1.3c-0.6-0.8-1-1.9-1-3.1v-4.5
			c-0.1-2.6-1.6-4.6-3.4-4.5c-0.9,0-1.7,0.4-2.4,1.3c-0.6,0.8-1,1.9-1,3.1V319c-0.2,4-2.5,7-5.1,6.7c-1.3,0-2.6-0.7-3.6-2
			c-0.9-1.2-1.5-2.9-1.5-4.7v-4.9c0-7.5-5.6-12.7-11-10.4h0c-2.7,1.2-5.6,0.5-7.9-1.8l-1.4-1.4c-2.3-2.4-5.2-3-7.9-1.8h0
			c-3.4,1.6-7.1,0-9.5-4l-0.1-0.2c-1.3-2.4-2-5.4-1.8-8.5c0.2-3.1,1.2-5.9,2.8-7.9l1-1.3l2-1.7c0,0,70.5,2,70.7,1.6l0.2,0.2h0.3
			l0.8,1.1c1.6,2,2.6,4.9,2.8,8C90.6,289,89.9,292.1,88.6,294.4z"/>
		<path class="st4" d="M84.3,290l-5.2,2.2c-6.3,2.6-13.3,3.1-19.8,1.3l-1.9-0.5c-5.7-1.5-11.6-1.4-17.2,0.3c-6,1.9-12.4,1.9-18.4,0
			l-5.1-1.6c-2.7-0.6-4.9-2.7-5.8-5.5c-0.8-2.7-0.2-5.7,1.7-7.8l3.3-3.7l3.2-3.6l0.3-0.2l0.5-0.2c-0.3-0.7-0.4-1.5-0.4-2.3
			c0-7.3,13.3-13.1,29.6-13.1c16.3,0,31,11.2,37.9,21.1c0.6,0.9,1.2,1.9,1.6,3c0.9,2,1,4.3,0.2,6.3C87.9,287.7,86.3,289.2,84.3,290z
			"/>
	</g>
	
		<radialGradient id="SVGID_17_" cx="119.6613" cy="203.9139" r="50.7041" gradientTransform="matrix(1 0 0 -1 0 432.0004)" gradientUnits="userSpaceOnUse">
		<stop  offset="0" style="stop-color:#FDB82D"/>
		<stop  offset="0.4611" style="stop-color:#FDB62B"/>
		<stop  offset="0.6748" style="stop-color:#FCB022"/>
		<stop  offset="0.8373" style="stop-color:#FAA819"/>
		<stop  offset="0.9734" style="stop-color:#F59A1E"/>
		<stop  offset="1" style="stop-color:#F4961F"/>
	</radialGradient>
	<path class="st19" d="M161.7,233.3c-1.8-15-17.7-26.7-37-26.7c-20.5,0-40.2,12.2-40.2,36.8c0,22.4,20.9,33.6,42.9,33.6
		s39.8-13,39.8-29C167.1,242.6,165.1,237.6,161.7,233.3z"/>
	
		<linearGradient id="SVGID_18_" gradientUnits="userSpaceOnUse" x1="128.1515" y1="190.0191" x2="131.9931" y2="143.9197" gradientTransform="matrix(1 0 0 -1 0 432.0004)">
		<stop  offset="0" style="stop-color:#8D633A"/>
		<stop  offset="1" style="stop-color:#412312"/>
	</linearGradient>
	<path class="st20" d="M161.7,233.3c0,0-2,23.8-28.9,26.3s-45.9-8.5-36.7-30.6s43.6-18.3,48-5.7c4.4,12.7-4.4,21.9-16.7,21.1
		c-15.6-0.9-18.6-17.3-5.7-19.6c8.2-1.5,8.7,5.6,3.5,6.1c-3.1,0.3-4.7,7.5,2.2,6.8c6.9-0.6,11.7-8.2,6-15.5
		c-5.7-7.3-21.1-6.3-27.1,3.2c-6,9.5,0.6,24.6,26.8,24.6S161.7,233.3,161.7,233.3z"/>
	<g class="st3">
		<path class="st4" d="M163.1,243.5c-2.4,4.1-5.9,6.3-9.5,6.2c-1.3,0-2.5-0.3-3.8-0.8c-0.2-0.1-0.3-0.1-0.5-0.1
			c-0.8-0.1-1.5,0.8-1.6,2v10.5c-0.1,2.6-1.7,4.6-3.4,4.5c-0.9,0-1.7-0.5-2.4-1.3c-0.6-0.8-1-1.9-1-3.1V257
			c-0.1-2.6-1.6-4.6-3.4-4.5c-0.9,0-1.7,0.4-2.4,1.3c-0.6,0.8-1,1.9-1,3.1v11.1c-0.2,4-2.5,7-5.1,6.7c-1.3,0-2.6-0.7-3.6-2
			c-0.9-1.2-1.5-2.9-1.5-4.7v-4.9c0-7.5-5.6-12.7-11-10.4h0c-2.7,1.2-5.6,0.5-7.9-1.8l-1.4-1.4c-2.3-2.4-5.2-3-7.9-1.8h0
			c-3.4,1.6-7.1,0-9.5-4l-0.1-0.2c-1.3-2.4-2-5.4-1.8-8.5c0.2-3.1,1.2-5.9,2.8-7.9l1-1.3l2-1.7c0,0,70.5,2,70.7,1.6l0.2,0.2h0.3
			l0.8,1.1c1.6,2,2.6,4.9,2.8,8C165.1,238,164.4,241.2,163.1,243.5z"/>
		<path class="st4" d="M158.8,239l-5.2,2.2c-6.3,2.6-13.3,3.1-19.8,1.3l-1.9-0.5c-5.7-1.5-11.6-1.4-17.2,0.3c-6,1.9-12.4,1.9-18.4,0
			l-5.1-1.6c-2.7-0.6-4.9-2.7-5.8-5.5c-0.8-2.7-0.2-5.7,1.7-7.8l3.3-3.7l3.2-3.6l0.3-0.2l0.5-0.2c-0.3-0.7-0.4-1.5-0.4-2.3
			c0-7.3,13.3-13.1,29.6-13.1c16.3,0,31,11.2,37.9,21.1c0.6,0.9,1.2,1.9,1.6,3c0.9,2,1,4.3,0.2,6.3
			C162.4,236.7,160.8,238.3,158.8,239z"/>
	</g>
	
		<radialGradient id="SVGID_19_" cx="118.6011" cy="152.5522" r="50.7041" gradientTransform="matrix(1 0 0 -1 0 432.0004)" gradientUnits="userSpaceOnUse">
		<stop  offset="0" style="stop-color:#FDB82D"/>
		<stop  offset="0.4611" style="stop-color:#FDB62B"/>
		<stop  offset="0.6748" style="stop-color:#FCB022"/>
		<stop  offset="0.8373" style="stop-color:#FAA819"/>
		<stop  offset="0.9734" style="stop-color:#F59A1E"/>
		<stop  offset="1" style="stop-color:#F4961F"/>
	</radialGradient>
	<path class="st21" d="M160.6,284.6c-1.8-15-17.7-26.7-37-26.7c-20.5,0-40.2,12.2-40.2,36.8c0,22.4,20.9,33.6,42.9,33.6
		s39.8-13,39.8-29C166.1,293.9,164.1,288.9,160.6,284.6z"/>
	
		<linearGradient id="SVGID_20_" gradientUnits="userSpaceOnUse" x1="127.0913" y1="138.6575" x2="130.9329" y2="92.558" gradientTransform="matrix(1 0 0 -1 0 432.0004)">
		<stop  offset="0" style="stop-color:#8D633A"/>
		<stop  offset="1" style="stop-color:#412312"/>
	</linearGradient>
	<path class="st22" d="M160.6,284.6c0,0-2,23.8-28.9,26.3c-26.8,2.5-45.9-8.5-36.7-30.6s43.6-18.3,48-5.7
		c4.4,12.7-4.4,21.9-16.7,21.1c-15.6-0.9-18.6-17.3-5.7-19.6c8.2-1.5,8.7,5.6,3.5,6.1c-3.1,0.3-4.7,7.5,2.2,6.8
		c6.9-0.6,11.7-8.2,6-15.5c-5.7-7.3-21.1-6.3-27.1,3.2c-6,9.5,0.6,24.6,26.8,24.6S160.6,284.6,160.6,284.6z"/>
	<g class="st3">
		<path class="st4" d="M162,294.9c-2.4,4.1-5.9,6.3-9.5,6.2c-1.3,0-2.5-0.3-3.8-0.8c-0.2-0.1-0.3-0.1-0.5-0.1
			c-0.8-0.1-1.5,0.8-1.6,2v10.5c-0.1,2.6-1.7,4.6-3.4,4.5c-0.9,0-1.7-0.5-2.4-1.3c-0.6-0.8-1-1.9-1-3.1v-4.5
			c-0.1-2.6-1.6-4.6-3.4-4.5c-0.9,0-1.7,0.4-2.4,1.3c-0.6,0.8-1,1.9-1,3.1v11.1c-0.2,4-2.5,7-5.1,6.7c-1.3,0-2.6-0.7-3.6-2
			c-0.9-1.2-1.5-2.9-1.5-4.7v-4.9c0-7.5-5.6-12.7-11-10.4h0c-2.7,1.2-5.6,0.5-7.9-1.8l-1.4-1.4c-2.3-2.4-5.2-3-7.9-1.8h0
			c-3.4,1.6-7.1,0-9.5-4l-0.1-0.2c-1.3-2.4-2-5.4-1.8-8.5c0.2-3.1,1.2-5.9,2.8-7.9l1-1.3l2-1.7c0,0,70.5,2,70.7,1.6l0.2,0.2h0.3
			l0.8,1.1c1.6,2,2.6,4.9,2.8,8C164.1,289.4,163.4,292.5,162,294.9z"/>
		<path class="st4" d="M157.7,290.4l-5.2,2.2c-6.3,2.6-13.3,3.1-19.8,1.3l-1.9-0.5c-5.7-1.5-11.6-1.4-17.2,0.3
			c-6,1.9-12.4,1.9-18.4,0l-5.1-1.6c-2.7-0.6-4.9-2.7-5.8-5.5c-0.8-2.7-0.2-5.7,1.7-7.8l3.3-3.7l3.2-3.6l0.3-0.2l0.5-0.2
			c-0.3-0.7-0.4-1.5-0.4-2.3c0-7.3,13.3-13.1,29.6-13.1c16.3,0,31,11.2,37.9,21.1c0.6,0.9,1.2,1.9,1.6,3c0.9,2,1,4.3,0.2,6.3
			C161.3,288.1,159.7,289.7,157.7,290.4z"/>
	</g>
	
		<radialGradient id="SVGID_21_" cx="192.5194" cy="203.4774" r="50.7041" gradientTransform="matrix(1 0 0 -1 0 432.0004)" gradientUnits="userSpaceOnUse">
		<stop  offset="0" style="stop-color:#FDB82D"/>
		<stop  offset="0.4611" style="stop-color:#FDB62B"/>
		<stop  offset="0.6748" style="stop-color:#FCB022"/>
		<stop  offset="0.8373" style="stop-color:#FAA819"/>
		<stop  offset="0.9734" style="stop-color:#F59A1E"/>
		<stop  offset="1" style="stop-color:#F4961F"/>
	</radialGradient>
	<path class="st23" d="M234.5,233.7c-1.8-15-17.7-26.7-37-26.7c-20.5,0-40.2,12.2-40.2,36.8c0,22.4,20.9,33.6,42.9,33.6
		s39.8-13,39.8-29C240,243,238,238,234.5,233.7z"/>
	
		<linearGradient id="SVGID_22_" gradientUnits="userSpaceOnUse" x1="201.0096" y1="189.5826" x2="204.8512" y2="143.4832" gradientTransform="matrix(1 0 0 -1 0 432.0004)">
		<stop  offset="0" style="stop-color:#8D633A"/>
		<stop  offset="1" style="stop-color:#412312"/>
	</linearGradient>
	<path class="st24" d="M234.5,233.7c0,0-2,23.8-28.9,26.3c-26.8,2.5-45.9-8.5-36.7-30.6s43.6-18.3,48-5.7
		c4.4,12.7-4.4,21.9-16.7,21.1c-15.6-0.9-18.6-17.3-5.7-19.6c8.2-1.5,8.7,5.6,3.5,6.1c-3.1,0.3-4.7,7.5,2.2,6.8
		c6.9-0.6,11.7-8.2,6-15.5c-5.7-7.3-21.1-6.3-27.1,3.2c-6,9.5,0.6,24.6,26.8,24.6S234.5,233.7,234.5,233.7z"/>
	<g class="st3">
		<path class="st4" d="M235.9,243.9c-2.4,4.1-5.9,6.3-9.5,6.2c-1.3,0-2.5-0.3-3.8-0.8c-0.2-0.1-0.3-0.1-0.5-0.1
			c-0.8-0.1-1.5,0.8-1.6,2v10.5c-0.1,2.6-1.7,4.6-3.4,4.5c-0.9,0-1.7-0.5-2.4-1.3c-0.6-0.8-1-1.9-1-3.1v-4.5
			c-0.1-2.6-1.6-4.6-3.4-4.5c-0.9,0-1.7,0.4-2.4,1.3c-0.6,0.8-1,1.9-1,3.1v11.1c-0.2,4-2.5,7-5.1,6.7c-1.3,0-2.6-0.7-3.6-2
			c-0.9-1.2-1.5-2.9-1.5-4.7v-4.9c0-7.5-5.6-12.7-11-10.4h0c-2.7,1.2-5.6,0.5-7.9-1.8l-1.4-1.4c-2.3-2.4-5.2-3-7.9-1.8h0
			c-3.4,1.6-7.1,0-9.5-4l-0.1-0.2c-1.3-2.4-2-5.4-1.8-8.5c0.2-3.1,1.2-5.9,2.8-7.9l1-1.3l2-1.7c0,0,70.5,2,70.7,1.6l0.2,0.2h0.3
			l0.8,1.1c1.6,2,2.6,4.9,2.8,8C238,238.5,237.3,241.6,235.9,243.9z"/>
		<path class="st4" d="M231.6,239.5l-5.2,2.2c-6.3,2.6-13.3,3.1-19.8,1.3l-1.9-0.5c-5.7-1.5-11.6-1.4-17.2,0.3
			c-6,1.9-12.4,1.9-18.4,0l-5.1-1.6c-2.7-0.6-4.9-2.7-5.8-5.5c-0.8-2.7-0.2-5.7,1.7-7.8l3.3-3.7l3.2-3.6l0.3-0.2l0.5-0.2
			c-0.3-0.7-0.4-1.5-0.4-2.3c0-7.3,13.3-13.1,29.6-13.1c16.3,0,31,11.2,37.9,21.1c0.6,0.9,1.2,1.9,1.6,3c0.9,2,1,4.3,0.2,6.3
			C235.3,237.2,233.7,238.8,231.6,239.5z"/>
	</g>
	
		<radialGradient id="SVGID_23_" cx="192.5573" cy="151.3357" r="50.7041" gradientTransform="matrix(1 0 0 -1 0 432.0004)" gradientUnits="userSpaceOnUse">
		<stop  offset="0" style="stop-color:#FDB82D"/>
		<stop  offset="0.4611" style="stop-color:#FDB62B"/>
		<stop  offset="0.6748" style="stop-color:#FCB022"/>
		<stop  offset="0.8373" style="stop-color:#FAA819"/>
		<stop  offset="0.9734" style="stop-color:#F59A1E"/>
		<stop  offset="1" style="stop-color:#F4961F"/>
	</radialGradient>
	<path class="st25" d="M234.6,285.8c-1.8-15-17.7-26.7-37-26.7c-20.5,0-40.2,12.2-40.2,36.8c0,22.4,20.9,33.6,42.9,33.6
		s39.8-13,39.8-29C240,295.1,238,290.1,234.6,285.8z"/>
	
		<linearGradient id="SVGID_24_" gradientUnits="userSpaceOnUse" x1="201.0475" y1="137.4409" x2="204.8891" y2="91.3415" gradientTransform="matrix(1 0 0 -1 0 432.0004)">
		<stop  offset="0" style="stop-color:#8D633A"/>
		<stop  offset="1" style="stop-color:#412312"/>
	</linearGradient>
	<path class="st26" d="M234.6,285.8c0,0-2,23.8-28.9,26.3s-45.9-8.5-36.7-30.6s43.6-18.3,48-5.7c4.4,12.7-4.4,21.9-16.7,21.1
		c-15.6-0.9-18.6-17.3-5.7-19.6c8.2-1.5,8.7,5.6,3.5,6.1c-3.1,0.3-4.7,7.5,2.2,6.8c6.9-0.6,11.7-8.2,6-15.5
		c-5.7-7.3-21.1-6.3-27.1,3.2c-6,9.5,0.6,24.6,26.8,24.6S234.6,285.8,234.6,285.8z"/>
	<g class="st3">
		<path class="st4" d="M236,296.1c-2.4,4.1-5.9,6.3-9.5,6.2c-1.3,0-2.5-0.3-3.8-0.8c-0.2-0.1-0.3-0.1-0.5-0.1
			c-0.8-0.1-1.5,0.8-1.6,2V314c-0.1,2.6-1.7,4.6-3.4,4.5c-0.9,0-1.7-0.5-2.4-1.3c-0.6-0.8-1-1.9-1-3.1v-4.5
			c-0.1-2.6-1.6-4.6-3.4-4.5c-0.9,0-1.7,0.4-2.4,1.3c-0.6,0.8-1,1.9-1,3.1v11.1c-0.2,4-2.5,7-5.1,6.7c-1.3,0-2.6-0.7-3.6-2
			c-0.9-1.2-1.5-2.9-1.5-4.7v-4.9c0-7.5-5.6-12.7-11-10.4h0c-2.7,1.2-5.6,0.5-7.9-1.8l-1.4-1.4c-2.3-2.4-5.2-3-7.9-1.8h0
			c-3.4,1.6-7.1,0-9.5-4L159,296c-1.3-2.4-2-5.4-1.8-8.5c0.2-3.1,1.2-5.9,2.8-7.9l1-1.3l2-1.7c0,0,70.5,2,70.7,1.6l0.2,0.2h0.3
			l0.8,1.1c1.6,2,2.6,4.9,2.8,8C238,290.6,237.3,293.7,236,296.1z"/>
		<path class="st4" d="M231.7,291.6l-5.2,2.2c-6.3,2.6-13.3,3.1-19.8,1.3l-1.9-0.5c-5.7-1.5-11.6-1.4-17.2,0.3
			c-6,1.9-12.4,1.9-18.4,0l-5.1-1.6c-2.7-0.6-4.9-2.7-5.8-5.5c-0.8-2.7-0.2-5.7,1.7-7.8l3.3-3.7l3.2-3.6l0.3-0.2l0.5-0.2
			c-0.3-0.7-0.4-1.5-0.4-2.3c0-7.3,13.3-13.1,29.6-13.1c16.3,0,31,11.2,37.9,21.1c0.6,0.9,1.2,1.9,1.6,3c0.9,2,1,4.3,0.2,6.3
			C235.3,289.3,233.7,290.9,231.7,291.6z"/>
	</g>
</g>
</svg>
