<?xml version="1.0" encoding="utf-8"?>
<!-- Generator: Adobe Illustrator 21.0.0, SVG Export Plug-In . SVG Version: 6.00 Build 0)  -->
<svg version="1.1" id="레이어_1" xmlns="http://www.w3.org/2000/svg" xmlns:xlink="http://www.w3.org/1999/xlink" x="0px"
	 y="0px" viewBox="0 0 250 430" style="enable-background:new 0 0 250 430;" xml:space="preserve">
<style type="text/css">
	.st0{fill:#FFFFFF;}
	.st1{fill:url(#SVGID_1_);}
	.st2{fill:url(#SVGID_2_);}
	.st3{fill:url(#SVGID_3_);}
	.st4{fill:url(#SVGID_4_);}
	.st5{fill:url(#SVGID_5_);}
	.st6{fill:url(#SVGID_6_);}
	.st7{fill:url(#SVGID_7_);}
	.st8{fill:url(#SVGID_8_);}
	.st9{fill:url(#SVGID_9_);}
	.st10{fill:url(#SVGID_10_);}
	.st11{fill:url(#SVGID_11_);}
	.st12{fill:url(#SVGID_12_);}
	.st13{fill:url(#SVGID_13_);}
	.st14{fill:url(#SVGID_14_);}
	.st15{fill:url(#SVGID_15_);}
	.st16{fill:url(#SVGID_16_);}
	.st17{fill:url(#SVGID_17_);}
	.st18{fill:url(#SVGID_18_);}
	.st19{fill:url(#SVGID_19_);}
	.st20{fill:url(#SVGID_20_);}
	.st21{fill:url(#SVGID_21_);}
	.st22{fill:url(#SVGID_22_);}
	.st23{fill:url(#SVGID_23_);}
	.st24{fill:url(#SVGID_24_);}
</style>
<rect y="0" class="st0" width="250" height="430"/>
<g>
	
		<radialGradient id="SVGID_1_" cx="46.3355" cy="308.852" r="50.7041" gradientTransform="matrix(1 0 0 -1.001 0 432.2244)" gradientUnits="userSpaceOnUse">
		<stop  offset="0" style="stop-color:#FDB82D"/>
		<stop  offset="0.4611" style="stop-color:#FDB62B"/>
		<stop  offset="0.6748" style="stop-color:#FCB022"/>
		<stop  offset="0.8373" style="stop-color:#FAA819"/>
		<stop  offset="0.9734" style="stop-color:#F59A1E"/>
		<stop  offset="1" style="stop-color:#F4961F"/>
	</radialGradient>
	<path class="st1" d="M88.3,128.2c-1.8-15-17.7-26.7-37-26.7c-20.5,0-40.2,12.2-40.2,36.8C11.1,160.8,32,172,54,172
		s39.8-13,39.8-29.1C93.8,137.6,91.8,132.5,88.3,128.2z"/>
	
		<linearGradient id="SVGID_2_" gradientUnits="userSpaceOnUse" x1="54.8261" y1="295.0376" x2="58.6716" y2="248.8916" gradientTransform="matrix(1 0 0 -1 0 432.0004)">
		<stop  offset="0" style="stop-color:#8D633A"/>
		<stop  offset="1" style="stop-color:#412312"/>
	</linearGradient>
	<path class="st2" d="M88.3,128.2c0,0-2,23.8-28.9,26.4s-45.9-8.5-36.7-30.7s43.6-18.4,48-5.7c4.4,12.7-4.4,21.9-16.7,21.2
		c-15.6-0.9-18.6-17.3-5.7-19.6c8.2-1.5,8.7,5.6,3.5,6.1c-3.1,0.3-4.7,7.5,2.2,6.8c6.9-0.6,11.7-8.2,6-15.5
		c-5.7-7.3-21.1-6.3-27.1,3.2c-6,9.5,0.6,24.6,26.8,24.6S88.3,128.2,88.3,128.2z"/>
	
		<radialGradient id="SVGID_3_" cx="45.2753" cy="257.4903" r="50.7041" gradientTransform="matrix(1 0 0 -1.001 0 432.2244)" gradientUnits="userSpaceOnUse">
		<stop  offset="0" style="stop-color:#FDB82D"/>
		<stop  offset="0.4611" style="stop-color:#FDB62B"/>
		<stop  offset="0.6748" style="stop-color:#FCB022"/>
		<stop  offset="0.8373" style="stop-color:#FAA819"/>
		<stop  offset="0.9734" style="stop-color:#F59A1E"/>
		<stop  offset="1" style="stop-color:#F4961F"/>
	</radialGradient>
	<path class="st3" d="M87.3,179.6c-1.8-15-17.7-26.7-37-26.7c-20.5,0-40.2,12.2-40.2,36.8c0,22.4,20.9,33.6,42.9,33.6
		s39.8-13,39.8-29.1C92.7,189,90.7,183.9,87.3,179.6z"/>
	
		<linearGradient id="SVGID_4_" gradientUnits="userSpaceOnUse" x1="53.7659" y1="243.6229" x2="57.6114" y2="197.477" gradientTransform="matrix(1 0 0 -1 0 432.0004)">
		<stop  offset="0" style="stop-color:#8D633A"/>
		<stop  offset="1" style="stop-color:#412312"/>
	</linearGradient>
	<path class="st4" d="M87.3,179.6c0,0-2,23.8-28.9,26.4s-45.9-8.5-36.7-30.7s43.6-18.4,48-5.7c4.4,12.7-4.4,21.9-16.7,21.2
		c-15.6-0.9-18.6-17.3-5.7-19.6c8.2-1.5,8.7,5.6,3.5,6.1c-3.1,0.3-4.7,7.5,2.2,6.8c6.9-0.6,11.7-8.2,6-15.5
		c-5.7-7.3-21.1-6.3-27.1,3.2c-6,9.5,0.6,24.6,26.8,24.6S87.3,179.6,87.3,179.6z"/>
	
		<radialGradient id="SVGID_5_" cx="119.7807" cy="308.4034" r="50.7041" gradientTransform="matrix(1 0 0 -1.001 0 432.2244)" gradientUnits="userSpaceOnUse">
		<stop  offset="0" style="stop-color:#FDB82D"/>
		<stop  offset="0.4611" style="stop-color:#FDB62B"/>
		<stop  offset="0.6748" style="stop-color:#FCB022"/>
		<stop  offset="0.8373" style="stop-color:#FAA819"/>
		<stop  offset="0.9734" style="stop-color:#F59A1E"/>
		<stop  offset="1" style="stop-color:#F4961F"/>
	</radialGradient>
	<path class="st5" d="M161.8,128.7c-1.8-15-17.7-26.7-37-26.7c-20.5,0-40.2,12.2-40.2,36.8c0,22.4,20.9,33.6,42.9,33.6
		s39.8-13,39.8-29.1C167.2,138,165.2,133,161.8,128.7z"/>
	
		<linearGradient id="SVGID_6_" gradientUnits="userSpaceOnUse" x1="128.2714" y1="294.5886" x2="132.1169" y2="248.4426" gradientTransform="matrix(1 0 0 -1 0 432.0004)">
		<stop  offset="0" style="stop-color:#8D633A"/>
		<stop  offset="1" style="stop-color:#412312"/>
	</linearGradient>
	<path class="st6" d="M161.8,128.7c0,0-2,23.8-28.9,26.4s-45.9-8.5-36.7-30.7s43.6-18.4,48-5.7c4.4,12.7-4.4,21.9-16.7,21.2
		c-15.6-0.9-18.6-17.3-5.7-19.6c8.2-1.5,8.7,5.6,3.5,6.1c-3.1,0.3-4.7,7.5,2.2,6.8c6.9-0.6,11.7-8.2,6-15.5
		c-5.7-7.3-21.1-6.3-27.1,3.2c-6,9.5,0.6,24.6,26.8,24.6S161.8,128.7,161.8,128.7z"/>
	
		<radialGradient id="SVGID_7_" cx="118.7205" cy="257.0417" r="50.7041" gradientTransform="matrix(1 0 0 -1.001 0 432.2244)" gradientUnits="userSpaceOnUse">
		<stop  offset="0" style="stop-color:#FDB82D"/>
		<stop  offset="0.4611" style="stop-color:#FDB62B"/>
		<stop  offset="0.6748" style="stop-color:#FCB022"/>
		<stop  offset="0.8373" style="stop-color:#FAA819"/>
		<stop  offset="0.9734" style="stop-color:#F59A1E"/>
		<stop  offset="1" style="stop-color:#F4961F"/>
	</radialGradient>
	<path class="st7" d="M160.7,180.1c-1.8-15-17.7-26.7-37-26.7c-20.5,0-40.2,12.2-40.2,36.8c0,22.4,20.9,33.6,42.9,33.6
		s39.8-13,39.8-29.1C166.2,189.4,164.2,184.4,160.7,180.1z"/>
	
		<linearGradient id="SVGID_8_" gradientUnits="userSpaceOnUse" x1="127.2111" y1="243.1739" x2="131.0566" y2="197.0279" gradientTransform="matrix(1 0 0 -1 0 432.0004)">
		<stop  offset="0" style="stop-color:#8D633A"/>
		<stop  offset="1" style="stop-color:#412312"/>
	</linearGradient>
	<path class="st8" d="M160.7,180.1c0,0-2,23.8-28.9,26.4C105,209,86,197.9,95.2,175.8s43.6-18.4,48-5.7c4.4,12.7-4.4,21.9-16.7,21.2
		c-15.6-0.9-18.6-17.3-5.7-19.6c8.2-1.5,8.7,5.6,3.5,6.1c-3.1,0.3-4.7,7.5,2.2,6.8c6.9-0.6,11.7-8.2,6-15.5
		c-5.7-7.3-21.1-6.3-27.1,3.2c-6,9.5,0.6,24.6,26.8,24.6S160.7,180.1,160.7,180.1z"/>
	<g>
		
			<radialGradient id="SVGID_9_" cx="192.6388" cy="307.9713" r="50.7041" gradientTransform="matrix(1 0 0 -1 0 432.0004)" gradientUnits="userSpaceOnUse">
			<stop  offset="0" style="stop-color:#FDB82D"/>
			<stop  offset="0.4611" style="stop-color:#FDB62B"/>
			<stop  offset="0.6748" style="stop-color:#FCB022"/>
			<stop  offset="0.8373" style="stop-color:#FAA819"/>
			<stop  offset="0.9734" style="stop-color:#F59A1E"/>
			<stop  offset="1" style="stop-color:#F4961F"/>
		</radialGradient>
		<path class="st9" d="M234.6,129.2c-1.8-15-17.7-26.7-37-26.7c-20.5,0-40.2,12.2-40.2,36.8c0,22.4,20.9,33.6,42.9,33.6
			s39.8-13,39.8-29C240.1,138.5,238.1,133.5,234.6,129.2z"/>
		
			<linearGradient id="SVGID_10_" gradientUnits="userSpaceOnUse" x1="201.129" y1="294.0765" x2="204.9706" y2="247.9771" gradientTransform="matrix(1 0 0 -1 0 432.0004)">
			<stop  offset="0" style="stop-color:#8D633A"/>
			<stop  offset="1" style="stop-color:#412312"/>
		</linearGradient>
		<path class="st10" d="M234.6,129.2c0,0-2,23.8-28.9,26.3s-45.9-8.5-36.7-30.6c9.2-22.1,43.6-18.3,48-5.7
			c4.4,12.7-4.4,21.9-16.7,21.1c-15.6-0.9-18.6-17.3-5.7-19.6c8.2-1.5,8.7,5.6,3.5,6.1c-3.1,0.3-4.7,7.5,2.2,6.8
			c6.9-0.6,11.7-8.2,6-15.5c-5.7-7.3-21.1-6.3-27.1,3.2c-6,9.5,0.6,24.6,26.8,24.6S234.6,129.2,234.6,129.2z"/>
		
			<radialGradient id="SVGID_11_" cx="192.6767" cy="255.8296" r="50.7041" gradientTransform="matrix(1 0 0 -1 0 432.0004)" gradientUnits="userSpaceOnUse">
			<stop  offset="0" style="stop-color:#FDB82D"/>
			<stop  offset="0.4611" style="stop-color:#FDB62B"/>
			<stop  offset="0.6748" style="stop-color:#FCB022"/>
			<stop  offset="0.8373" style="stop-color:#FAA819"/>
			<stop  offset="0.9734" style="stop-color:#F59A1E"/>
			<stop  offset="1" style="stop-color:#F4961F"/>
		</radialGradient>
		<path class="st11" d="M234.7,181.3c-1.8-15-17.7-26.7-37-26.7c-20.5,0-40.2,12.2-40.2,36.8c0,22.4,20.9,33.6,42.9,33.6
			s39.8-13,39.8-29C240.1,190.7,238.1,185.6,234.7,181.3z"/>
		
			<linearGradient id="SVGID_12_" gradientUnits="userSpaceOnUse" x1="201.1669" y1="241.9348" x2="205.0085" y2="195.8354" gradientTransform="matrix(1 0 0 -1 0 432.0004)">
			<stop  offset="0" style="stop-color:#8D633A"/>
			<stop  offset="1" style="stop-color:#412312"/>
		</linearGradient>
		<path class="st12" d="M234.7,181.3c0,0-2,23.8-28.9,26.3c-26.8,2.5-45.9-8.5-36.7-30.6c9.2-22.1,43.6-18.3,48-5.7
			c4.4,12.7-4.4,21.9-16.7,21.1c-15.6-0.9-18.6-17.3-5.7-19.6c8.2-1.5,8.7,5.6,3.5,6.1c-3.1,0.3-4.7,7.5,2.2,6.8
			c6.9-0.6,11.7-8.2,6-15.5c-5.7-7.3-21.1-6.3-27.1,3.2c-6,9.5,0.6,24.6,26.8,24.6S234.7,181.3,234.7,181.3z"/>
		
			<radialGradient id="SVGID_13_" cx="46.1782" cy="205.4156" r="50.7041" gradientTransform="matrix(1 0 0 -1 0 432.0004)" gradientUnits="userSpaceOnUse">
			<stop  offset="0" style="stop-color:#FDB82D"/>
			<stop  offset="0.4611" style="stop-color:#FDB62B"/>
			<stop  offset="0.6748" style="stop-color:#FCB022"/>
			<stop  offset="0.8373" style="stop-color:#FAA819"/>
			<stop  offset="0.9734" style="stop-color:#F59A1E"/>
			<stop  offset="1" style="stop-color:#F4961F"/>
		</radialGradient>
		<path class="st13" d="M88.2,231.8c-1.8-15-17.7-26.7-37-26.7c-20.5,0-40.2,12.2-40.2,36.8c0,22.4,20.9,33.6,42.9,33.6
			s39.8-13,39.8-29C93.6,241.1,91.6,236.1,88.2,231.8z"/>
		
			<linearGradient id="SVGID_14_" gradientUnits="userSpaceOnUse" x1="54.6684" y1="191.5208" x2="58.51" y2="145.4214" gradientTransform="matrix(1 0 0 -1 0 432.0004)">
			<stop  offset="0" style="stop-color:#8D633A"/>
			<stop  offset="1" style="stop-color:#412312"/>
		</linearGradient>
		<path class="st14" d="M88.2,231.8c0,0-2,23.8-28.9,26.3s-45.9-8.5-36.7-30.6s43.6-18.3,48-5.7c4.4,12.7-4.4,21.9-16.7,21.1
			c-15.6-0.9-18.6-17.3-5.7-19.6c8.2-1.5,8.7,5.6,3.5,6.1c-3.1,0.3-4.7,7.5,2.2,6.8c6.9-0.6,11.7-8.2,6-15.5
			c-5.7-7.3-21.1-6.3-27.1,3.2c-6,9.5,0.6,24.6,26.8,24.6S88.2,231.8,88.2,231.8z"/>
		
			<radialGradient id="SVGID_15_" cx="45.1179" cy="154.0539" r="50.7041" gradientTransform="matrix(1 0 0 -1 0 432.0004)" gradientUnits="userSpaceOnUse">
			<stop  offset="0" style="stop-color:#FDB82D"/>
			<stop  offset="0.4611" style="stop-color:#FDB62B"/>
			<stop  offset="0.6748" style="stop-color:#FCB022"/>
			<stop  offset="0.8373" style="stop-color:#FAA819"/>
			<stop  offset="0.9734" style="stop-color:#F59A1E"/>
			<stop  offset="1" style="stop-color:#F4961F"/>
		</radialGradient>
		<path class="st15" d="M87.1,283.1c-1.8-15-17.7-26.7-37-26.7c-20.5,0-40.2,12.2-40.2,36.8c0,22.4,20.9,33.6,42.9,33.6
			s39.8-13,39.8-29C92.6,292.4,90.6,287.4,87.1,283.1z"/>
		
			<linearGradient id="SVGID_16_" gradientUnits="userSpaceOnUse" x1="53.6081" y1="140.1592" x2="57.4497" y2="94.0598" gradientTransform="matrix(1 0 0 -1 0 432.0004)">
			<stop  offset="0" style="stop-color:#8D633A"/>
			<stop  offset="1" style="stop-color:#412312"/>
		</linearGradient>
		<path class="st16" d="M87.1,283.1c0,0-2,23.8-28.9,26.3s-45.9-8.5-36.7-30.6s43.6-18.3,48-5.7c4.4,12.7-4.4,21.9-16.7,21.1
			c-15.6-0.9-18.6-17.3-5.7-19.6c8.2-1.5,8.7,5.6,3.5,6.1c-3.1,0.3-4.7,7.5,2.2,6.8c6.9-0.6,11.7-8.2,6-15.5
			c-5.7-7.3-21.1-6.3-27.1,3.2c-6,9.5,0.6,24.6,26.8,24.6S87.1,283.1,87.1,283.1z"/>
		
			<radialGradient id="SVGID_17_" cx="119.6234" cy="204.967" r="50.7041" gradientTransform="matrix(1 0 0 -1 0 432.0004)" gradientUnits="userSpaceOnUse">
			<stop  offset="0" style="stop-color:#FDB82D"/>
			<stop  offset="0.4611" style="stop-color:#FDB62B"/>
			<stop  offset="0.6748" style="stop-color:#FCB022"/>
			<stop  offset="0.8373" style="stop-color:#FAA819"/>
			<stop  offset="0.9734" style="stop-color:#F59A1E"/>
			<stop  offset="1" style="stop-color:#F4961F"/>
		</radialGradient>
		<path class="st17" d="M161.6,232.2c-1.8-15-17.7-26.7-37-26.7c-20.5,0-40.2,12.2-40.2,36.8c0,22.4,20.9,33.6,42.9,33.6
			s39.8-13,39.8-29C167.1,241.5,165.1,236.5,161.6,232.2z"/>
		
			<linearGradient id="SVGID_18_" gradientUnits="userSpaceOnUse" x1="128.1136" y1="191.0723" x2="131.9552" y2="144.9729" gradientTransform="matrix(1 0 0 -1 0 432.0004)">
			<stop  offset="0" style="stop-color:#8D633A"/>
			<stop  offset="1" style="stop-color:#412312"/>
		</linearGradient>
		<path class="st18" d="M161.6,232.2c0,0-2,23.8-28.9,26.3s-45.9-8.5-36.7-30.6s43.6-18.3,48-5.7c4.4,12.7-4.4,21.9-16.7,21.1
			c-15.6-0.9-18.6-17.3-5.7-19.6c8.2-1.5,8.7,5.6,3.5,6.1c-3.1,0.3-4.7,7.5,2.2,6.8c6.9-0.6,11.7-8.2,6-15.5
			c-5.7-7.3-21.1-6.3-27.1,3.2c-6,9.5,0.6,24.6,26.8,24.6S161.6,232.2,161.6,232.2z"/>
		
			<radialGradient id="SVGID_19_" cx="118.5631" cy="153.6054" r="50.7041" gradientTransform="matrix(1 0 0 -1 0 432.0004)" gradientUnits="userSpaceOnUse">
			<stop  offset="0" style="stop-color:#FDB82D"/>
			<stop  offset="0.4611" style="stop-color:#FDB62B"/>
			<stop  offset="0.6748" style="stop-color:#FCB022"/>
			<stop  offset="0.8373" style="stop-color:#FAA819"/>
			<stop  offset="0.9734" style="stop-color:#F59A1E"/>
			<stop  offset="1" style="stop-color:#F4961F"/>
		</radialGradient>
		<path class="st19" d="M160.6,283.6c-1.8-15-17.7-26.7-37-26.7c-20.5,0-40.2,12.2-40.2,36.8c0,22.4,20.9,33.6,42.9,33.6
			s39.8-13,39.8-29C166,292.9,164,287.9,160.6,283.6z"/>
		
			<linearGradient id="SVGID_20_" gradientUnits="userSpaceOnUse" x1="127.0533" y1="139.7106" x2="130.895" y2="93.6112" gradientTransform="matrix(1 0 0 -1 0 432.0004)">
			<stop  offset="0" style="stop-color:#8D633A"/>
			<stop  offset="1" style="stop-color:#412312"/>
		</linearGradient>
		<path class="st20" d="M160.6,283.6c0,0-2,23.8-28.9,26.3s-45.9-8.5-36.7-30.6c9.2-22.1,43.6-18.3,48-5.7
			c4.4,12.7-4.4,21.9-16.7,21.1c-15.6-0.9-18.6-17.3-5.7-19.6c8.2-1.5,8.7,5.6,3.5,6.1c-3.1,0.3-4.7,7.5,2.2,6.8
			c6.9-0.6,11.7-8.2,6-15.5c-5.7-7.3-21.1-6.3-27.1,3.2c-6,9.5,0.6,24.6,26.8,24.6S160.6,283.6,160.6,283.6z"/>
		
			<radialGradient id="SVGID_21_" cx="192.4815" cy="204.5305" r="50.7041" gradientTransform="matrix(1 0 0 -1 0 432.0004)" gradientUnits="userSpaceOnUse">
			<stop  offset="0" style="stop-color:#FDB82D"/>
			<stop  offset="0.4611" style="stop-color:#FDB62B"/>
			<stop  offset="0.6748" style="stop-color:#FCB022"/>
			<stop  offset="0.8373" style="stop-color:#FAA819"/>
			<stop  offset="0.9734" style="stop-color:#F59A1E"/>
			<stop  offset="1" style="stop-color:#F4961F"/>
		</radialGradient>
		<path class="st21" d="M234.5,232.6c-1.8-15-17.7-26.7-37-26.7c-20.5,0-40.2,12.2-40.2,36.8c0,22.4,20.9,33.6,42.9,33.6
			s39.8-13,39.8-29C239.9,242,237.9,236.9,234.5,232.6z"/>
		
			<linearGradient id="SVGID_22_" gradientUnits="userSpaceOnUse" x1="200.9717" y1="190.6357" x2="204.8133" y2="144.5363" gradientTransform="matrix(1 0 0 -1 0 432.0004)">
			<stop  offset="0" style="stop-color:#8D633A"/>
			<stop  offset="1" style="stop-color:#412312"/>
		</linearGradient>
		<path class="st22" d="M234.5,232.6c0,0-2,23.8-28.9,26.3s-45.9-8.5-36.7-30.6s43.6-18.3,48-5.7c4.4,12.7-4.4,21.9-16.7,21.1
			c-15.6-0.9-18.6-17.3-5.7-19.6c8.2-1.5,8.7,5.6,3.5,6.1c-3.1,0.3-4.7,7.5,2.2,6.8c6.9-0.6,11.7-8.2,6-15.5
			c-5.7-7.3-21.1-6.3-27.1,3.2c-6,9.5,0.6,24.6,26.8,24.6S234.5,232.6,234.5,232.6z"/>
		
			<radialGradient id="SVGID_23_" cx="192.5194" cy="152.3888" r="50.7041" gradientTransform="matrix(1 0 0 -1 0 432.0004)" gradientUnits="userSpaceOnUse">
			<stop  offset="0" style="stop-color:#FDB82D"/>
			<stop  offset="0.4611" style="stop-color:#FDB62B"/>
			<stop  offset="0.6748" style="stop-color:#FCB022"/>
			<stop  offset="0.8373" style="stop-color:#FAA819"/>
			<stop  offset="0.9734" style="stop-color:#F59A1E"/>
			<stop  offset="1" style="stop-color:#F4961F"/>
		</radialGradient>
		<path class="st23" d="M234.5,284.8c-1.8-15-17.7-26.7-37-26.7c-20.5,0-40.2,12.2-40.2,36.8c0,22.4,20.9,33.6,42.9,33.6
			s39.8-13,39.8-29C240,294.1,238,289.1,234.5,284.8z"/>
		
			<linearGradient id="SVGID_24_" gradientUnits="userSpaceOnUse" x1="201.0096" y1="138.494" x2="204.8512" y2="92.3946" gradientTransform="matrix(1 0 0 -1 0 432.0004)">
			<stop  offset="0" style="stop-color:#8D633A"/>
			<stop  offset="1" style="stop-color:#412312"/>
		</linearGradient>
		<path class="st24" d="M234.5,284.8c0,0-2,23.8-28.9,26.3s-45.9-8.5-36.7-30.6c9.2-22.1,43.6-18.3,48-5.7
			c4.4,12.7-4.4,21.9-16.7,21.1c-15.6-0.9-18.6-17.3-5.7-19.6c8.2-1.5,8.7,5.6,3.5,6.1c-3.1,0.3-4.7,7.5,2.2,6.8
			c6.9-0.6,11.7-8.2,6-15.5c-5.7-7.3-21.1-6.3-27.1,3.2c-6,9.5,0.6,24.6,26.8,24.6S234.5,284.8,234.5,284.8z"/>
	</g>
</g>
</svg>
