<?xml version="1.0" encoding="utf-8"?>
<!-- Generator: Adobe Illustrator 21.0.0, SVG Export Plug-In . SVG Version: 6.00 Build 0)  -->
<svg version="1.1" id="레이어_1" xmlns="http://www.w3.org/2000/svg" xmlns:xlink="http://www.w3.org/1999/xlink" x="0px"
	 y="0px" viewBox="0 0 250 430" style="enable-background:new 0 0 250 430;" xml:space="preserve">
<style type="text/css">
	.st0{fill:#FFFFFF;}
	.st1{fill:url(#SVGID_1_);}
	.st2{fill:url(#SVGID_2_);}
	.st3{fill:url(#SVGID_3_);}
	.st4{fill:url(#SVGID_4_);}
	.st5{fill:url(#SVGID_5_);}
	.st6{fill:url(#SVGID_6_);}
	.st7{fill:url(#SVGID_7_);}
	.st8{fill:url(#SVGID_8_);}
	.st9{fill:url(#SVGID_9_);}
	.st10{fill:url(#SVGID_10_);}
	.st11{fill:url(#SVGID_11_);}
	.st12{fill:url(#SVGID_12_);}
</style>
<rect y="0" class="st0" width="250" height="430"/>
<g>
	
		<radialGradient id="SVGID_1_" cx="65.9203" cy="309.0465" r="70.794" gradientTransform="matrix(1 0 0 -1 0 432.0005)" gradientUnits="userSpaceOnUse">
		<stop  offset="0" style="stop-color:#FDB82D"/>
		<stop  offset="0.4611" style="stop-color:#FDB62B"/>
		<stop  offset="0.6748" style="stop-color:#FCB022"/>
		<stop  offset="0.8373" style="stop-color:#FAA819"/>
		<stop  offset="0.9734" style="stop-color:#F59A1E"/>
		<stop  offset="1" style="stop-color:#F4961F"/>
	</radialGradient>
	<path class="st1" d="M124.6,130.2c-2.5-20.9-24.7-37.3-51.7-37.3c-28.7,0-56.2,17-56.2,51.4c0,31.3,29.2,46.9,59.9,46.9
		s55.6-18.2,55.6-40.5C132.2,143.2,129.4,136.2,124.6,130.2z"/>
	
		<linearGradient id="SVGID_2_" gradientUnits="userSpaceOnUse" x1="77.7744" y1="289.6463" x2="83.1382" y2="225.2815" gradientTransform="matrix(1 0 0 -1 0 432.0005)">
		<stop  offset="0" style="stop-color:#8D633A"/>
		<stop  offset="1" style="stop-color:#412312"/>
	</linearGradient>
	<path class="st2" d="M124.6,130.2c0,0-2.8,33.3-40.3,36.8c-37.5,3.5-64-11.9-51.3-42.8s60.9-25.6,67-7.9
		c6.2,17.8-6.2,30.6-23.4,29.5c-21.8-1.3-25.9-24.1-7.9-27.3c11.4-2,12.2,7.8,4.8,8.5c-4.4,0.4-6.6,10.4,3.1,9.5
		c9.7-0.9,16.3-11.5,8.4-21.6c-7.9-10.1-29.5-8.8-37.9,4.4c-8.4,13.2,0.9,34.4,37.5,34.4S124.6,130.2,124.6,130.2z"/>
	
		<radialGradient id="SVGID_3_" cx="64.4399" cy="237.3344" r="70.794" gradientTransform="matrix(1 0 0 -1 0 432.0005)" gradientUnits="userSpaceOnUse">
		<stop  offset="0" style="stop-color:#FDB82D"/>
		<stop  offset="0.4611" style="stop-color:#FDB62B"/>
		<stop  offset="0.6748" style="stop-color:#FCB022"/>
		<stop  offset="0.8373" style="stop-color:#FAA819"/>
		<stop  offset="0.9734" style="stop-color:#F59A1E"/>
		<stop  offset="1" style="stop-color:#F4961F"/>
	</radialGradient>
	<path class="st3" d="M123.1,201.9c-2.5-20.9-24.7-37.3-51.7-37.3c-28.7,0-56.2,17-56.2,51.4c0,31.3,29.2,46.9,59.9,46.9
		s55.6-18.2,55.6-40.5C130.7,214.9,127.9,207.9,123.1,201.9z"/>
	
		<linearGradient id="SVGID_4_" gradientUnits="userSpaceOnUse" x1="76.2941" y1="217.9342" x2="81.6578" y2="153.5694" gradientTransform="matrix(1 0 0 -1 0 432.0005)">
		<stop  offset="0" style="stop-color:#8D633A"/>
		<stop  offset="1" style="stop-color:#412312"/>
	</linearGradient>
	<path class="st4" d="M123.1,201.9c0,0-2.8,33.3-40.3,36.8s-64-11.9-51.3-42.8s60.9-25.6,67-7.9c6.2,17.8-6.2,30.6-23.4,29.5
		c-21.8-1.3-25.9-24.1-7.9-27.3c11.4-2,12.2,7.8,4.8,8.5c-4.4,0.4-6.6,10.4,3.1,9.5c9.7-0.9,16.3-11.5,8.4-21.6
		c-7.9-10.1-29.5-8.8-37.9,4.4c-8.4,13.2,0.9,34.4,37.5,34.4S123.1,201.9,123.1,201.9z"/>
	
		<radialGradient id="SVGID_5_" cx="65.9732" cy="163.7769" r="70.794" gradientTransform="matrix(1 0 0 -1 0 432.0005)" gradientUnits="userSpaceOnUse">
		<stop  offset="0" style="stop-color:#FDB82D"/>
		<stop  offset="0.4611" style="stop-color:#FDB62B"/>
		<stop  offset="0.6748" style="stop-color:#FCB022"/>
		<stop  offset="0.8373" style="stop-color:#FAA819"/>
		<stop  offset="0.9734" style="stop-color:#F59A1E"/>
		<stop  offset="1" style="stop-color:#F4961F"/>
	</radialGradient>
	<path class="st5" d="M124.6,275.4c-2.5-20.9-24.7-37.3-51.7-37.3c-28.7,0-56.2,17-56.2,51.4c0,31.3,29.2,46.9,59.9,46.9
		s55.6-18.2,55.6-40.5C132.2,288.4,129.5,281.4,124.6,275.4z"/>
	
		<linearGradient id="SVGID_6_" gradientUnits="userSpaceOnUse" x1="77.8274" y1="144.3768" x2="83.1911" y2="80.0119" gradientTransform="matrix(1 0 0 -1 0 432.0005)">
		<stop  offset="0" style="stop-color:#8D633A"/>
		<stop  offset="1" style="stop-color:#412312"/>
	</linearGradient>
	<path class="st6" d="M124.6,275.4c0,0-2.8,33.3-40.3,36.8s-64-11.9-51.3-42.8s60.9-25.6,67-7.9c6.2,17.8-6.2,30.6-23.4,29.5
		c-21.8-1.3-25.9-24.1-7.9-27.3c11.4-2,12.2,7.8,4.8,8.5c-4.4,0.4-6.6,10.4,3.1,9.5c9.7-0.9,16.3-11.5,8.4-21.6
		c-7.9-10.1-29.5-8.8-37.9,4.4c-8.4,13.2,0.9,34.4,37.5,34.4S124.6,275.4,124.6,275.4z"/>
	
		<radialGradient id="SVGID_7_" cx="168.4658" cy="308.4202" r="70.794" gradientTransform="matrix(1 0 0 -1 0 432.0005)" gradientUnits="userSpaceOnUse">
		<stop  offset="0" style="stop-color:#FDB82D"/>
		<stop  offset="0.4611" style="stop-color:#FDB62B"/>
		<stop  offset="0.6748" style="stop-color:#FCB022"/>
		<stop  offset="0.8373" style="stop-color:#FAA819"/>
		<stop  offset="0.9734" style="stop-color:#F59A1E"/>
		<stop  offset="1" style="stop-color:#F4961F"/>
	</radialGradient>
	<path class="st7" d="M227.1,130.8c-2.5-20.9-24.7-37.3-51.7-37.3c-28.7,0-56.2,17-56.2,51.4c0,31.3,29.2,46.9,59.9,46.9
		s55.6-18.2,55.6-40.5C234.7,143.8,231.9,136.8,227.1,130.8z"/>
	
		<linearGradient id="SVGID_8_" gradientUnits="userSpaceOnUse" x1="180.32" y1="289.02" x2="185.6837" y2="224.6552" gradientTransform="matrix(1 0 0 -1 0 432.0005)">
		<stop  offset="0" style="stop-color:#8D633A"/>
		<stop  offset="1" style="stop-color:#412312"/>
	</linearGradient>
	<path class="st8" d="M227.1,130.8c0,0-2.8,33.3-40.3,36.8c-37.5,3.5-64-11.9-51.3-42.8c12.8-30.8,60.9-25.6,67-7.9
		c6.2,17.8-6.2,30.6-23.4,29.5c-21.8-1.3-25.9-24.1-7.9-27.3c11.4-2,12.2,7.8,4.8,8.5c-4.4,0.4-6.6,10.4,3.1,9.5
		c9.7-0.9,16.3-11.5,8.4-21.6c-7.9-10.1-29.5-8.8-37.9,4.4c-8.4,13.2,0.9,34.4,37.5,34.4S227.1,130.8,227.1,130.8z"/>
	
		<radialGradient id="SVGID_9_" cx="166.9855" cy="236.708" r="70.794" gradientTransform="matrix(1 0 0 -1 0 432.0005)" gradientUnits="userSpaceOnUse">
		<stop  offset="0" style="stop-color:#FDB82D"/>
		<stop  offset="0.4611" style="stop-color:#FDB62B"/>
		<stop  offset="0.6748" style="stop-color:#FCB022"/>
		<stop  offset="0.8373" style="stop-color:#FAA819"/>
		<stop  offset="0.9734" style="stop-color:#F59A1E"/>
		<stop  offset="1" style="stop-color:#F4961F"/>
	</radialGradient>
	<path class="st9" d="M225.6,202.5c-2.5-20.9-24.7-37.3-51.7-37.3c-28.7,0-56.2,17-56.2,51.4c0,31.3,29.2,46.9,59.9,46.9
		s55.6-18.2,55.6-40.5C233.2,215.5,230.5,208.5,225.6,202.5z"/>
	
		<linearGradient id="SVGID_10_" gradientUnits="userSpaceOnUse" x1="178.8396" y1="217.3079" x2="184.2034" y2="152.943" gradientTransform="matrix(1 0 0 -1 0 432.0005)">
		<stop  offset="0" style="stop-color:#8D633A"/>
		<stop  offset="1" style="stop-color:#412312"/>
	</linearGradient>
	<path class="st10" d="M225.6,202.5c0,0-2.8,33.3-40.3,36.8c-37.5,3.5-64-11.9-51.3-42.8s60.9-25.6,67-7.9
		c6.2,17.8-6.2,30.6-23.4,29.5c-21.8-1.3-25.9-24.1-7.9-27.3c11.4-2,12.2,7.8,4.8,8.5c-4.4,0.4-6.6,10.4,3.1,9.5
		c9.7-0.9,16.3-11.5,8.4-21.6c-7.9-10.1-29.5-8.8-37.9,4.4c-8.4,13.2,0.9,34.4,37.5,34.4S225.6,202.5,225.6,202.5z"/>
	
		<radialGradient id="SVGID_11_" cx="168.5188" cy="163.1506" r="70.794" gradientTransform="matrix(1 0 0 -1 0 432.0005)" gradientUnits="userSpaceOnUse">
		<stop  offset="0" style="stop-color:#FDB82D"/>
		<stop  offset="0.4611" style="stop-color:#FDB62B"/>
		<stop  offset="0.6748" style="stop-color:#FCB022"/>
		<stop  offset="0.8373" style="stop-color:#FAA819"/>
		<stop  offset="0.9734" style="stop-color:#F59A1E"/>
		<stop  offset="1" style="stop-color:#F4961F"/>
	</radialGradient>
	<path class="st11" d="M227.2,276.1c-2.5-20.9-24.7-37.3-51.7-37.3c-28.7,0-56.2,17-56.2,51.4c0,31.3,29.2,46.9,59.9,46.9
		s55.6-18.2,55.6-40.5C234.8,289.1,232,282.1,227.2,276.1z"/>
	
		<linearGradient id="SVGID_12_" gradientUnits="userSpaceOnUse" x1="180.3729" y1="143.7504" x2="185.7367" y2="79.3856" gradientTransform="matrix(1 0 0 -1 0 432.0005)">
		<stop  offset="0" style="stop-color:#8D633A"/>
		<stop  offset="1" style="stop-color:#412312"/>
	</linearGradient>
	<path class="st12" d="M227.2,276.1c0,0-2.8,33.3-40.3,36.8s-64-11.9-51.3-42.8s60.9-25.6,67-7.9c6.2,17.8-6.2,30.6-23.4,29.5
		c-21.8-1.3-25.9-24.1-7.9-27.3c11.4-2,12.2,7.8,4.8,8.5c-4.4,0.4-6.6,10.4,3.1,9.5c9.7-0.9,16.3-11.5,8.4-21.6
		c-7.9-10.1-29.5-8.8-37.9,4.4c-8.4,13.2,0.9,34.4,37.5,34.4S227.2,276.1,227.2,276.1z"/>
</g>
</svg>
