<svg width="478" height="112" viewBox="0 0 478 112" fill="none" xmlns="http://www.w3.org/2000/svg">
<path d="M468.066 14H467.363V6.3125L465.043 7.17383V6.51758L467.949 5.43945H468.066V14ZM474.723 14H474.02V6.3125L471.699 7.17383V6.51758L474.605 5.43945H474.723V14Z" fill="black"/>
<path d="M472.947 33.4434C472.947 34.6465 472.727 35.5605 472.285 36.1855C471.844 36.8066 471.193 37.1172 470.334 37.1172C469.49 37.1172 468.844 36.8125 468.395 36.2031C467.945 35.5898 467.715 34.6992 467.703 33.5312V32.002C467.703 30.8027 467.926 29.8945 468.371 29.2773C468.816 28.6602 469.467 28.3516 470.322 28.3516C471.166 28.3516 471.811 28.6504 472.256 29.248C472.701 29.8418 472.932 30.7188 472.947 31.8789V33.4434ZM472.244 31.9141C472.244 30.9375 472.084 30.1992 471.764 29.6992C471.447 29.1992 470.967 28.9492 470.322 28.9492C469.689 28.9492 469.213 29.1934 468.893 29.6816C468.572 30.1699 468.408 30.8906 468.4 31.8438V33.5195C468.4 34.4922 468.564 35.2363 468.893 35.752C469.225 36.2676 469.705 36.5254 470.334 36.5254C470.959 36.5254 471.432 36.2734 471.752 35.7695C472.076 35.2656 472.24 34.5273 472.244 33.5547V31.9141Z" fill="black"/>
<path d="M472.947 56.4434C472.947 57.6465 472.727 58.5605 472.285 59.1855C471.844 59.8066 471.193 60.1172 470.334 60.1172C469.49 60.1172 468.844 59.8125 468.395 59.2031C467.945 58.5898 467.715 57.6992 467.703 56.5312V55.002C467.703 53.8027 467.926 52.8945 468.371 52.2773C468.816 51.6602 469.467 51.3516 470.322 51.3516C471.166 51.3516 471.811 51.6504 472.256 52.248C472.701 52.8418 472.932 53.7188 472.947 54.8789V56.4434ZM472.244 54.9141C472.244 53.9375 472.084 53.1992 471.764 52.6992C471.447 52.1992 470.967 51.9492 470.322 51.9492C469.689 51.9492 469.213 52.1934 468.893 52.6816C468.572 53.1699 468.408 53.8906 468.4 54.8438V56.5195C468.4 57.4922 468.564 58.2363 468.893 58.752C469.225 59.2676 469.705 59.5254 470.334 59.5254C470.959 59.5254 471.432 59.2734 471.752 58.7695C472.076 58.2656 472.24 57.5273 472.244 56.5547V54.9141Z" fill="black"/>
<path d="M472.947 79.4434C472.947 80.6465 472.727 81.5605 472.285 82.1855C471.844 82.8066 471.193 83.1172 470.334 83.1172C469.49 83.1172 468.844 82.8125 468.395 82.2031C467.945 81.5898 467.715 80.6992 467.703 79.5312V78.002C467.703 76.8027 467.926 75.8945 468.371 75.2773C468.816 74.6602 469.467 74.3516 470.322 74.3516C471.166 74.3516 471.811 74.6504 472.256 75.248C472.701 75.8418 472.932 76.7188 472.947 77.8789V79.4434ZM472.244 77.9141C472.244 76.9375 472.084 76.1992 471.764 75.6992C471.447 75.1992 470.967 74.9492 470.322 74.9492C469.689 74.9492 469.213 75.1934 468.893 75.6816C468.572 76.1699 468.408 76.8906 468.4 77.8438V79.5195C468.4 80.4922 468.564 81.2363 468.893 81.752C469.225 82.2676 469.705 82.5254 470.334 82.5254C470.959 82.5254 471.432 82.2734 471.752 81.7695C472.076 81.2656 472.24 80.5273 472.244 79.5547V77.9141Z" fill="black"/>
<path d="M472.947 102.443C472.947 103.646 472.727 104.561 472.285 105.186C471.844 105.807 471.193 106.117 470.334 106.117C469.49 106.117 468.844 105.812 468.395 105.203C467.945 104.59 467.715 103.699 467.703 102.531V101.002C467.703 99.8027 467.926 98.8945 468.371 98.2773C468.816 97.6602 469.467 97.3516 470.322 97.3516C471.166 97.3516 471.811 97.6504 472.256 98.248C472.701 98.8418 472.932 99.7188 472.947 100.879V102.443ZM472.244 100.914C472.244 99.9375 472.084 99.1992 471.764 98.6992C471.447 98.1992 470.967 97.9492 470.322 97.9492C469.689 97.9492 469.213 98.1934 468.893 98.6816C468.572 99.1699 468.408 99.8906 468.4 100.844V102.52C468.4 103.492 468.564 104.236 468.893 104.752C469.225 105.268 469.705 105.525 470.334 105.525C470.959 105.525 471.432 105.273 471.752 104.77C472.076 104.266 472.24 103.527 472.244 102.555V100.914Z" fill="black"/>
<path d="M78.832 40.8867L80.0801 28.4062H92.877V30.3574H81.8906L80.9941 39.0059C82.3652 38.0684 83.9707 37.5996 85.8105 37.5996C88.1191 37.5996 89.959 38.3496 91.3301 39.8496C92.7012 41.3496 93.3867 43.3477 93.3867 45.8438C93.3867 48.5391 92.7188 50.6309 91.3828 52.1191C90.0469 53.6074 88.166 54.3516 85.7402 54.3516C83.5137 54.3516 81.709 53.7305 80.3262 52.4883C78.9434 51.2461 78.1523 49.5059 77.9531 47.2676H79.9746C80.1738 49.0137 80.7656 50.3379 81.75 51.2402C82.7344 52.1309 84.0645 52.5762 85.7402 52.5762C87.5684 52.5762 88.9453 51.9961 89.8711 50.8359C90.8086 49.6758 91.2773 48.0234 91.2773 45.8789C91.2773 44.0039 90.7559 42.4746 89.7129 41.291C88.6699 40.1074 87.2461 39.5156 85.4414 39.5156C84.4453 39.5156 83.5781 39.6445 82.8398 39.9023C82.1016 40.1484 81.3223 40.6348 80.502 41.3613L78.832 40.8867ZM97.5176 52.7344C97.5176 52.3242 97.6465 51.9785 97.9043 51.6973C98.1738 51.4043 98.543 51.2578 99.0117 51.2578C99.4805 51.2578 99.8496 51.4043 100.119 51.6973C100.389 51.9785 100.523 52.3242 100.523 52.7344C100.523 53.1445 100.389 53.4844 100.119 53.7539C99.8496 54.0117 99.4805 54.1406 99.0117 54.1406C98.543 54.1406 98.1738 54.0117 97.9043 53.7539C97.6465 53.4844 97.5176 53.1445 97.5176 52.7344ZM121.424 43.3301C121.424 46.9395 120.762 49.6816 119.438 51.5566C118.113 53.4199 116.162 54.3516 113.584 54.3516C111.053 54.3516 109.113 53.4375 107.766 51.6094C106.418 49.7695 105.727 47.0977 105.691 43.5938V39.0059C105.691 35.4082 106.359 32.6836 107.695 30.832C109.031 28.9805 110.982 28.0547 113.549 28.0547C116.08 28.0547 118.014 28.9512 119.35 30.7441C120.686 32.5254 121.377 35.1562 121.424 38.6367V43.3301ZM119.314 38.7422C119.314 35.8125 118.834 33.5977 117.873 32.0977C116.924 30.5977 115.482 29.8477 113.549 29.8477C111.65 29.8477 110.221 30.5801 109.26 32.0449C108.299 33.5098 107.807 35.6719 107.783 38.5312V43.5586C107.783 46.4766 108.275 48.709 109.26 50.2559C110.256 51.8027 111.697 52.5762 113.584 52.5762C115.459 52.5762 116.877 51.8203 117.838 50.3086C118.811 48.7969 119.303 46.582 119.314 43.6641V38.7422Z" fill="black"/>
<path d="M49.7143 69L52.3443 77.0944L60.8552 77.0944L53.9697 82.097L56.5998 90.1913L49.7143 85.1887L42.8288 90.1913L45.4588 82.097L38.5733 77.0944L47.0843 77.0944L49.7143 69Z" fill="#EFB74A"/>
<path d="M74.6069 69L77.2369 77.0944L85.7478 77.0944L78.8623 82.097L81.4923 90.1913L74.6069 85.1887L67.7214 90.1913L70.3514 82.097L63.4659 77.0944L71.9768 77.0944L74.6069 69Z" fill="#EFB74A"/>
<path d="M99.5004 69L102.13 77.0944L110.641 77.0944L103.756 82.097L106.386 90.1913L99.5004 85.1887L92.6149 90.1913L95.245 82.097L88.3595 77.0944L96.8704 77.0944L99.5004 69Z" fill="#EFB74A"/>
<path d="M124.393 69L127.023 77.0944L135.534 77.0944L128.648 82.097L131.278 90.1913L124.393 85.1887L117.508 90.1913L120.138 82.097L113.252 77.0944L121.763 77.0944L124.393 69Z" fill="#EFB74A"/>
<path d="M149.286 69L151.916 77.0944L160.427 77.0944L153.541 82.097L156.171 90.1913L149.286 85.1887L142.4 90.1913L145.03 82.097L138.145 77.0944L146.656 77.0944L149.286 69Z" fill="#EFB74A"/>
<path d="M238.333 2L239.98 7.06721L245.308 7.06721L240.997 10.1989L242.644 15.2661L238.333 12.1344L234.023 15.2661L235.669 10.1989L231.359 7.06721L236.687 7.06721L238.333 2Z" fill="#FCCD72"/>
<path d="M253.917 2L255.564 7.06721L260.892 7.06721L256.581 10.1989L258.228 15.2661L253.917 12.1344L249.607 15.2661L251.253 10.1989L246.943 7.06721L252.271 7.06721L253.917 2Z" fill="#FCCD72"/>
<path d="M269.499 2L271.146 7.06721L276.474 7.06721L272.163 10.1989L273.81 15.2661L269.499 12.1344L265.189 15.2661L266.835 10.1989L262.525 7.06721L267.853 7.06721L269.499 2Z" fill="#FCCD72"/>
<path d="M285.083 2L286.73 7.06721L292.058 7.06721L287.747 10.1989L289.394 15.2661L285.083 12.1344L280.773 15.2661L282.419 10.1989L278.109 7.06721L283.437 7.06721L285.083 2Z" fill="#FCCD72"/>
<path d="M300.667 2L302.314 7.06721L307.642 7.06721L303.331 10.1989L304.978 15.2661L300.667 12.1344L296.357 15.2661L298.003 10.1989L293.693 7.06721L299.021 7.06721L300.667 2Z" fill="#FCCD72"/>
<path d="M238.333 25L239.98 30.0672L245.308 30.0672L240.997 33.1989L242.644 38.2661L238.333 35.1344L234.023 38.2661L235.669 33.1989L231.359 30.0672L236.687 30.0672L238.333 25Z" fill="#FCCD72"/>
<path d="M253.917 25L255.564 30.0672L260.892 30.0672L256.581 33.1989L258.228 38.2661L253.917 35.1344L249.607 38.2661L251.253 33.1989L246.943 30.0672L252.271 30.0672L253.917 25Z" fill="#FCCD72"/>
<path d="M269.499 25L271.146 30.0672L276.474 30.0672L272.163 33.1989L273.81 38.2661L269.499 35.1344L265.189 38.2661L266.835 33.1989L262.525 30.0672L267.853 30.0672L269.499 25Z" fill="#FCCD72"/>
<path d="M285.083 25L286.73 30.0672L292.058 30.0672L287.747 33.1989L289.394 38.2661L285.083 35.1344L280.773 38.2661L282.419 33.1989L278.109 30.0672L283.437 30.0672L285.083 25Z" fill="#FCCD72"/>
<path d="M300.667 26.618L301.838 30.2217L301.95 30.5672H302.314L306.103 30.5672L303.037 32.7944L302.744 33.0079L302.856 33.3534L304.027 36.9571L300.961 34.7299L300.667 34.5164L300.373 34.7299L297.308 36.9571L298.479 33.3534L298.591 33.0079L298.297 32.7944L295.232 30.5672L299.021 30.5672H299.384L299.496 30.2217L300.667 26.618Z" fill="#FFFDFA" stroke="#FCCD72"/>
<path d="M238.333 48L239.98 53.0672L245.308 53.0672L240.997 56.1989L242.644 61.2661L238.333 58.1344L234.023 61.2661L235.669 56.1989L231.359 53.0672L236.687 53.0672L238.333 48Z" fill="#FCCD72"/>
<path d="M253.917 48L255.564 53.0672L260.892 53.0672L256.581 56.1989L258.228 61.2661L253.917 58.1344L249.607 61.2661L251.253 56.1989L246.943 53.0672L252.271 53.0672L253.917 48Z" fill="#FCCD72"/>
<path d="M269.499 48L271.146 53.0672L276.474 53.0672L272.163 56.1989L273.81 61.2661L269.499 58.1344L265.189 61.2661L266.835 56.1989L262.525 53.0672L267.853 53.0672L269.499 48Z" fill="#FCCD72"/>
<path d="M285.083 49.618L286.254 53.2217L286.367 53.5672H286.73L290.519 53.5672L287.453 55.7944L287.16 56.0079L287.272 56.3534L288.443 59.9571L285.377 57.7299L285.083 57.5164L284.789 57.7299L281.724 59.9571L282.895 56.3534L283.007 56.0079L282.713 55.7944L279.648 53.5672L283.437 53.5672H283.8L283.912 53.2217L285.083 49.618Z" fill="#FFFDFA" stroke="#FCCD72"/>
<path d="M300.667 49.618L301.838 53.2217L301.95 53.5672H302.314L306.103 53.5672L303.037 55.7944L302.744 56.0079L302.856 56.3534L304.027 59.9571L300.961 57.7299L300.667 57.5164L300.373 57.7299L297.308 59.9571L298.479 56.3534L298.591 56.0079L298.297 55.7944L295.232 53.5672L299.021 53.5672H299.384L299.496 53.2217L300.667 49.618Z" fill="#FFFDFA" stroke="#FCCD72"/>
<path d="M238.333 71L239.98 76.0672L245.308 76.0672L240.997 79.1989L242.644 84.2661L238.333 81.1344L234.023 84.2661L235.669 79.1989L231.359 76.0672L236.687 76.0672L238.333 71Z" fill="#FCCD72"/>
<path d="M253.917 71L255.564 76.0672L260.892 76.0672L256.581 79.1989L258.228 84.2661L253.917 81.1344L249.607 84.2661L251.253 79.1989L246.943 76.0672L252.271 76.0672L253.917 71Z" fill="#FCCD72"/>
<path d="M269.499 72.618L270.67 76.2217L270.783 76.5672H271.146L274.935 76.5672L271.869 78.7944L271.576 79.0079L271.688 79.3534L272.859 82.9571L269.793 80.7299L269.499 80.5164L269.205 80.7299L266.14 82.9571L267.311 79.3534L267.423 79.0079L267.129 78.7944L264.064 76.5672L267.853 76.5672H268.216L268.328 76.2217L269.499 72.618Z" fill="#FFFDFA" stroke="#FCCD72"/>
<path d="M285.083 72.618L286.254 76.2217L286.367 76.5672H286.73L290.519 76.5672L287.453 78.7944L287.16 79.0079L287.272 79.3534L288.443 82.9571L285.377 80.7299L285.083 80.5164L284.789 80.7299L281.724 82.9571L282.895 79.3534L283.007 79.0079L282.713 78.7944L279.648 76.5672L283.437 76.5672H283.8L283.912 76.2217L285.083 72.618Z" fill="#FFFDFA" stroke="#FCCD72"/>
<path d="M300.667 72.618L301.838 76.2217L301.95 76.5672H302.314L306.103 76.5672L303.037 78.7944L302.744 79.0079L302.856 79.3534L304.027 82.9571L300.961 80.7299L300.667 80.5164L300.373 80.7299L297.308 82.9571L298.479 79.3534L298.591 79.0079L298.297 78.7944L295.232 76.5672L299.021 76.5672H299.384L299.496 76.2217L300.667 72.618Z" fill="#FFFDFA" stroke="#FCCD72"/>
<path d="M238.333 94L239.98 99.0672L245.308 99.0672L240.997 102.199L242.644 107.266L238.333 104.134L234.023 107.266L235.669 102.199L231.359 99.0672L236.687 99.0672L238.333 94Z" fill="#FCCD72"/>
<path d="M253.917 95.618L255.088 99.2217L255.2 99.5672H255.564L259.353 99.5672L256.287 101.794L255.994 102.008L256.106 102.353L257.277 105.957L254.211 103.73L253.917 103.516L253.623 103.73L250.558 105.957L251.729 102.353L251.841 102.008L251.547 101.794L248.482 99.5672L252.271 99.5672H252.634L252.746 99.2217L253.917 95.618Z" fill="#FFFDFA" stroke="#FCCD72"/>
<path d="M269.499 95.618L270.67 99.2217L270.783 99.5672H271.146L274.935 99.5672L271.869 101.794L271.576 102.008L271.688 102.353L272.859 105.957L269.793 103.73L269.499 103.516L269.205 103.73L266.14 105.957L267.311 102.353L267.423 102.008L267.129 101.794L264.064 99.5672L267.853 99.5672H268.216L268.328 99.2217L269.499 95.618Z" fill="#FFFDFA" stroke="#FCCD72"/>
<path d="M285.083 95.618L286.254 99.2217L286.367 99.5672H286.73L290.519 99.5672L287.453 101.794L287.16 102.008L287.272 102.353L288.443 105.957L285.377 103.73L285.083 103.516L284.789 103.73L281.724 105.957L282.895 102.353L283.007 102.008L282.713 101.794L279.648 99.5672L283.437 99.5672H283.8L283.912 99.2217L285.083 95.618Z" fill="#FFFDFA" stroke="#FCCD72"/>
<path d="M300.667 95.618L301.838 99.2217L301.95 99.5672H302.314L306.103 99.5672L303.037 101.794L302.744 102.008L302.856 102.353L304.027 105.957L300.961 103.73L300.667 103.516L300.373 103.73L297.308 105.957L298.479 102.353L298.591 102.008L298.297 101.794L295.232 99.5672L299.021 99.5672H299.384L299.496 99.2217L300.667 95.618Z" fill="#FFFDFA" stroke="#FCCD72"/>
<rect x="328" y="2" width="129" height="15" fill="#FCCD72"/>
<rect x="328" y="25" width="129" height="15" fill="#ECECEC"/>
<rect x="328" y="48" width="129" height="15" fill="#ECECEC"/>
<rect x="328" y="71" width="129" height="15" fill="#ECECEC"/>
<rect x="328" y="94" width="129" height="15" fill="#ECECEC"/>
<line x1="209.5" y1="2.18557e-08" x2="209.5" y2="112" stroke="#ECECEC"/>
<line x1="0.5" y1="2.18557e-08" x2="0.499995" y2="112" stroke="#ECECEC"/>
</svg>
