<svg width="157" height="16" viewBox="0 0 157 16" fill="none" xmlns="http://www.w3.org/2000/svg">
<path d="M8 0L9.79611 5.52786H15.6085L10.9062 8.94427L12.7023 14.4721L8 11.0557L3.29772 14.4721L5.09383 8.94427L0.391548 5.52786H6.20389L8 0Z" fill="#EFB74A"/>
<path d="M25 0L26.7961 5.52786H32.6085L27.9062 8.94427L29.7023 14.4721L25 11.0557L20.2977 14.4721L22.0938 8.94427L17.3915 5.52786H23.2039L25 0Z" fill="#EFB74A"/>
<path d="M42 0L43.7961 5.52786H49.6085L44.9062 8.94427L46.7023 14.4721L42 11.0557L37.2977 14.4721L39.0938 8.94427L34.3915 5.52786H40.2039L42 0Z" fill="#EFB74A"/>
<path d="M59 0L60.7961 5.52786H66.6085L61.9062 8.94427L63.7023 14.4721L59 11.0557L54.2977 14.4721L56.0938 8.94427L51.3915 5.52786H57.2039L59 0Z" fill="#EFB74A"/>
<path d="M76 0L77.7961 5.52786H83.6085L78.9062 8.94427L80.7023 14.4721L76 11.0557L71.2977 14.4721L73.0938 8.94427L68.3915 5.52786H74.2039L76 0Z" fill="#EFB74A"/>
<path d="M95.7441 13H94.9238V4.03125L92.2168 5.03613V4.27051L95.6074 3.0127H95.7441V13ZM103.51 13H102.689V4.03125L99.9824 5.03613V4.27051L103.373 3.0127H103.51V13ZM114.42 6.30078C114.247 6.26888 114.062 6.25293 113.866 6.25293C113.356 6.25293 112.923 6.39648 112.567 6.68359C112.216 6.96615 111.966 7.37858 111.815 7.9209V13H111.002V5.60352H111.802L111.815 6.7793C112.248 5.9043 112.943 5.4668 113.9 5.4668C114.128 5.4668 114.308 5.49642 114.44 5.55566L114.42 6.30078ZM118.446 13.1367C117.817 13.1367 117.248 12.9818 116.737 12.6719C116.231 12.362 115.837 11.9313 115.555 11.3799C115.272 10.8239 115.131 10.2018 115.131 9.51367V9.21973C115.131 8.50879 115.268 7.86849 115.541 7.29883C115.819 6.72917 116.204 6.28255 116.696 5.95898C117.188 5.63086 117.722 5.4668 118.296 5.4668C119.194 5.4668 119.905 5.77441 120.429 6.38965C120.957 7.00033 121.222 7.83659 121.222 8.89844V9.35645H115.944V9.51367C115.944 10.3522 116.184 11.0518 116.662 11.6123C117.145 12.1683 117.751 12.4463 118.48 12.4463C118.918 12.4463 119.303 12.3665 119.636 12.207C119.973 12.0475 120.278 11.7923 120.552 11.4414L121.064 11.8311C120.463 12.7015 119.59 13.1367 118.446 13.1367ZM118.296 6.16406C117.681 6.16406 117.161 6.38965 116.737 6.84082C116.318 7.29199 116.063 7.89811 115.972 8.65918H120.408V8.57031C120.385 7.85938 120.183 7.2806 119.8 6.83398C119.417 6.38737 118.916 6.16406 118.296 6.16406ZM125.022 11.8721L127.271 5.60352H128.112L125.351 13H124.688L121.912 5.60352H122.753L125.022 11.8721ZM130.375 13H129.555V5.60352H130.375V13ZM129.411 3.46387C129.411 3.30892 129.461 3.17904 129.562 3.07422C129.662 2.96484 129.799 2.91016 129.972 2.91016C130.145 2.91016 130.282 2.96484 130.382 3.07422C130.487 3.17904 130.539 3.30892 130.539 3.46387C130.539 3.61882 130.487 3.7487 130.382 3.85352C130.282 3.95833 130.145 4.01074 129.972 4.01074C129.799 4.01074 129.662 3.95833 129.562 3.85352C129.461 3.7487 129.411 3.61882 129.411 3.46387ZM135.468 13.1367C134.839 13.1367 134.269 12.9818 133.759 12.6719C133.253 12.362 132.859 11.9313 132.576 11.3799C132.294 10.8239 132.152 10.2018 132.152 9.51367V9.21973C132.152 8.50879 132.289 7.86849 132.562 7.29883C132.84 6.72917 133.226 6.28255 133.718 5.95898C134.21 5.63086 134.743 5.4668 135.317 5.4668C136.215 5.4668 136.926 5.77441 137.45 6.38965C137.979 7.00033 138.243 7.83659 138.243 8.89844V9.35645H132.966V9.51367C132.966 10.3522 133.205 11.0518 133.684 11.6123C134.167 12.1683 134.773 12.4463 135.502 12.4463C135.939 12.4463 136.325 12.3665 136.657 12.207C136.994 12.0475 137.3 11.7923 137.573 11.4414L138.086 11.8311C137.484 12.7015 136.612 13.1367 135.468 13.1367ZM135.317 6.16406C134.702 6.16406 134.183 6.38965 133.759 6.84082C133.34 7.29199 133.084 7.89811 132.993 8.65918H137.43V8.57031C137.407 7.85938 137.204 7.2806 136.821 6.83398C136.438 6.38737 135.937 6.16406 135.317 6.16406ZM141.606 11.2979L141.729 11.9336L141.894 11.2637L143.671 5.60352H144.368L146.125 11.2158L146.316 11.9951L146.474 11.2773L147.991 5.60352H148.839L146.686 13H145.988L144.088 7.13477L143.999 6.73145L143.91 7.1416L142.044 13H141.347L139.2 5.60352H140.041L141.606 11.2979ZM154.82 11.1201C154.82 10.7145 154.656 10.3887 154.328 10.1426C154.005 9.89648 153.515 9.70508 152.858 9.56836C152.202 9.42708 151.692 9.26758 151.327 9.08984C150.967 8.90755 150.698 8.68652 150.521 8.42676C150.347 8.16699 150.261 7.85254 150.261 7.4834C150.261 6.90007 150.505 6.41927 150.992 6.04102C151.48 5.6582 152.104 5.4668 152.865 5.4668C153.69 5.4668 154.351 5.67188 154.848 6.08203C155.349 6.48763 155.6 7.01855 155.6 7.6748H154.779C154.779 7.24186 154.597 6.88184 154.232 6.59473C153.872 6.30762 153.417 6.16406 152.865 6.16406C152.327 6.16406 151.895 6.28483 151.566 6.52637C151.243 6.76335 151.081 7.07324 151.081 7.45605C151.081 7.8252 151.215 8.1123 151.484 8.31738C151.758 8.5179 152.252 8.70247 152.968 8.87109C153.688 9.03971 154.226 9.21973 154.581 9.41113C154.941 9.60254 155.208 9.83268 155.381 10.1016C155.554 10.3704 155.641 10.6963 155.641 11.0791C155.641 11.7035 155.388 12.2025 154.882 12.5762C154.381 12.9499 153.724 13.1367 152.913 13.1367C152.052 13.1367 151.352 12.9294 150.814 12.5146C150.281 12.0954 150.015 11.5667 150.015 10.9287H150.835C150.867 11.4072 151.067 11.7809 151.437 12.0498C151.81 12.3141 152.302 12.4463 152.913 12.4463C153.483 12.4463 153.943 12.321 154.294 12.0703C154.645 11.8197 154.82 11.5029 154.82 11.1201Z" fill="black"/>
</svg>
