<svg width="259" height="53" viewBox="0 0 259 53" fill="none" xmlns="http://www.w3.org/2000/svg">
<g clip-path="url(#clip0)">
<path d="M26.1089 0C11.6968 0 0 11.6968 0 26.1089C0 40.521 11.6968 52.2177 26.1089 52.2177C40.521 52.2177 52.2177 40.521 52.2177 26.1089C52.2177 11.6968 40.521 0 26.1089 0ZM29.7641 19.2683C31.5917 19.2683 33.5238 19.2161 35.3514 19.3206C35.2992 21.2526 35.3514 23.2891 35.2992 25.2212C33.4716 25.2212 31.5917 25.2212 29.7641 25.2212C29.7641 31.3306 29.7641 37.3879 29.7641 43.4974C27.1532 43.4974 24.5423 43.4974 21.9315 43.4974C21.9315 37.3879 21.9315 31.3306 21.9315 25.2212C20.3127 25.169 18.5895 25.2212 16.9186 25.169C16.9186 23.1847 16.9186 21.2004 16.9186 19.2161C18.5895 19.2161 20.2605 19.2161 21.8792 19.2161C21.9315 17.6496 21.8792 16.2397 21.9837 14.9865C22.0881 13.7333 22.5058 12.6889 23.0802 11.8012C24.229 10.1302 26.1089 8.77258 28.6675 8.66815C30.7563 8.56371 33.106 8.72036 35.3514 8.72036C35.3514 10.7046 35.4036 12.7411 35.2992 14.6732C34.2026 14.7254 33.0538 14.5688 32.1139 14.6732C31.1218 14.7776 30.3907 15.352 30.0774 16.0831C29.6075 16.9708 29.7641 18.0673 29.7641 19.2683Z" fill="white"/>
</g>
<g clip-path="url(#clip1)">
<path d="M95.0886 30.4951C97.2296 30.4951 99.1616 28.7197 99.2661 26.5265C99.4227 23.6023 96.9163 21.7747 94.4098 22.088C92.5822 22.3491 91.2245 23.6023 90.859 25.43C90.2846 28.3019 92.7388 30.4951 95.0886 30.4951Z" fill="white"/>
<path d="M106.159 13.8899H102.869C102.399 13.8899 102.034 14.2554 102.034 14.7254V18.0151C102.034 18.4851 102.399 18.8506 102.869 18.8506H106.159C106.629 18.8506 106.994 18.4851 106.994 18.0151V14.7254C107.047 14.2554 106.629 13.8899 106.159 13.8899Z" fill="white"/>
<path d="M95.0364 0C80.6243 0 68.9275 11.6968 68.9275 26.1089C68.9275 40.521 80.6243 52.2177 95.0364 52.2177C109.448 52.2177 121.145 40.521 121.145 26.1089C121.145 11.6968 109.448 0 95.0364 0ZM109.71 34.046C109.71 36.0302 109.344 37.5446 108.3 38.7456C107.36 39.7899 106.107 40.6776 104.331 40.8343C101.407 41.0431 98.2739 40.8343 95.1408 40.8343C92.1644 40.8343 88.9791 41.0431 85.9505 40.8343C82.9741 40.6254 80.6765 38.4323 80.4676 35.3514C80.1543 31.2784 80.6765 26.4744 80.4676 22.0881C80.4676 21.9837 80.5198 21.8792 80.6243 21.8792C83.3918 21.8792 86.1071 21.8792 88.8747 21.8792C89.1358 22.0359 88.6658 22.4014 88.5091 22.6625C87.9347 23.7069 87.517 25.2734 87.6737 26.9966C87.8825 30.4429 90.8067 33.4194 94.5142 33.6804C97.2295 33.8893 99.4227 32.5839 100.78 30.9129C102.034 29.3986 103.078 26.7355 102.138 23.9157C102.034 23.5502 101.825 23.1847 101.616 22.8714C101.459 22.5581 101.198 22.2448 101.198 21.8792C104.018 21.8792 106.785 21.8792 109.605 21.8792C109.762 26.1611 109.71 30.0774 109.71 34.046ZM89.2924 26.37C89.2402 24.4901 90.1279 22.9758 91.0156 22.0881C91.9033 21.2004 92.9999 20.626 94.7231 20.5216C97.9083 20.3127 100.519 22.5581 100.833 25.4823C101.146 28.7198 98.9005 31.5917 95.9763 31.9573C95.4541 32.0095 94.7231 32.0095 94.2009 31.9573C91.6422 31.6962 89.3446 29.3464 89.2924 26.37ZM109.71 21.0438C107.36 21.0438 105.219 21.0438 102.817 21.0438C102.086 21.0438 101.198 21.2004 100.519 21.0438C100.101 20.9393 99.8926 20.5216 99.5271 20.2605C98.3783 19.425 96.6029 18.694 94.4097 18.8506C92.791 18.955 91.6944 19.5294 90.6501 20.3649C90.389 20.5738 89.9712 20.9915 89.6579 21.096C89.0313 21.2526 88.0914 21.096 87.3081 21.096C85.0628 21.096 82.8696 21.096 80.4676 21.096C80.572 19.3728 80.2587 17.7018 80.5198 16.2397C80.8331 14.5165 81.8775 13.3155 82.9218 12.5845C82.9218 14.621 82.9218 18.694 82.9218 18.694H84.0706C84.0706 18.694 83.9662 13.9944 84.1229 11.8534C84.2795 11.6968 84.645 11.749 84.8539 11.5923C85.0106 13.7855 85.0106 18.694 85.0106 18.694H86.1593C86.1593 18.694 86.1593 13.9944 86.1593 11.6446C86.1593 11.5401 86.1593 11.4357 86.2116 11.4357C86.4727 11.4357 86.6815 11.4357 86.9426 11.4357C86.9426 13.8377 86.9426 18.694 86.9426 18.694H88.1436C88.1436 18.694 88.1436 13.8377 88.1436 11.4357C93.0521 11.6968 99.3704 11.1224 104.174 11.4357C106.054 11.5401 107.621 12.48 108.509 13.6288C109.814 15.2998 109.762 17.754 109.71 21.0438Z" fill="white"/>
</g>
<g clip-path="url(#clip2)">
<path d="M163.964 0C149.552 0 137.855 11.6968 137.855 26.1089C137.855 40.521 149.552 52.2177 163.964 52.2177C178.376 52.2177 190.072 40.521 190.072 26.1089C190.072 11.6968 178.376 0 163.964 0ZM177.906 19.0073C178.062 23.7591 176.705 27.571 174.929 30.5474C173.206 33.4716 170.856 35.8214 168.037 37.4923C165.217 39.2155 161.457 40.4688 157.019 40.3121C152.893 40.2077 149.604 39.0067 146.941 37.3879C146.784 37.2835 146.575 37.179 146.471 37.0224C151.066 37.5446 154.564 36.0302 157.071 34.0982C155.243 34.046 153.833 33.4194 152.789 32.5317C151.745 31.6962 150.857 30.5474 150.387 29.0853C151.327 29.2942 152.685 29.2419 153.52 28.9808C151.797 28.6153 150.544 27.6754 149.552 26.5266C148.559 25.43 147.881 23.9157 147.881 21.827C147.933 21.7226 148.089 21.8792 148.194 21.9315C148.977 22.297 149.969 22.6103 151.066 22.6625C149.29 21.4093 147.515 19.0073 148.037 15.6131C148.194 14.621 148.507 13.7855 148.925 13.0544C149.395 13.5244 149.813 14.0466 150.283 14.5165C153.52 17.754 157.697 20.1038 163.755 20.5738C162.919 16.8663 164.851 14.0988 167.201 12.7411C168.507 12.0101 170.334 11.6446 172.11 12.0101C173.728 12.3234 174.982 13.1589 175.921 14.0988C177.697 13.7855 179.107 13.1067 180.464 12.3756C179.838 14.0988 178.846 15.4565 177.331 16.2919C178.793 16.1875 180.203 15.6653 181.404 15.1954C180.517 16.7097 179.263 17.9107 177.906 19.0073Z" fill="white"/>
</g>
<g clip-path="url(#clip3)">
<path d="M226.834 28.9809C226.834 28.302 226.834 27.6754 226.834 26.9966C224.849 26.9966 222.865 26.9966 220.933 26.9966C220.881 26.9966 220.933 27.0488 220.933 27.0488C220.933 27.6754 220.933 28.302 220.933 28.9286C221.612 28.9286 222.343 28.8764 222.917 28.9286C222.917 32.4794 222.917 36.0825 222.917 39.6333C223.544 39.6333 224.223 39.6333 224.849 39.6333C224.849 36.0825 224.797 32.4272 224.849 28.8764C225.528 28.9809 226.155 28.9809 226.834 28.9809Z" fill="white"/>
<path d="M230.019 36.3957C230.019 36.709 230.071 37.0745 230.019 37.2834C229.967 37.5445 229.288 38.0667 228.922 38.0145C228.4 37.9622 228.557 36.9179 228.557 36.3435C228.557 34.2548 228.557 32.2705 228.557 30.234C227.983 30.234 227.408 30.234 226.886 30.234C226.834 30.234 226.886 30.2862 226.886 30.2862C226.886 32.3227 226.886 34.9858 226.886 37.2312C226.886 38.0667 226.834 38.8499 227.147 39.2677C227.774 40.2076 229.236 39.4243 229.706 38.9544C229.81 38.8499 229.915 38.6933 230.071 38.6411C230.071 38.9544 230.071 39.3199 230.071 39.6332C230.646 39.6332 231.22 39.6332 231.794 39.6332C231.794 36.5001 231.794 33.3671 231.794 30.234C231.22 30.234 230.646 30.234 230.071 30.234C230.019 32.2183 230.019 34.4636 230.019 36.3957Z" fill="white"/>
<path d="M231.011 18.5895C231.011 19.0072 230.959 19.7383 231.116 19.9994C231.429 20.4693 232.264 20.2605 232.421 19.8427C232.578 19.4772 232.473 18.8506 232.473 18.4328C232.473 17.2841 232.473 16.6052 232.473 15.5087C232.473 14.9865 232.578 14.3599 232.421 14.0988C232.264 13.7855 231.847 13.7332 231.586 13.7855C230.855 13.8899 231.011 14.8298 231.011 15.6131C231.011 16.3964 231.011 17.754 231.011 18.5895Z" fill="white"/>
<path d="M232.891 0C218.479 0 206.782 11.6968 206.782 26.1089C206.782 40.521 218.479 52.2177 232.891 52.2177C247.303 52.2177 259 40.521 259 26.1089C259 11.6968 247.303 0 232.891 0ZM235.711 17.1796C235.711 15.4565 235.711 13.8377 235.711 12.3756C236.233 12.3234 236.912 12.3234 237.434 12.3756C237.434 13.5244 237.434 14.7254 237.434 15.9786C237.434 17.2319 237.33 18.5373 237.434 19.6339C237.538 20.2605 238.008 20.2083 238.426 19.895C238.583 19.7905 238.844 19.5817 238.896 19.425C238.948 19.2161 238.896 18.7984 238.896 18.5373C238.896 16.6052 238.896 14.3077 238.896 12.4278C239.418 12.3756 240.097 12.3756 240.619 12.4278C240.619 15.5087 240.619 18.5895 240.619 21.6704C240.097 21.7226 239.418 21.7226 238.896 21.6704C238.896 21.3571 238.896 21.0438 238.896 20.7304C238.478 21.2004 237.121 22.4014 236.181 21.6181C235.45 20.9393 235.711 18.5373 235.711 17.1796ZM231.429 12.1145C232.682 12.0101 233.518 12.48 233.935 13.2111C234.405 13.9944 234.249 15.7698 234.249 16.9186C234.249 18.0673 234.353 19.895 233.988 20.6782C233.413 21.7748 231.586 22.297 230.385 21.5137C229.758 21.1482 229.34 20.4171 229.288 19.6339C229.184 18.7984 229.288 17.8063 229.288 16.8663C229.288 15.4565 229.131 14.0466 229.549 13.2633C229.862 12.6889 230.489 12.219 231.429 12.1145ZM222.813 9.08589C223.387 9.03367 224.119 9.08589 224.745 9.08589C225.163 10.548 225.528 12.0623 225.894 13.5244C225.946 13.7333 225.946 13.9421 226.103 14.0988C226.259 13.9421 226.259 13.681 226.312 13.5244C226.677 12.0623 227.043 10.4958 227.408 9.08589C228.035 9.08589 228.661 9.08589 229.34 9.08589C228.766 11.1746 228.035 13.3677 227.408 15.5087C227.304 15.822 227.147 16.1353 227.147 16.4486C227.095 16.8663 227.147 17.3363 227.147 17.754C227.147 19.1117 227.147 20.3649 227.147 21.6704C226.521 21.6704 225.842 21.7226 225.215 21.6704C225.215 20.8349 225.215 19.9994 225.215 19.2161C225.215 18.3806 225.32 17.5452 225.215 16.7619C225.163 16.4486 225.006 16.1353 224.954 15.822C224.171 13.5244 223.544 11.2268 222.813 9.08589ZM246.99 38.5889C246.99 41.1476 244.953 43.1841 242.395 43.1841H223.335C220.777 43.1841 218.74 41.1476 218.74 38.5889V28.7198C218.74 26.1611 220.777 24.1246 223.335 24.1246H242.395C244.953 24.1246 246.99 26.1611 246.99 28.7198V38.5889Z" fill="white"/>
<path d="M238.374 35.1948C238.374 34.0982 238.426 33.0016 238.374 32.2706C238.322 31.4873 238.113 30.8085 237.695 30.4952C237.121 30.0252 236.233 30.1296 235.711 30.4952C235.502 30.6518 235.345 30.8607 235.137 30.9651C235.137 29.6597 235.137 28.302 235.137 26.9966C234.562 26.9966 233.988 26.9966 233.413 26.9966C233.361 26.9966 233.413 27.0488 233.413 27.0488C233.413 31.2784 233.413 35.4558 233.413 39.6855C233.988 39.6855 234.562 39.6855 235.137 39.6855C235.137 39.4766 235.137 39.2155 235.137 39.0067C235.606 39.581 236.651 40.051 237.539 39.6333C238.009 39.3722 238.322 38.7978 238.374 38.119C238.426 37.2835 238.374 36.2391 238.374 35.1948ZM236.338 38.3278C235.92 38.5889 235.45 38.2234 235.189 37.9623C235.189 36.7091 235.189 35.0903 235.189 33.6804C235.189 33.2105 235.084 32.5839 235.189 32.2706C235.293 31.9573 235.868 31.6962 236.285 31.9573C236.86 32.2706 236.599 34.2548 236.599 35.1425C236.599 35.7169 236.599 36.2913 236.599 36.9179C236.599 37.4401 236.651 38.119 236.338 38.3278Z" fill="white"/>
<path d="M244.744 36.2391C244.17 36.2391 243.543 36.2391 242.969 36.2391C242.917 36.9179 243.126 37.91 242.656 38.2233C242.499 38.3278 242.134 38.4322 241.82 38.2756C241.089 37.9623 241.559 36.2391 241.403 35.2991C242.499 35.2991 243.596 35.2991 244.692 35.2991C244.64 33.9937 244.797 32.7405 244.588 31.6961C244.327 30.6518 243.439 29.9729 242.081 30.0252C240.828 30.0774 239.836 30.9651 239.679 32.0616C239.523 33.1582 239.627 34.8292 239.627 36.2913C239.627 37.8578 239.784 38.9022 240.671 39.5288C241.403 40.051 242.76 40.1032 243.648 39.581C244.588 39.0588 244.797 37.91 244.744 36.2391ZM241.611 32.0616C241.82 31.7483 242.395 31.7483 242.708 31.9572C243.126 32.2705 242.969 33.106 243.021 33.7326C242.499 33.7326 241.977 33.7326 241.507 33.7326C241.455 33.106 241.35 32.4272 241.611 32.0616Z" fill="white"/>
</g>
<defs>
<clipPath id="clip0">
<rect width="52.2177" height="52.2177" fill="white"/>
</clipPath>
<clipPath id="clip1">
<rect width="52.2177" height="52.2177" fill="white" transform="translate(68.9275)"/>
</clipPath>
<clipPath id="clip2">
<rect width="52.2177" height="52.2177" fill="white" transform="translate(137.855)"/>
</clipPath>
<clipPath id="clip3">
<rect width="52.2177" height="52.2177" fill="white" transform="translate(206.782)"/>
</clipPath>
</defs>
</svg>
